<svg width="20" height="20" viewBox="0 0 20 20" fill="none" xmlns="http://www.w3.org/2000/svg">
<path d="M7.41667 1.66699C7.41667 1.25278 7.08088 0.916992 6.66667 0.916992C6.25245 0.916992 5.91667 1.25278 5.91667 1.66699H6.66667H7.41667ZM5.91667 5.00033C5.91667 5.41454 6.25245 5.75033 6.66667 5.75033C7.08088 5.75033 7.41667 5.41454 7.41667 5.00033H6.66667H5.91667ZM14.0833 1.66699C14.0833 1.25278 13.7475 0.916992 13.3333 0.916992C12.9191 0.916992 12.5833 1.25278 12.5833 1.66699H13.3333H14.0833ZM12.5833 5.00033C12.5833 5.41454 12.9191 5.75033 13.3333 5.75033C13.7475 5.75033 14.0833 5.41454 14.0833 5.00033H13.3333H12.5833ZM5 3.33366V4.08366H15V3.33366V2.58366H5V3.33366ZM17.5 5.83366H16.75V15.8337H17.5H18.25V5.83366H17.5ZM15 18.3337V17.5837H5V18.3337V19.0837H15V18.3337ZM2.5 15.8337H3.25V5.83366H2.5H1.75V15.8337H2.5ZM5 18.3337V17.5837C4.0335 17.5837 3.25 16.8002 3.25 15.8337H2.5H1.75C1.75 17.6286 3.20508 19.0837 5 19.0837V18.3337ZM17.5 15.8337H16.75C16.75 16.8002 15.9665 17.5837 15 17.5837V18.3337V19.0837C16.7949 19.0837 18.25 17.6286 18.25 15.8337H17.5ZM15 3.33366V4.08366C15.9665 4.08366 16.75 4.86716 16.75 5.83366H17.5H18.25C18.25 4.03873 16.7949 2.58366 15 2.58366V3.33366ZM5 3.33366V2.58366C3.20507 2.58366 1.75 4.03873 1.75 5.83366H2.5H3.25C3.25 4.86716 4.0335 4.08366 5 4.08366V3.33366ZM2.5 8.33366V9.08366H17.5V8.33366V7.58366H2.5V8.33366ZM6.66667 1.66699H5.91667V5.00033H6.66667H7.41667V1.66699H6.66667ZM13.3333 1.66699H12.5833V5.00033H13.3333H14.0833V1.66699H13.3333Z" fill="#090B09"/>
</svg>
