<svg width="18" height="18" viewBox="0 0 18 18" fill="none" xmlns="http://www.w3.org/2000/svg">
    <path
        d="M3.83824 2.25H5.99916C6.61251 2.25 7.16408 2.62343 7.39187 3.19291L8.18983 5.18781C8.42792 5.78303 8.19883 6.46305 7.64912 6.79288C7.06624 7.14261 6.84069 7.88805 7.2222 8.45065C7.84341 9.36673 8.63327 10.1566 9.54935 10.7778C10.112 11.1593 10.8574 10.9338 11.2071 10.3509C11.5369 9.80117 12.217 9.57208 12.8122 9.81017L14.8071 10.6081C15.3766 10.8359 15.75 11.3875 15.75 12.0008V14.1618C15.75 14.583 15.5827 14.987 15.2848 15.2848C14.987 15.5827 14.583 15.75 14.1618 15.75C11.0641 15.5618 8.14248 14.2463 5.94807 12.0519C3.75366 9.85753 2.43825 6.93588 2.25 3.83824C2.25 3.41701 2.41733 3.01304 2.71518 2.71518C3.01304 2.41733 3.41701 2.25 3.83824 2.25Z"
        stroke="#090B09" stroke-width="2" stroke-linecap="round" stroke-linejoin="round" />
</svg>
