<svg width="30" height="30" viewBox="0 0 30 30" fill="none" xmlns="http://www.w3.org/2000/svg">
    <path
        d="M21.0325 13.2698C21.0365 13.2699 21.0405 13.2703 21.0445 13.2704C21.0821 13.2581 21.0178 13.2673 21.0325 13.2698Z"
        fill="black" />
    <path d="M9.14047 13.2702C9.097 13.2553 9.18881 13.2706 9.14047 13.2702V13.2702Z"
        fill="black" />
    <path
        d="M8.62615 14.1431C8.62615 15.8355 8.62615 18.1073 8.62615 18.8779C8.62615 19.6455 9.25053 20.2698 10.018 20.2698H16.6042C16.8477 20.2698 17.0451 20.0725 17.0451 19.829C17.0451 19.5855 16.8477 19.3881 16.6042 19.3881H10.0179C9.77184 19.3881 9.56588 19.2129 9.51825 18.9807C9.50413 18.9119 9.50782 18.968 9.50782 17.8659H20.6718V18.8779C20.6718 19.1592 20.443 19.3881 20.1617 19.3881H18.152C17.9085 19.3881 17.7112 19.5855 17.7112 19.829C17.7112 20.0725 17.9085 20.2698 18.152 20.2698H20.1617C20.9292 20.2698 21.5536 19.6455 21.5536 18.8779C21.5536 18.1057 21.5536 15.8243 21.5536 14.1479C24.5293 13.9159 26.7737 11.3687 26.731 8.53505C26.7311 8.53101 26.7312 8.52691 26.7312 8.52281C26.7312 5.03951 23.572 2.37272 20.1175 2.99335C17.9931 -1.02034 12.2719 -0.978678 10.1765 3.00395C6.7106 2.34389 3.50146 5.00623 3.50146 8.52286C3.50146 8.52691 3.50164 8.53101 3.50164 8.53511C3.50164 8.53898 3.50146 8.54284 3.50146 8.54677C3.50146 11.4783 5.75856 13.8922 8.62615 14.1431ZM9.18801 3.79913C9.37733 3.80447 9.63379 3.81062 9.8203 3.83822C9.63315 4.39755 9.53149 4.99562 9.53149 5.61707C9.53143 5.86053 9.72883 6.05793 9.97229 6.05793C10.2158 6.05793 10.4132 5.86053 10.4132 5.61707C10.4132 2.04665 14.1891 -0.175647 17.294 1.39549C18.8519 2.18856 19.8867 3.80001 19.8867 5.61707C19.8867 5.86053 20.084 6.05793 20.3275 6.05793C20.5711 6.05793 20.7684 5.86053 20.7684 5.61707C20.7684 4.99246 20.6658 4.3914 20.4768 3.82966C20.6427 3.80722 20.8777 3.80394 21.0447 3.79902C23.6524 3.79902 25.8426 5.92832 25.8492 8.5347C25.8427 11.1411 23.6523 13.2704 21.0444 13.2704C21.0384 13.2704 21.0346 13.2701 21.0324 13.2698C20.3824 13.2502 19.6899 13.1124 19.1038 12.8375C18.8836 12.7342 18.6208 12.829 18.5175 13.0495C18.414 13.2699 18.509 13.5324 18.7294 13.6358C19.345 13.9246 19.9967 14.096 20.6718 14.1479V16.9841H18.4498V15.6022C18.4498 15.3587 18.2524 15.1614 18.0089 15.1614C17.7654 15.1614 17.5681 15.3587 17.5681 15.6022V16.9841H15.4383V15.6022C15.4383 15.3587 15.2409 15.1614 14.9974 15.1614C14.754 15.1614 14.5566 15.3587 14.5566 15.6022V16.9841H12.4269V15.6022C12.4269 15.3587 12.2295 15.1614 11.9861 15.1614C11.7426 15.1614 11.5452 15.3587 11.5452 15.6022V16.9841H9.50788V14.1515C10.202 14.1046 10.8717 13.9321 11.5034 13.6358C11.7238 13.5324 11.8186 13.2699 11.7153 13.0495C11.6118 12.8291 11.3493 12.7342 11.1289 12.8375C10.5252 13.1207 9.81087 13.258 9.14055 13.2702C6.55949 13.2443 4.39004 11.1145 4.3836 8.53476C4.3901 5.92844 6.58023 3.79913 9.18801 3.79913Z"
        fill="black" />
    <path d="M9.18817 3.79907C9.14528 3.81302 9.23575 3.79907 9.18817 3.79907V3.79907Z"
        fill="black" />
    <path d="M21.0445 3.79907C20.9969 3.79907 21.0875 3.81308 21.0445 3.79907V3.79907Z"
        fill="black" />
    <path
        d="M26.7082 21.1427C25.4078 18.8901 20.8414 20.35 20.7073 22.9543L15.3425 26.0516L10.1346 23.0449L10.1917 22.9462C10.5753 22.2815 10.3467 21.4286 9.68212 21.0449L6.17047 19.0174C5.95953 18.8957 5.68994 18.9678 5.56818 19.1788C5.44642 19.3896 5.51867 19.6592 5.72955 19.781L9.24126 21.8085C9.48484 21.9492 9.56863 22.2618 9.428 22.5053C9.03788 23.1811 9.15601 22.9764 8.87575 23.4618L4.90455 21.1691C4.69367 21.0475 4.42408 21.1196 4.30232 21.3305C4.18056 21.5414 4.25281 21.811 4.46369 21.9327L8.43484 24.2254C8.34542 24.3802 8.08919 24.8241 7.8827 25.1818C7.74196 25.4253 7.4293 25.5092 7.18573 25.3686L3.67407 23.3412C3.46319 23.2195 3.19354 23.2916 3.07184 23.5025C2.95009 23.7134 3.02233 23.983 3.23321 24.1048C7.03608 26.3003 6.94391 26.3184 7.4385 26.3184C7.91985 26.3184 8.38878 26.0687 8.6463 25.6227L8.7032 25.5242L12.6465 27.8008C12.0461 28.7614 12.7423 29.9929 13.8593 29.9929C14.3289 29.9929 14.5353 29.8233 15.3425 29.3573L16.1109 29.801C17.3936 30.5416 18.8217 29.0676 18.0443 27.8078L19.6325 26.9236C19.8452 26.8052 19.9217 26.5367 19.8032 26.3239C19.6847 26.1112 19.4162 26.0347 19.2035 26.1533L17.3276 27.1977L16.2242 26.5606L21.3696 23.5899C21.5148 23.506 21.5998 23.3471 21.589 23.1798C21.4678 21.2983 25.0798 20.0856 25.9444 21.5835C26.8108 23.0839 23.9499 25.6005 22.3842 24.5572C22.2447 24.4642 22.0646 24.4584 21.9194 24.5422L20.4865 25.3694C20.2756 25.4911 20.2034 25.7607 20.3251 25.9716C20.4468 26.1826 20.7165 26.2546 20.9274 26.133L22.1386 25.4337C24.4647 26.6214 28.007 23.3918 26.7082 21.1427ZM14.1333 29.0375C13.6262 29.3306 13.0694 28.7227 13.4109 28.2423L14.4608 28.8485L14.1333 29.0375ZM17.3576 28.4193C17.4512 28.7677 17.1884 29.1114 16.8258 29.1114C16.6366 29.1114 16.6431 29.0903 15.5636 28.4671C15.5636 28.4671 13.5973 27.3319 13.5818 27.3229L13.5817 27.3228L9.144 24.7607L9.69379 23.8085C17.7931 28.4847 17.2757 28.1132 17.3576 28.4193Z"
        fill="black" />
</svg>
