<svg width="41" height="44" viewBox="0 0 41 44" fill="none" xmlns="http://www.w3.org/2000/svg">
    <path d="M33 35.7502V26.5835C33 23.5512 35.4677 21.0835 38.5 21.0835C39.512 21.0835 40.3333 21.9048 40.3333 22.9168C40.3333 23.9362 39.501 24.763 38.478 24.7502C37.4733 24.7373 36.6667 25.5788 36.6667 26.5835V32.0835C36.6667 34.1093 35.0258 35.7502 33 35.7502Z" fill="#D6D8D6"/>
    <path d="M7.33333 35.7502V26.5835C7.33333 23.5512 4.86567 21.0835 1.83333 21.0835C0.821333 21.0835 0 21.9048 0 22.9168C0 23.9362 0.832333 24.763 1.85533 24.7502C2.86 24.7373 3.66667 25.5788 3.66667 26.5835V32.0835C3.66667 34.1093 5.3075 35.7502 7.33333 35.7502Z" fill="#D6D8D6"/>
    <path d="M27.9579 44.0002H12.3746C11.3626 44.0002 10.5413 43.1788 10.5413 42.1668C10.5413 41.1548 11.3626 40.3335 12.3746 40.3335H27.9579C28.9699 40.3335 29.7913 41.1548 29.7913 42.1668C29.7913 43.1788 28.9699 44.0002 27.9579 44.0002Z" fill="#D6D8D6"/>
    <path d="M20.1661 43.9998C19.1541 43.9998 18.3328 43.1785 18.3328 42.1665V34.3748C18.3328 33.3628 19.1541 32.5415 20.1661 32.5415C21.1781 32.5415 21.9994 33.3628 21.9994 34.3748V42.1665C21.9994 43.1785 21.1781 43.9998 20.1661 43.9998Z" fill="#D6D8D6"/>
    <path d="M29.4447 23.8333H10.8877C9.938 23.8333 9.04333 23.4153 8.43283 22.6893C7.8205 21.9633 7.56383 21.01 7.727 20.075L10.7557 2.65833C11.0233 1.11833 12.3525 0 13.9163 0H26.4142C27.9798 0 29.309 1.11833 29.5748 2.66017L32.6035 20.0768C32.7667 21.0118 32.51 21.9652 31.8977 22.6912C31.289 23.4153 30.3943 23.8333 29.4447 23.8333Z" fill="#E5E7E5"/>
    <path d="M33.4583 35.7498H6.875C6.116 35.7498 5.5 35.1338 5.5 34.3748V30.7082C5.5 27.927 7.7605 25.6665 10.5417 25.6665H29.7917C32.5728 25.6665 34.8333 27.927 34.8333 30.7082V34.3748C34.8333 35.1338 34.2173 35.7498 33.4583 35.7498Z" fill="#E5E7E5"/>
</svg>
