<svg width="20" height="20" viewBox="0 0 20 20" fill="none" xmlns="http://www.w3.org/2000/svg">
    <g clip-path="url(#clip0_401_12493)">
        <path
            d="M13.0527 3.14409C11.5754 2.48584 9.92486 2.32277 8.34731 2.6792C6.76975 3.03562 5.34968 3.89245 4.29887 5.12189C3.24807 6.35133 2.62284 7.88751 2.51642 9.50132C2.41001 11.1151 2.82811 12.7201 3.70838 14.0769C4.58865 15.4337 5.88392 16.4695 7.40102 17.03C8.91811 17.5905 10.5757 17.6456 12.1267 17.187C13.6776 16.7284 15.0388 15.7808 16.0072 14.4855C16.9755 13.1901 17.4992 11.6164 17.5002 9.99909V9.2329C17.5002 8.77266 17.8733 8.39956 18.3335 8.39956C18.7937 8.39956 19.1668 8.77266 19.1668 9.2329V9.99956C19.1657 11.9763 18.5256 13.9002 17.3421 15.4834C16.1585 17.0666 14.4948 18.2248 12.5992 18.7853C10.7036 19.3457 8.67765 19.2784 6.82343 18.5934C4.9692 17.9084 3.3861 16.6423 2.31021 14.984C1.23432 13.3257 0.723305 11.3641 0.853366 9.39166C0.983428 7.41922 1.7476 5.54167 3.03192 4.03902C4.31624 2.53637 6.05188 1.48914 7.98 1.05351C9.90812 0.617872 11.9254 0.817181 13.731 1.62171C14.1514 1.80902 14.3403 2.30167 14.153 2.72206C13.9657 3.14246 13.4731 3.3314 13.0527 3.14409Z"
            fill="#34C759" />
        <path
            d="M18.9225 2.74335C19.2481 3.06862 19.2483 3.59626 18.923 3.92186L10.5897 12.2635C10.4335 12.4199 10.2215 12.5078 10.0004 12.5079C9.77929 12.508 9.56724 12.4201 9.41091 12.2638L6.91091 9.76382C6.58548 9.43838 6.58548 8.91074 6.91091 8.58531C7.23635 8.25987 7.76399 8.25987 8.08942 8.58531L9.99987 10.4958L17.7439 2.74393C18.0692 2.41833 18.5969 2.41807 18.9225 2.74335Z"
            fill="#34C759" />
    </g>
    <defs>
        <clipPath id="clip0_401_12493">
            <rect width="20" height="20" fill="white" />
        </clipPath>
    </defs>
</svg>
