<svg width="32" height="32" viewBox="0 0 32 32" fill="none" xmlns="http://www.w3.org/2000/svg">
<path d="M15.9053 4C16.2326 3.99497 16.9223 4.115 17.4385 4.2666C17.9548 4.41827 18.7971 4.75659 19.3135 5.01562C19.8298 5.27634 20.75 5.85748 21.3584 6.30566C21.9667 6.75383 22.9195 7.5481 23.4717 8.07129C24.0254 8.59267 24.9351 9.63398 25.4941 10.3838C26.0531 11.1336 26.7618 12.2454 27.0703 12.8555C27.377 13.4655 27.7283 14.4229 27.8477 14.9854C28.0198 15.7897 28.0237 16.2075 27.8652 16.9453C27.7545 17.4616 27.4063 18.4191 27.0928 19.0752C26.7792 19.7313 26.0602 20.882 25.4961 21.6318C24.9303 22.3817 23.9793 23.4552 23.3828 24.0176C22.7846 24.5817 21.7959 25.3999 21.1875 25.8379C20.5791 26.2758 19.5809 26.869 18.9727 27.1553C18.3627 27.4432 17.4442 27.77 16.9277 27.8809C16.2035 28.0393 15.777 28.0396 15.0527 27.8828C14.5364 27.772 13.5789 27.4246 12.9229 27.1094C12.2667 26.7941 11.1161 26.0795 10.3662 25.5205C9.61637 24.9615 8.47589 23.9362 7.83008 23.2393C7.1859 22.5422 6.3478 21.5126 5.96777 20.9502C5.58604 20.3878 5.06101 19.4676 4.79688 18.9053C4.53443 18.3429 4.22796 17.4617 4.11719 16.9453C3.95871 16.2211 3.95845 15.7946 4.11523 15.0703C4.2261 14.5539 4.57421 13.5964 4.8877 12.9404C5.20131 12.2843 5.91839 11.1336 6.48242 10.3838C7.04655 9.63394 8.07478 8.49445 8.7666 7.84863C9.4602 7.20447 10.4466 6.39108 10.9629 6.04004C11.4793 5.69069 12.2461 5.22715 12.667 5.01074C13.0879 4.79432 13.8548 4.48073 14.3711 4.31543C14.8875 4.14842 15.5781 4.00682 15.9053 4ZM15.9902 11.3164C15.4331 11.3198 14.9322 11.4478 14.542 11.6846C14.2148 11.884 13.6758 12.2541 13.3486 12.5098C13.0214 12.7638 12.4236 13.4638 12.0215 14.0635C11.4012 14.9904 11.2915 15.2837 11.2949 16.0078C11.2983 16.6588 11.4198 17.0513 11.8135 17.6699C12.0947 18.1147 12.6555 18.8044 13.0576 19.2031C13.4598 19.6019 14.1685 20.1122 14.6338 20.3389C15.0989 20.5637 15.748 20.7435 16.0752 20.7402C16.4023 20.7351 16.8624 20.6383 17.0977 20.5225C17.3311 20.4066 17.9073 20.0264 18.376 19.6787C18.8445 19.3311 19.5175 18.6328 19.8721 18.125C20.2248 17.6172 20.5779 16.9334 20.6562 16.6045C20.7483 16.2108 20.7178 15.7473 20.5645 15.2412C20.4366 14.8203 20.0407 14.0907 19.6846 13.6221C19.3283 13.1534 18.5426 12.4412 17.9395 12.0391C17.0058 11.4172 16.7161 11.3096 15.9902 11.3164Z" fill="#0065FD"/>
</svg>
