<svg width="20" height="20" viewBox="0 0 20 20" fill="none" xmlns="http://www.w3.org/2000/svg">
<path d="M14.0003 9.33903C14.0003 9.89132 14.448 10.339 15.0003 10.339C15.5526 10.339 16.0003 9.89132 16.0003 9.33903H15.0003H14.0003ZM9.92262 11.2279L10.7572 11.7788L9.92262 11.2279ZM15.0003 4.73668H14.0003C14.0003 4.95815 13.7629 5.47731 12.6294 5.99931C11.5816 6.48184 10.0638 6.80686 8.33366 6.80686V7.80686V8.80686C10.2854 8.80686 12.1009 8.44458 13.466 7.81593C14.7454 7.22674 16.0003 6.21082 16.0003 4.73668H15.0003ZM8.33366 7.80686V6.80686C6.60347 6.80686 5.0857 6.48184 4.03791 5.99931C2.90443 5.47731 2.66699 4.95815 2.66699 4.73668H1.66699H0.666992C0.666992 6.21082 1.92194 7.22674 3.20131 7.81593C4.56639 8.44458 6.38195 8.80686 8.33366 8.80686V7.80686ZM1.66699 4.73668H2.66699C2.66699 4.51521 2.90443 3.99605 4.03791 3.47405C5.0857 2.99152 6.60347 2.6665 8.33366 2.6665V1.6665V0.666504C6.38195 0.666504 4.56639 1.02877 3.20131 1.65743C1.92194 2.24661 0.666992 3.26254 0.666992 4.73668H1.66699ZM8.33366 1.6665V2.6665C10.0638 2.6665 11.5816 2.99152 12.6294 3.47405C13.7629 3.99605 14.0003 4.51521 14.0003 4.73668H15.0003H16.0003C16.0003 3.26254 14.7454 2.24661 13.466 1.65743C12.1009 1.02877 10.2854 0.666504 8.33366 0.666504V1.6665ZM8.33366 11.3156V10.3156C6.60347 10.3156 5.0857 9.99061 4.03791 9.50808C2.90443 8.98608 2.66699 8.46692 2.66699 8.24545H1.66699H0.666992C0.666992 9.71959 1.92194 10.7355 3.20131 11.3247C4.56639 11.9534 6.38195 12.3156 8.33366 12.3156V11.3156ZM8.33366 14.8244V13.8244C6.60347 13.8244 5.0857 13.4994 4.03791 13.0169C2.90443 12.4949 2.66699 11.9757 2.66699 11.7542H1.66699H0.666992C0.666992 13.2284 1.92194 14.2443 3.20131 14.8335C4.56639 15.4621 6.38195 15.8244 8.33366 15.8244V14.8244ZM8.33366 18.3332V17.3332C6.60347 17.3332 5.0857 17.0082 4.03791 16.5256C2.90443 16.0036 2.66699 15.4845 2.66699 15.263H1.66699H0.666992C0.666992 16.7371 1.92194 17.7531 3.20131 18.3422C4.56639 18.9709 6.38195 19.3332 8.33366 19.3332V18.3332ZM1.66699 4.73668H0.666992V15.263H1.66699H2.66699V4.73668H1.66699ZM15.0003 4.73668H14.0003V9.33903H15.0003H16.0003V4.73668H15.0003ZM18.3337 13.7498H17.3337C17.3337 15.7289 15.7293 17.3332 13.7503 17.3332V18.3332V19.3332C16.8339 19.3332 19.3337 16.8334 19.3337 13.7498H18.3337ZM13.7503 9.1665V10.1665C15.7293 10.1665 17.3337 11.7708 17.3337 13.7498H18.3337H19.3337C19.3337 10.6662 16.8339 8.1665 13.7503 8.1665V9.1665ZM13.7503 18.3332V17.3332C13.198 17.3332 12.6776 17.2089 12.2129 16.9878L11.7832 17.8907L11.3535 18.7937C12.0809 19.1399 12.8945 19.3332 13.7503 19.3332V18.3332ZM11.7832 17.8907L11.5145 16.9275C10.6036 17.1817 9.51409 17.3332 8.33366 17.3332V18.3332V19.3332C9.67837 19.3332 10.9501 19.1614 12.0519 18.854L11.7832 17.8907ZM11.7832 17.8907L12.2129 16.9878C11.2399 16.5247 10.5092 15.636 10.2602 14.5665L9.2863 14.7933L8.31235 15.0201C8.70181 16.6928 9.84038 18.0736 11.3535 18.7937L11.7832 17.8907ZM9.2863 14.7933L10.2602 14.5665C10.1994 14.3052 10.167 14.0319 10.167 13.7498H9.16699H8.16699C8.16699 14.1857 8.21712 14.611 8.31235 15.0201L9.2863 14.7933ZM9.2863 14.7933L9.22055 13.7955C8.93141 13.8145 8.63527 13.8244 8.33366 13.8244V14.8244V15.8244C8.67893 15.8244 9.01892 15.8131 9.35205 15.7911L9.2863 14.7933ZM9.16699 13.7498H10.167C10.167 13.0199 10.3842 12.3438 10.7572 11.7788L9.92262 11.2279L9.08808 10.6769C8.50587 11.5588 8.16699 12.6163 8.16699 13.7498H9.16699ZM9.92262 11.2279L10.7572 11.7788C11.3999 10.8053 12.5007 10.1665 13.7503 10.1665V9.1665V8.1665C11.8008 8.1665 10.0852 9.16653 9.08808 10.6769L9.92262 11.2279ZM9.92262 11.2279L9.81072 10.2342C9.33922 10.2873 8.84442 10.3156 8.33366 10.3156V11.3156V12.3156C8.91806 12.3156 9.48759 12.2832 10.0345 12.2216L9.92262 11.2279Z" fill="white"/>
</svg>
