<svg width="24" height="24" viewBox="0 0 24 24" fill="none" xmlns="http://www.w3.org/2000/svg">
<path d="M2 21.0284H1H2ZM2 15.9716H3H2ZM15 18V19H15.4377L15.7346 18.6785L15 18ZM5 17.9149C5 18.4671 5.44772 18.9149 6 18.9149C6.55228 18.9149 7 18.4671 7 17.9149H6H5ZM21.6029 15.6488L22.3528 16.3103L21.6029 15.6488ZM16.5986 21.3214L15.8487 20.6599L16.5986 21.3214ZM19.1093 13.5505L19.844 14.229L19.8524 14.2197L19.1093 13.5505ZM13.9201 4.75317L14.8973 4.54078V4.54078L13.9201 4.75317ZM11 17C10.4477 17 10 17.4477 10 18C10 18.5523 10.4477 19 11 19V18V17ZM3 15V16H5V15V14H3V15ZM6 15.9716H5V21.0284H6H7V15.9716H6ZM5 22V21H3V22V23H5V22ZM2 21.0284H3V15.9716H2H1V21.0284H2ZM3 22V21C2.99408 21 2.99155 20.999 2.99087 20.9987C2.98959 20.9982 2.98925 20.9977 2.98975 20.9982C2.99026 20.9987 2.99284 21.0014 2.99547 21.0074C2.99681 21.0105 2.99801 21.0141 2.99885 21.0181C2.9997 21.0222 3 21.0257 3 21.0284H2H1C1 22.1442 1.92277 23 3 23V22ZM6 21.0284H5C5 21.0257 5.0003 21.0222 5.00115 21.0181C5.00199 21.0141 5.00319 21.0105 5.00452 21.0074C5.00716 21.0014 5.00974 20.9987 5.01025 20.9982C5.01075 20.9977 5.01041 20.9982 5.00913 20.9987C5.00845 20.999 5.00592 21 5 21V22V23C6.07723 23 7 22.1442 7 21.0284H6ZM5 15V16C5.00592 16 5.00845 16.001 5.00913 16.0013C5.01041 16.0018 5.01075 16.0023 5.01025 16.0018C5.00974 16.0013 5.00716 15.9986 5.00452 15.9926C5.00319 15.9895 5.00199 15.9859 5.00115 15.9819C5.0003 15.9778 5 15.9743 5 15.9716H6H7C7 14.8558 6.07723 14 5 14V15ZM3 15V14C1.92277 14 1 14.8558 1 15.9716H2H3C3 15.9743 2.9997 15.9778 2.99885 15.9819C2.99801 15.9859 2.99681 15.9895 2.99548 15.9926C2.99284 15.9986 2.99026 16.0013 2.98975 16.0018C2.98925 16.0023 2.98959 16.0018 2.99087 16.0013C2.99155 16.001 2.99408 16 3 16V15ZM8 15V16H13V15V14H8V15ZM15 16.8297H14V18H15H16V16.8297H15ZM6 17.9149H7V16.9432H6H5V17.9149H6ZM21.6029 15.6488L20.853 14.9872L15.8487 20.6599L16.5986 21.3214L17.3485 21.983L22.3528 16.3103L21.6029 15.6488ZM19.1093 13.5505L19.8524 14.2197C20.0487 14.0017 20.3265 13.9496 20.5878 14.045C20.8471 14.1396 21 14.3431 21 14.6058H22H23C23 12.1484 19.941 11.1326 18.3662 12.8813L19.1093 13.5505ZM16.5986 21.3214L15.8487 20.6599C15.6622 20.8713 15.3825 21 15.0801 21V22V23C15.9455 23 16.7752 22.6329 17.3485 21.983L16.5986 21.3214ZM21.6029 15.6488L22.3528 16.3103C22.768 15.8397 23 15.2353 23 14.6058H22H21C21 14.7414 20.9503 14.877 20.853 14.9872L21.6029 15.6488ZM13 15V16C13.6615 16 14 16.412 14 16.8297H15H16C16 15.101 14.5477 14 13 14V15ZM8 15V14C6.37048 14 5 15.2908 5 16.9432H6H7C7 16.4492 7.42038 16 8 16V15ZM15 18L15.7346 18.6785L19.8439 14.229L19.1093 13.5505L18.3746 12.872L14.2654 17.3215L15 18ZM17 8.5H16C16 9.88071 14.8807 11 13.5 11V12V13C15.9853 13 18 10.9853 18 8.5H17ZM13.5 12V11C12.1193 11 11 9.88071 11 8.5H10H9C9 10.9853 11.0147 13 13.5 13V12ZM10 8.5H11C11 7.11929 12.1193 6 13.5 6V5V4C11.0147 4 9 6.01472 9 8.5H10ZM7 5.5H8C8 4.11929 9.11929 3 10.5 3V2V1C8.01472 1 6 3.01472 6 5.5H7ZM10.5 2V3C11.6964 3 12.6986 3.84141 12.943 4.96556L13.9201 4.75317L14.8973 4.54078C14.4574 2.51658 12.657 1 10.5 1V2ZM10.03 8.96008L10.1716 7.97016C8.94728 7.79504 8 6.74502 8 5.5H7H6C6 7.78145 7.72036 9.63989 9.88837 9.95L10.03 8.96008ZM13.9201 4.75317L12.943 4.96556C12.9571 5.03066 12.9687 5.09679 12.9777 5.16383L13.9689 5.03113L14.96 4.89844C14.9439 4.77771 14.9229 4.65842 14.8973 4.54078L13.9201 4.75317ZM13.5 5V6C13.6145 6 13.7267 6.00763 13.8362 6.02229L13.9689 5.03113L14.1016 4.03998C13.9043 4.01357 13.7035 4 13.5 4V5ZM13.9689 5.03113L13.8362 6.02229C15.0575 6.18581 16 7.23366 16 8.5H17H18C18 6.21832 16.3028 4.33468 14.1016 4.03998L13.9689 5.03113ZM15.0801 22V21H5V22V23H15.0801V22ZM15 18V17H11V18V19H15V18Z" fill="#272A27"/>
</svg>
