<svg width="24" height="24" viewBox="0 0 24 24" fill="none" xmlns="http://www.w3.org/2000/svg">
<path d="M8.16051 4.01124L8.31694 4.99893L8.16051 4.01124ZM9.06602 3.63616L9.65381 4.44517V4.44517L9.06602 3.63616ZM4.33996 6.08488L3.35227 5.92846L4.33996 6.08488ZM6.08488 4.33996L5.92846 3.35227L6.08488 4.33996ZM3.63616 9.06602L2.82715 8.47822L2.82715 8.47822L3.63616 9.06602ZM4.01124 8.16051L4.99893 8.31694L4.01124 8.16051ZM2.40091 13.2339L1.5919 13.8216H1.5919L2.40091 13.2339ZM2.40091 10.7662L3.20992 11.3539L2.40091 10.7662ZM4.01124 15.8395L4.99893 15.6831L4.01124 15.8395ZM3.63616 14.934L4.44517 14.3462L3.63616 14.934ZM6.08488 19.66L6.2413 18.6724H6.2413L6.08488 19.66ZM4.33996 17.9151L3.35227 18.0715L4.33996 17.9151ZM9.06602 20.3638L9.65381 19.5548L9.06602 20.3638ZM8.16051 19.9888L8.00409 20.9765H8.00409L8.16051 19.9888ZM13.2339 21.5991L13.8216 22.4081L13.2339 21.5991ZM10.7662 21.5991L10.1784 22.4081L10.7662 21.5991ZM15.8395 19.9888L15.9959 20.9765L15.8395 19.9888ZM14.934 20.3638L14.3462 19.5548L14.934 20.3638ZM19.66 17.9151L18.6724 17.7587L19.66 17.9151ZM17.9151 19.66L17.7587 18.6724L17.9151 19.66ZM20.3638 14.934L19.5548 14.3462L20.3638 14.934ZM19.9888 15.8395L20.9765 15.9959L19.9888 15.8395ZM21.5991 10.7662L22.4081 10.1784L21.5991 10.7662ZM21.5991 13.2339L22.4081 13.8216L21.5991 13.2339ZM19.9888 8.16051L20.9765 8.00409V8.00409L19.9888 8.16051ZM20.3638 9.06602L19.5548 9.65381L20.3638 9.06602ZM17.9151 4.33996L18.0715 3.35227L17.9151 4.33996ZM19.66 6.08488L18.6724 6.2413V6.2413L19.66 6.08488ZM14.934 3.63616L14.3462 4.44517L14.934 3.63616ZM15.8395 4.01124L15.6831 4.99893L15.8395 4.01124ZM13.2339 2.40091L13.8216 1.5919V1.5919L13.2339 2.40091ZM10.7662 2.40091L10.1784 1.5919V1.5919L10.7662 2.40091ZM9 8C8.44772 8 8 8.44772 8 9C8 9.55228 8.44772 10 9 10V9V8ZM9.01 10C9.56228 10 10.01 9.55228 10.01 9C10.01 8.44772 9.56228 8 9.01 8V9V10ZM15 14C14.4477 14 14 14.4477 14 15C14 15.5523 14.4477 16 15 16V15V14ZM15.01 16C15.5623 16 16.01 15.5523 16.01 15C16.01 14.4477 15.5623 14 15.01 14V15V16ZM16.7071 8.70711C17.0976 8.31658 17.0976 7.68342 16.7071 7.29289C16.3166 6.90237 15.6834 6.90237 15.2929 7.29289L16 8L16.7071 8.70711ZM7.29289 15.2929C6.90237 15.6834 6.90237 16.3166 7.29289 16.7071C7.68342 17.0976 8.31658 17.0976 8.70711 16.7071L8 16L7.29289 15.2929ZM13.2339 2.40091L12.6461 3.20992L14.3462 4.44517L14.934 3.63616L15.5218 2.82716L13.8216 1.5919L13.2339 2.40091ZM15.8395 4.01124L15.6831 4.99893L17.7587 5.32765L17.9151 4.33996L18.0715 3.35227L15.9959 3.02355L15.8395 4.01124ZM19.66 6.08488L18.6724 6.2413L19.0011 8.31694L19.9888 8.16051L20.9765 8.00409L20.6477 5.92846L19.66 6.08488ZM20.3638 9.06602L19.5548 9.65381L20.7901 11.3539L21.5991 10.7662L22.4081 10.1784L21.1728 8.47822L20.3638 9.06602ZM21.5991 13.2339L20.7901 12.6461L19.5548 14.3462L20.3638 14.934L21.1728 15.5218L22.4081 13.8216L21.5991 13.2339ZM19.9888 15.8395L19.0011 15.6831L18.6724 17.7587L19.66 17.9151L20.6477 18.0715L20.9765 15.9959L19.9888 15.8395ZM17.9151 19.66L17.7587 18.6724L15.6831 19.0011L15.8395 19.9888L15.9959 20.9765L18.0715 20.6477L17.9151 19.66ZM14.934 20.3638L14.3462 19.5548L12.6461 20.7901L13.2339 21.5991L13.8216 22.4081L15.5218 21.1728L14.934 20.3638ZM10.7662 21.5991L11.3539 20.7901L9.65381 19.5548L9.06602 20.3638L8.47822 21.1728L10.1784 22.4081L10.7662 21.5991ZM8.16051 19.9888L8.31694 19.0011L6.2413 18.6724L6.08488 19.66L5.92846 20.6477L8.00409 20.9765L8.16051 19.9888ZM4.33996 17.9151L5.32765 17.7587L4.99893 15.6831L4.01124 15.8395L3.02355 15.9959L3.35227 18.0715L4.33996 17.9151ZM3.63616 14.934L4.44517 14.3462L3.20992 12.6461L2.40091 13.2339L1.5919 13.8216L2.82716 15.5218L3.63616 14.934ZM2.40091 10.7662L3.20992 11.3539L4.44517 9.65381L3.63616 9.06602L2.82715 8.47822L1.5919 10.1784L2.40091 10.7662ZM4.01124 8.16051L4.99893 8.31694L5.32765 6.2413L4.33996 6.08488L3.35227 5.92846L3.02355 8.00409L4.01124 8.16051ZM6.08488 4.33996L6.2413 5.32765L8.31694 4.99893L8.16051 4.01124L8.00409 3.02355L5.92846 3.35227L6.08488 4.33996ZM9.06602 3.63616L9.65381 4.44517L11.3539 3.20992L10.7662 2.40091L10.1784 1.5919L8.47822 2.82716L9.06602 3.63616ZM8.16051 4.01124L8.31694 4.99893C8.80002 4.92242 9.25813 4.73266 9.65381 4.44517L9.06602 3.63616L8.47822 2.82715C8.33789 2.92911 8.17542 2.99641 8.00409 3.02355L8.16051 4.01124ZM4.33996 6.08488L5.32765 6.2413C5.40213 5.77099 5.77099 5.40213 6.2413 5.32765L6.08488 4.33996L5.92846 3.35227C4.60234 3.56228 3.56228 4.60234 3.35227 5.92846L4.33996 6.08488ZM3.63616 9.06602L4.44517 9.65381C4.73266 9.25813 4.92242 8.80002 4.99893 8.31694L4.01124 8.16051L3.02355 8.00409C2.99641 8.17542 2.92911 8.33789 2.82715 8.47822L3.63616 9.06602ZM2.40091 13.2339L3.20992 12.6461C2.93003 12.2608 2.93003 11.7392 3.20992 11.3539L2.40091 10.7662L1.5919 10.1784C0.802699 11.2646 0.802699 12.7354 1.5919 13.8216L2.40091 13.2339ZM4.01124 15.8395L4.99893 15.6831C4.92242 15.2 4.73266 14.7419 4.44517 14.3462L3.63616 14.934L2.82715 15.5218C2.92911 15.6621 2.99641 15.8246 3.02355 15.9959L4.01124 15.8395ZM6.08488 19.66L6.2413 18.6724C5.77099 18.5979 5.40213 18.229 5.32765 17.7587L4.33996 17.9151L3.35227 18.0715C3.56228 19.3977 4.60234 20.4377 5.92846 20.6477L6.08488 19.66ZM9.06602 20.3638L9.65381 19.5548C9.25813 19.2673 8.80001 19.0776 8.31694 19.0011L8.16051 19.9888L8.00409 20.9765C8.17542 21.0036 8.33789 21.0709 8.47822 21.1728L9.06602 20.3638ZM13.2339 21.5991L12.6461 20.7901C12.2608 21.07 11.7392 21.07 11.3539 20.7901L10.7662 21.5991L10.1784 22.4081C11.2646 23.1973 12.7354 23.1973 13.8216 22.4081L13.2339 21.5991ZM15.8395 19.9888L15.6831 19.0011C15.2 19.0776 14.7419 19.2673 14.3462 19.5548L14.934 20.3638L15.5218 21.1728C15.6621 21.0709 15.8246 21.0036 15.9959 20.9765L15.8395 19.9888ZM19.66 17.9151L18.6724 17.7587C18.5979 18.229 18.229 18.5979 17.7587 18.6724L17.9151 19.66L18.0715 20.6477C19.3977 20.4377 20.4377 19.3977 20.6477 18.0715L19.66 17.9151ZM20.3638 14.934L19.5548 14.3462C19.2673 14.7419 19.0776 15.2 19.0011 15.6831L19.9888 15.8395L20.9765 15.9959C21.0036 15.8246 21.0709 15.6621 21.1728 15.5218L20.3638 14.934ZM21.5991 10.7662L20.7901 11.3539C21.07 11.7392 21.07 12.2608 20.7901 12.6461L21.5991 13.2339L22.4081 13.8216C23.1973 12.7354 23.1973 11.2646 22.4081 10.1784L21.5991 10.7662ZM19.9888 8.16051L19.0011 8.31694C19.0776 8.80001 19.2673 9.25813 19.5548 9.65381L20.3638 9.06602L21.1728 8.47822C21.0709 8.33789 21.0036 8.17542 20.9765 8.00409L19.9888 8.16051ZM17.9151 4.33996L17.7587 5.32765C18.229 5.40213 18.5979 5.77099 18.6724 6.2413L19.66 6.08488L20.6477 5.92846C20.4377 4.60234 19.3977 3.56228 18.0715 3.35227L17.9151 4.33996ZM14.934 3.63616L14.3462 4.44517C14.7419 4.73266 15.2 4.92242 15.6831 4.99893L15.8395 4.01124L15.9959 3.02355C15.8246 2.99641 15.6621 2.92911 15.5218 2.82715L14.934 3.63616ZM13.2339 2.40091L13.8216 1.5919C12.7354 0.802699 11.2646 0.8027 10.1784 1.5919L10.7662 2.40091L11.3539 3.20992C11.7392 2.93003 12.2608 2.93003 12.6461 3.20992L13.2339 2.40091ZM9 9V10H9.01V9V8H9V9ZM9.5 9H8.5C8.5 8.72386 8.72386 8.5 9 8.5V9.5V10.5C9.82843 10.5 10.5 9.82843 10.5 9H9.5ZM9 9.5V8.5C9.27614 8.5 9.5 8.72386 9.5 9H8.5H7.5C7.5 9.82843 8.17157 10.5 9 10.5V9.5ZM8.5 9H9.5C9.5 9.27614 9.27614 9.5 9 9.5V8.5V7.5C8.17157 7.5 7.5 8.17157 7.5 9H8.5ZM9 8.5V9.5C8.72386 9.5 8.5 9.27614 8.5 9H9.5H10.5C10.5 8.17157 9.82843 7.5 9 7.5V8.5ZM15 15V16H15.01V15V14H15V15ZM15.5 15H14.5C14.5 14.7239 14.7239 14.5 15 14.5V15.5V16.5C15.8284 16.5 16.5 15.8284 16.5 15H15.5ZM15 15.5V14.5C15.2761 14.5 15.5 14.7239 15.5 15H14.5H13.5C13.5 15.8284 14.1716 16.5 15 16.5V15.5ZM14.5 15H15.5C15.5 15.2761 15.2761 15.5 15 15.5V14.5V13.5C14.1716 13.5 13.5 14.1716 13.5 15H14.5ZM15 14.5V15.5C14.7239 15.5 14.5 15.2761 14.5 15H15.5H16.5C16.5 14.1716 15.8284 13.5 15 13.5V14.5ZM16 8L15.2929 7.29289L7.29289 15.2929L8 16L8.70711 16.7071L16.7071 8.70711L16 8Z" fill="#272A27"/>
</svg>
