<svg width="16" height="16" viewBox="0 0 16 16" fill="none" xmlns="http://www.w3.org/2000/svg">
<path d="M7.33333 1.99967H3.33333C2.59695 1.99967 2 2.59663 2 3.33301V12.6663C2 13.4027 2.59695 13.9997 3.33333 13.9997H12.6667C13.403 13.9997 14 13.4027 14 12.6663V8.66634M11.9294 1.80265C12.0783 1.65375 12.255 1.53564 12.4496 1.45506C12.6441 1.37448 12.8526 1.33301 13.0632 1.33301C13.2738 1.33301 13.4823 1.37448 13.6768 1.45506C13.8714 1.53564 14.0481 1.65375 14.197 1.80265C14.3459 1.95154 14.464 2.12831 14.5446 2.32284C14.6252 2.51738 14.6667 2.72589 14.6667 2.93646C14.6667 3.14703 14.6252 3.35553 14.5446 3.55007C14.464 3.74461 14.3459 3.92138 14.197 4.07027L8.9416 9.33309H6.66667V7.05814L11.9294 1.80265Z" stroke="#272A27" stroke-width="1.5" stroke-linecap="round" stroke-linejoin="round"/>
</svg>
