<svg width="20" height="20" viewBox="0 0 20 20" fill="none" xmlns="http://www.w3.org/2000/svg">
    <path
        d="M3.3715 6.8525C2.59188 7.77265 2.01135 8.84434 1.6665 10C2.74317 13.615 6.0915 16.25 10.0548 16.25C10.8823 16.25 11.6823 16.135 12.4407 15.9208M5.24484 5.19C6.67204 4.24822 8.34491 3.7474 10.0548 3.75C14.0182 3.75 17.3657 6.385 18.4423 9.99833C17.8523 11.9728 16.5857 13.6763 14.8648 14.81M5.24484 5.19L2.55484 2.5M5.24484 5.19L8.2865 8.23167M14.8648 14.81L17.5548 17.5M14.8648 14.81L11.8232 11.7683C12.0553 11.5362 12.2395 11.2605 12.3651 10.9572C12.4908 10.6539 12.5555 10.3287 12.5555 10.0004C12.5555 9.67208 12.4908 9.34697 12.3651 9.04363C12.2395 8.74029 12.0553 8.46467 11.8232 8.2325C11.591 8.00033 11.3154 7.81617 11.012 7.69052C10.7087 7.56487 10.3836 7.5002 10.0553 7.5002C9.72692 7.5002 9.4018 7.56487 9.09846 7.69052C8.79512 7.81617 8.5195 8.00033 8.28734 8.2325M11.8223 11.7675L8.28817 8.23333"
        stroke="#090B09" stroke-width="1.25" stroke-linecap="round" stroke-linejoin="round" />
</svg>
