<svg width="358" height="396" viewBox="0 0 358 396" fill="none" xmlns="http://www.w3.org/2000/svg">
<g clip-path="url(#clip0_122_5879)">
<path d="M94.2002 0.5H263.8C291.362 0.5 309.989 5.49847 321.744 17.377C333.501 29.257 338.5 48.1357 338.5 76.2002V503.5C338.5 531.565 333.501 550.443 321.72 562.323C309.94 574.202 291.262 579.2 263.6 579.2H94.2002C66.6377 579.2 48.0109 574.202 36.2559 562.323C24.4993 550.443 19.5 531.565 19.5 503.5V76.2002C19.5 48.1357 24.4993 29.257 36.2559 17.377C48.0109 5.49847 66.6376 0.5 94.2002 0.5ZM179 455.2C159.524 455.2 143.5 471.224 143.5 490.7C143.5 510.176 159.524 526.2 179 526.2C198.476 526.2 214.5 510.176 214.5 490.7C214.5 471.224 198.476 455.2 179 455.2ZM139 20.5C130.524 20.5 123.5 27.5239 123.5 36C123.5 44.4761 130.524 51.5 139 51.5H218.999C219 51.5 219 51.5 219 51V51.5C227.476 51.5 234.5 44.4761 234.5 36C234.5 27.5239 227.476 20.5 219 20.5H139Z" fill="#FFFBEF" stroke="#FFDE70"/>
<rect y="276" width="358" height="120" fill="url(#paint0_linear_122_5879)"/>
<path d="M220.667 188.625C218.958 188.625 217.542 187.208 217.542 185.5V177.167C217.542 166.417 210.583 159.458 199.833 159.458H191.5C189.792 159.458 188.375 158.042 188.375 156.333C188.375 154.625 189.792 153.208 191.5 153.208H199.833C214.167 153.208 223.792 162.833 223.792 177.167V185.5C223.792 187.208 222.375 188.625 220.667 188.625Z" fill="#FFC300"/>
<path d="M137.333 188.625C135.625 188.625 134.208 187.208 134.208 185.5V177.167C134.208 162.833 143.833 153.208 158.166 153.208H166.5C168.208 153.208 169.625 154.625 169.625 156.333C169.625 158.042 168.208 159.458 166.5 159.458H158.166C147.416 159.458 140.458 166.417 140.458 177.167V185.5C140.458 187.208 139.041 188.625 137.333 188.625Z" fill="#FFC300"/>
<path d="M199.833 242.792H191.5C189.792 242.792 188.375 241.375 188.375 239.667C188.375 237.958 189.792 236.542 191.5 236.542H199.833C210.583 236.542 217.542 229.583 217.542 218.833V210.5C217.542 208.792 218.958 207.375 220.667 207.375C222.375 207.375 223.792 208.792 223.792 210.5V218.833C223.792 233.167 214.167 242.792 199.833 242.792Z" fill="#FFC300"/>
<path d="M166.5 242.792H158.166C143.833 242.792 134.208 233.167 134.208 218.833V210.5C134.208 208.792 135.625 207.375 137.333 207.375C139.041 207.375 140.458 208.792 140.458 210.5V218.833C140.458 229.583 147.416 236.542 158.166 236.542H166.5C168.208 236.542 169.625 237.958 169.625 239.667C169.625 241.375 168.208 242.792 166.5 242.792Z" fill="#FFC300"/>
<path fill-rule="evenodd" clip-rule="evenodd" d="M162.125 176C163.851 176 165.25 177.399 165.25 179.125V187.458C165.25 189.184 163.851 190.583 162.125 190.583C160.399 190.583 159 189.184 159 187.458V179.125C159 177.399 160.399 176 162.125 176ZM178.792 176C180.518 176 181.917 177.399 181.917 179.125V199.958C181.917 201.684 180.518 203.083 178.792 203.083H174.625C172.899 203.083 171.5 201.684 171.5 199.958C171.5 198.232 172.899 196.833 174.625 196.833H175.667V179.125C175.667 177.399 177.066 176 178.792 176ZM195.458 176C197.184 176 198.583 177.399 198.583 179.125V187.458C198.583 189.184 197.184 190.583 195.458 190.583C193.732 190.583 192.333 189.184 192.333 187.458V179.125C192.333 177.399 193.732 176 195.458 176ZM168.499 210.247L168.496 210.244L168.487 210.234L168.478 210.226C168.474 210.222 168.475 210.222 168.478 210.226C168.486 210.233 168.508 210.254 168.545 210.286C168.62 210.351 168.754 210.464 168.948 210.609C169.336 210.9 169.959 211.319 170.814 211.747C172.515 212.597 175.165 213.5 178.792 213.5C182.418 213.5 185.068 212.597 186.769 211.747C187.625 211.319 188.247 210.9 188.635 210.609C188.829 210.464 188.964 210.351 189.039 210.286C189.076 210.253 189.098 210.232 189.106 210.225C189.109 210.222 189.109 210.222 189.106 210.225L189.096 210.234L189.09 210.241L189.086 210.244C190.307 209.026 192.282 209.029 193.501 210.249C194.722 211.469 194.722 213.448 193.501 214.668L191.292 212.458C193.501 214.668 193.502 214.667 193.501 214.668L193.492 214.677L193.481 214.688L193.454 214.715L193.38 214.785C193.322 214.839 193.247 214.908 193.154 214.989C192.969 215.152 192.712 215.364 192.385 215.609C191.732 216.1 190.792 216.723 189.564 217.337C187.099 218.569 183.498 219.75 178.792 219.75C174.085 219.75 170.485 218.569 168.019 217.337C166.791 216.723 165.851 216.1 165.198 215.609C164.871 215.364 164.615 215.152 164.429 214.989C164.336 214.908 164.261 214.839 164.203 214.785L164.13 214.715L164.102 214.688L164.091 214.677L164.086 214.673C164.085 214.671 164.082 214.668 166.292 212.458L164.082 214.668C162.862 213.448 162.862 211.469 164.082 210.249C165.295 209.036 167.256 209.028 168.478 210.226M168.496 210.244L168.499 210.247L168.496 210.244Z" fill="#FFC300"/>
</g>
<defs>
<linearGradient id="paint0_linear_122_5879" x1="179" y1="276" x2="179" y2="372.552" gradientUnits="userSpaceOnUse">
<stop stop-color="white" stop-opacity="0"/>
<stop offset="1" stop-color="white"/>
</linearGradient>
<clipPath id="clip0_122_5879">
<rect width="358" height="396" fill="white"/>
</clipPath>
</defs>
</svg>
