<svg width="20" height="20" viewBox="0 0 20 20" fill="none" xmlns="http://www.w3.org/2000/svg">
<g clip-path="url(#clip0_438_9130)">
<path d="M18.1191 16.9355C18.1067 16.7932 18.0901 16.6514 18.0695 16.5101C18.0694 16.5099 17.9868 16.0515 17.9709 15.9816C17.7873 15.1757 17.2866 14.5849 16.6102 14.1265C16.4837 14.0408 16.3525 13.9664 16.2195 13.8966C16.0443 13.8045 13.3961 12.9342 13.3272 12.9126C13.3435 13.0031 13.3546 13.1033 13.3583 13.2121C13.727 13.471 14.8139 14.4056 14.3203 16.1543C14.3203 16.1543 13.5401 15.2242 12.7441 15.1047C11.9859 16.4263 10.6953 18.0991 10.0002 18.5382C9.30505 18.0991 8.01445 16.4262 7.25629 15.1046C6.46023 15.2242 5.68003 16.1542 5.68003 16.1542C5.18647 14.4056 6.27332 13.471 6.64208 13.2121C6.64575 13.1033 6.65688 13.0031 6.67314 12.9126C6.6042 12.9342 3.95602 13.8045 3.78082 13.8965C3.64793 13.9664 3.51663 14.0407 3.39012 14.1265C2.71375 14.5848 2.21308 15.1757 2.02943 15.9815C2.01348 16.0516 1.93091 16.51 1.93091 16.5101C1.91022 16.6514 1.89369 16.7933 1.88124 16.9355C1.88071 16.9414 1.85105 17.6817 1.85107 17.686C1.85107 17.686 1.85871 18.0329 1.86301 18.1157C1.88678 18.5758 1.98331 19.0037 2.31914 19.3603C2.7471 19.8145 3.26693 20.0005 3.87657 20.0001C5.91774 19.9992 7.95899 19.999 10.0002 19.9989C12.0414 19.999 14.0826 19.9992 16.1238 20.0001C16.7334 20.0005 17.2532 19.8145 17.6812 19.3603C18.017 19.0037 18.1136 18.5759 18.1373 18.1157C18.1416 18.0329 18.1493 17.686 18.1493 17.686C18.1493 17.6817 18.1197 16.9414 18.1191 16.9355Z" fill="#A7AAA7"/>
<path d="M5.19706 8.61275C5.26045 8.84179 5.30102 9.0573 5.29947 9.26191C5.29894 9.33009 5.29373 9.39708 5.28314 9.46291C5.22583 9.65654 4.81783 10.3092 4.75268 10.4188C5.47161 11.1939 6.42376 11.3737 7.3628 11.5716C7.64044 11.63 7.9235 11.6652 8.22431 11.7041C8.32132 11.7217 8.41901 11.7398 8.51733 11.7586L8.04023 13.1532C8.04023 13.1532 8.02665 15.1882 9.99393 16.4265H10.0062C11.9735 15.1881 11.96 13.1532 11.96 13.1532L11.4829 11.7586C11.5812 11.7399 11.6789 11.7218 11.7759 11.7041C12.0767 11.6652 12.3598 11.63 12.6374 11.5717C13.5765 11.3738 14.5286 11.194 15.2475 10.4189C15.1824 10.3092 14.7744 9.65659 14.7171 9.46296C14.7064 9.39711 14.7013 9.33014 14.7007 9.26196C14.6992 9.05735 14.7397 8.84184 14.8031 8.6128C14.8634 8.39509 14.9328 8.17842 14.9989 7.96074C15.3168 7.25243 15.4938 6.46608 15.4938 5.63795C15.4938 2.55863 13.0463 0.056419 10.0062 0.000429907V0C10.0041 2.52886e-05 10.0021 0.000151732 10 0.00017702C9.99795 0.000151732 9.99595 5.05773e-05 9.99388 0V0.00037933C6.95386 0.0563684 4.50635 2.55858 4.50635 5.6379C4.50635 6.46598 4.68334 7.25235 5.00122 7.96069C5.0674 8.17837 5.13682 8.39499 5.19706 8.61275Z" fill="#A7AAA7"/>
</g>
<defs>
<clipPath id="clip0_438_9130">
<rect width="20" height="20" fill="white"/>
</clipPath>
</defs>
</svg>
