<svg width="20" height="20" viewBox="0 0 20 20" fill="none" xmlns="http://www.w3.org/2000/svg">
<path d="M4.94178 5.64938C4.17619 6.92004 3.84906 8.40694 4.01067 9.88157V10.728C4.01166 11.6192 3.77812 12.495 3.3335 13.2673M14.1689 9.03513C14.1689 8.13718 13.8121 7.276 13.1772 6.64105C12.5422 6.0061 11.681 5.64938 10.783 5.64938C9.88501 5.64938 9.0238 6.0061 8.38882 6.64105C7.75385 7.276 7.39712 8.13718 7.39712 9.03513V9.88157C7.39712 11.713 6.80309 13.495 5.70419 14.9602M10.7829 9.03561V10.7285C10.7856 13.1488 10.0471 15.5119 8.66669 17.5M14.1689 12.4218C13.9617 14.1908 13.446 15.9097 12.6452 17.5005M7.51906 3.0936C11.7047 1.39845 20.076 2.66955 16.7275 15.8053" stroke="#090B09" stroke-width="1.66667" stroke-linecap="round" stroke-linejoin="round"/>
</svg>
