<svg width="32" height="32" viewBox="0 0 32 32" fill="none" xmlns="http://www.w3.org/2000/svg">
    <path d="M30.8807 22.9192C30.7288 19.1727 29.1987 15.6723 26.5317 13.0053C24.6864 11.16 22.4421 9.85852 19.9934 9.1814C19.8377 7.11371 18.1068 5.47852 16 5.47852C13.8932 5.47852 12.1623 7.11364 12.0067 9.1814C9.55796 9.85852 7.31364 11.16 5.46832 13.0053C2.80126 15.6723 1.27132 19.1727 1.11938 22.9192C0.485501 23.024 0 23.5744 0 24.2375V25.1846C0 25.9222 0.600189 26.5224 1.33782 26.5224H30.6622C31.3998 26.5224 32 25.9222 32 25.1846V24.2375C32.0001 23.5744 31.5146 23.024 30.8807 22.9192ZM16 6.75346C17.2981 6.75346 18.3867 7.66402 18.6627 8.87965C17.7927 8.72346 16.9026 8.6429 16 8.6429C15.0975 8.6429 14.2073 8.72346 13.3373 8.87965C13.6133 7.66402 14.702 6.75346 16 6.75346ZM16 9.91784C23.2962 9.91784 29.2707 15.6847 29.6046 22.8997H2.3955C2.72938 15.6847 8.70389 9.91784 16 9.91784ZM30.7252 25.1846C30.7252 25.2192 30.6969 25.2475 30.6623 25.2475H1.33782C1.30313 25.2475 1.27488 25.2192 1.27488 25.1846V24.2375C1.27488 24.2028 1.30313 24.1746 1.33782 24.1746H30.6623C30.6969 24.1746 30.7252 24.2028 30.7252 24.2375V25.1846Z" fill="#777A76"/>
    <path d="M28.5598 21.1381C28.2084 19.2875 27.4316 17.5039 26.3134 15.9801C26.105 15.6963 25.7061 15.635 25.4222 15.8433C25.1384 16.0516 25.0772 16.4506 25.2854 16.7344C26.3064 18.1255 26.9866 19.6871 27.3073 21.3758C27.3653 21.6815 27.6327 21.8945 27.9328 21.8945C27.9722 21.8945 28.0122 21.8908 28.0524 21.8831C28.3984 21.8175 28.6255 21.4839 28.5598 21.1381Z" fill="#777A76"/>
    <path d="M24.9475 14.4047C24.8099 14.2697 24.6672 14.136 24.5232 14.0072C24.2611 13.7725 23.8579 13.7947 23.6231 14.057C23.3882 14.3193 23.4106 14.7223 23.6729 14.9571C23.8026 15.0732 23.9312 15.1937 24.0551 15.3152C24.1791 15.4368 24.3402 15.4974 24.5012 15.4974C24.6665 15.4974 24.8317 15.4335 24.9565 15.3061C25.203 15.0547 25.199 14.6511 24.9475 14.4047Z" fill="#777A76"/>
</svg>
