<svg width="18" height="18" viewBox="0 0 18 18" fill="none" xmlns="http://www.w3.org/2000/svg">
<path d="M15.2537 9.48709L9.00694 15.75L2.76018 9.48709C2.34815 9.08121 2.02359 8.59336 1.80696 8.05427C1.59033 7.51518 1.48631 6.93652 1.50144 6.35474C1.51658 5.77295 1.65055 5.20064 1.89492 4.67384C2.13929 4.14704 2.48876 3.67717 2.92133 3.29381C3.3539 2.91045 3.86019 2.62191 4.40833 2.44636C4.95647 2.27081 5.53458 2.21205 6.10625 2.27378C6.67792 2.33552 7.23078 2.5164 7.73 2.80506C8.22922 3.09371 8.66399 3.48387 9.00694 3.95097C9.35137 3.48726 9.78665 3.10051 10.2855 2.81492C10.7844 2.52933 11.3361 2.35106 11.9062 2.29125C12.4763 2.23145 13.0524 2.2914 13.5985 2.46736C14.1447 2.64332 14.649 2.9315 15.0801 3.31386C15.5111 3.69622 15.8596 4.16453 16.1036 4.68948C16.3476 5.21443 16.482 5.78473 16.4983 6.36466C16.5146 6.9446 16.4125 7.5217 16.1983 8.05985C15.9842 8.598 15.6626 9.0856 15.2537 9.49215" stroke="#090B09" stroke-width="2" stroke-linecap="round" stroke-linejoin="round"/>
</svg>
