<svg width="20" height="20" viewBox="0 0 20 20" fill="none" xmlns="http://www.w3.org/2000/svg">
<g clip-path="url(#clip0_410_23225)">
<path d="M7.57069 7.50171C7.76661 6.94477 8.15332 6.47513 8.66232 6.17599C9.17132 5.87684 9.76977 5.76749 10.3517 5.8673C10.9336 5.96712 11.4614 6.26965 11.8416 6.72132C12.2218 7.17299 12.4299 7.74465 12.429 8.33504C12.429 10.0017 9.92902 10.835 9.92902 10.835M9.99572 14.1684H10.0041M18.3332 9.99984C18.3332 14.6022 14.6022 18.3332 9.99984 18.3332C5.39746 18.3332 1.6665 14.6022 1.6665 9.99984C1.6665 5.39746 5.39746 1.6665 9.99984 1.6665C14.6022 1.6665 18.3332 5.39746 18.3332 9.99984Z" stroke="#090B09" stroke-width="1.66667" stroke-linecap="round" stroke-linejoin="round"/>
</g>
<defs>
<clipPath id="clip0_410_23225">
<rect width="20" height="20" fill="white"/>
</clipPath>
</defs>
</svg>
