<svg width="20" height="20" viewBox="0 0 20 20" fill="none" xmlns="http://www.w3.org/2000/svg">
<path d="M13.6362 3.47261C13.2528 3.07505 12.6198 3.06354 12.2222 3.4469C11.8246 3.83026 11.8131 4.46332 12.1965 4.86088L12.9163 4.16675L13.6362 3.47261ZM16.6663 8.05564L17.3862 8.74977C17.7597 8.3624 17.7597 7.74888 17.3862 7.3615L16.6663 8.05564ZM12.1965 11.2504C11.8131 11.648 11.8246 12.281 12.2222 12.6644C12.6198 13.0477 13.2528 13.0362 13.6362 12.6387L12.9163 11.9445L12.1965 11.2504ZM7.08301 16.8334C7.63529 16.8334 8.08301 16.3857 8.08301 15.8334C8.08301 15.2811 7.63529 14.8334 7.08301 14.8334V15.8334V16.8334ZM12.9163 4.16675L12.1965 4.86088L15.9465 8.74977L16.6663 8.05564L17.3862 7.3615L13.6362 3.47261L12.9163 4.16675ZM16.6663 8.05564L15.9465 7.3615L12.1965 11.2504L12.9163 11.9445L13.6362 12.6387L17.3862 8.74977L16.6663 8.05564ZM16.6663 8.05564V7.05564H7.08301V8.05564V9.05564H16.6663V8.05564ZM7.08301 15.8334V14.8334C5.59819 14.8334 4.33301 13.5746 4.33301 11.9445H3.33301H2.33301C2.33301 14.61 4.42569 16.8334 7.08301 16.8334V15.8334ZM3.33301 11.9445H4.33301C4.33301 10.3144 5.59819 9.05564 7.08301 9.05564V8.05564V7.05564C4.42569 7.05564 2.33301 9.27906 2.33301 11.9445H3.33301Z" fill="white"/>
</svg>
