<svg width="143" height="175" viewBox="0 0 143 175" fill="none" xmlns="http://www.w3.org/2000/svg">
    <path d="M65.7109 2.06833C70.503 1.53141 78.0606 1.34431 82.4902 1.63962C86.9198 1.92154 94.0201 3.02139 98.2617 4.06833C102.503 5.10191 108.397 7.16991 111.35 8.64645C114.303 10.1231 119.471 14.2037 122.84 17.707C126.665 21.6935 129.779 26.5926 131.148 30.7939C132.424 34.7 133.283 41.4257 133.189 46.9023C133.109 52.0702 132.048 59.0234 130.826 62.3388C129.605 65.6544 126.692 70.7279 124.343 73.5869C121.994 76.4593 118.41 79.7749 116.37 80.9697C114.33 82.1642 112.665 83.4394 112.651 83.8154C112.651 84.1912 114.625 85.198 117.041 86.084C119.444 86.9565 124.438 90.3258 128.129 93.5742C132.276 97.2118 136.128 102.259 138.195 106.742C141.028 112.917 141.538 115.964 141.498 126.77C141.471 136.796 140.867 140.81 138.679 145.561C137.135 148.877 133.538 153.979 130.665 156.878C127.792 159.791 121.819 163.858 117.39 165.925C112.96 167.992 105.712 170.394 101.282 171.28C96.5158 172.226 80.2258 172.812 19.8888 173.029C9.98447 173.064 1.89219 165.078 1.81919 155.173L1.5752 122.071C1.32016 87.2786 1.7096 68.0832 2.79688 61.667C3.74996 55.9891 6.40723 48.2845 9.50781 42.2041C12.3132 36.6603 16.958 29.4112 19.8037 26.0957C22.6361 22.7801 28.8516 17.4519 33.5898 14.2841C38.3416 11.1029 45.5363 7.27653 49.6035 5.75974C53.6708 4.25639 60.919 2.59181 65.7109 2.06833ZM61.0137 21.25C46.9865 20.9681 34.207 21.29 32.623 21.9746C31.0391 22.6592 28.7708 24.6197 27.5762 26.3379C25.8045 28.8883 25.4287 33.3856 25.4287 51.2646L25.4366 63.9212C25.4403 69.6744 28.0365 75.4607 33.3743 77.607C35.5696 78.4897 37.5064 78.9353 39.2012 79.1172C42.7044 79.4796 45.5771 80.3926 45.5771 81.1308C45.5771 81.8691 43.0129 82.8754 39.8721 83.372C36.4626 83.909 32.5424 85.748 30.1396 87.9629C27.5701 90.3106 26.0822 93.6345 26.0315 97.1147C25.4927 134.082 25.6063 146.165 25.9521 147.575C26.3146 149.052 28.1534 151.011 30.0459 151.937C32.4218 153.092 41.1069 153.616 57.9932 153.603C71.47 153.603 86.2623 152.998 90.8799 152.26C95.4973 151.535 101.538 149.804 104.303 148.435C107.068 147.052 110.867 144.179 112.732 142.059C114.612 139.924 117.229 135.454 118.571 132.139C120.41 127.602 120.868 123.763 120.411 116.702C120.049 111.038 118.733 105.171 117.108 101.936C115.618 98.9835 112.357 94.8359 109.86 92.7285C107.35 90.6076 103.202 88.0165 100.611 86.956C98.0203 85.909 90.0336 84.3116 82.8525 83.4258C75.6861 82.5266 70.2504 81.3593 70.7715 80.8222C71.3084 80.2853 76.8793 79.1982 83.1611 78.4062C89.4431 77.6143 96.6514 75.9358 99.1885 74.6875C101.712 73.4258 105.041 70.7014 106.571 68.6074C108.652 65.7617 109.458 62.2847 109.807 54.5127C110.075 48.8482 109.619 41.9488 108.8 39.1836C107.914 36.1634 105.256 32.4046 102.142 29.7871C99.2826 27.3845 94.6118 24.6064 91.7393 23.5996C88.303 22.4049 77.779 21.599 61.0137 21.25ZM61.0137 103.99C62.4908 104.004 69.4438 105.763 76.4502 107.924C83.4571 110.085 93.4308 113.038 98.5986 114.515C101.384 115.303 104.298 116.334 107.14 117.711C111.47 119.81 112.578 125.15 110.397 129.44C108.355 133.458 105.772 136.824 99.4831 141.648C96.6301 143.837 93.0931 144.912 89.4976 144.951L37.286 145.52C35.072 145.544 33.1387 144.027 32.6367 141.87C32.167 139.843 32.0199 135.427 32.3018 132.059C32.6776 127.629 34.3144 123.816 38.2607 118.179C42.5829 112.018 45.2141 109.749 51.0127 107.198C55.0396 105.426 59.5371 103.977 61.0137 103.99ZM72.4229 46.3115C74.2618 46.2846 78.7989 47.6937 82.4902 49.4521C86.1816 51.2105 91.3097 54.2709 93.9004 56.2441C96.491 58.2307 99.3502 61.0097 100.276 62.4326C101.753 64.7143 101.484 65.2653 97.9268 67.0371C95.7116 68.1512 88.9199 69.668 82.8262 70.4062C76.7321 71.1579 70.3959 72.661 68.7314 73.7617C67.067 74.8625 64.5038 77.8828 63.0273 80.4599C61.551 83.0503 59.4299 85.1577 58.3291 85.1582C57.215 85.1582 56.0338 84.0972 55.6982 82.8086C55.3492 81.52 53.6846 79.1173 52.0068 77.4931C50.2216 75.7616 45.8452 73.9223 41.5498 73.1035C37.4155 72.3249 33.4149 70.6741 32.4619 69.372C31.5359 68.0834 30.7709 65.3723 30.7842 63.3457C30.811 60.1377 31.3482 59.6543 34.8379 59.6543C37.0527 59.6543 42.9458 57.7609 47.9258 55.4521C52.9058 53.1299 59.7118 50.1506 63.0273 48.7949C66.3427 47.4527 70.5838 46.3384 72.4229 46.3115Z" fill="url(#paint0_linear_580_28355)"/>
    <path d="M65.7109 2.06833L65.8738 3.55947L65.878 3.559L65.7109 2.06833ZM82.4902 1.63962L82.3905 3.1363L82.395 3.13659L82.4902 1.63962ZM98.2617 4.06833L97.9023 5.52463L97.9066 5.52569L98.2617 4.06833ZM111.35 8.64645L112.02 7.30482L112.02 7.30481L111.35 8.64645ZM122.84 17.707L123.922 16.6684L123.921 16.6673L122.84 17.707ZM131.148 30.7939L129.722 31.2587L129.723 31.2594L131.148 30.7939ZM133.189 46.9023L131.69 46.8766L131.69 46.8789L133.189 46.9023ZM130.826 62.3388L132.234 62.8574L132.234 62.8574L130.826 62.3388ZM124.343 73.5869L123.184 72.6347L123.182 72.6373L124.343 73.5869ZM116.37 80.9697L117.128 82.2641L117.128 82.2641L116.37 80.9697ZM112.651 83.8154L111.152 83.7602L111.151 83.7878V83.8154H112.651ZM117.041 86.084L116.525 87.4923L116.529 87.4939L117.041 86.084ZM128.129 93.5742L127.138 94.7003L127.14 94.7019L128.129 93.5742ZM138.195 106.742L139.559 106.117L139.557 106.114L138.195 106.742ZM141.498 126.77L139.998 126.764L139.998 126.765L141.498 126.77ZM138.679 145.561L140.039 146.195L140.041 146.189L138.679 145.561ZM130.665 156.878L129.599 155.822L129.597 155.825L130.665 156.878ZM117.39 165.925L118.024 167.284L118.024 167.284L117.39 165.925ZM101.282 171.28L101.574 172.752L101.576 172.751L101.282 171.28ZM1.5752 122.071L0.0752337 122.082L0.0752342 122.082L1.5752 122.071ZM2.79688 61.667L4.2758 61.9176L4.27618 61.9153L2.79688 61.667ZM9.50781 42.2041L10.8441 42.8855L10.8462 42.8814L9.50781 42.2041ZM19.8037 26.0957L20.9419 27.0726L20.9442 27.07L19.8037 26.0957ZM33.5898 14.2841L34.4235 15.5311L34.4243 15.5306L33.5898 14.2841ZM49.6035 5.75974L49.0835 4.35276L49.0794 4.35429L49.6035 5.75974ZM61.0137 21.25L61.0449 19.7503L61.0438 19.7503L61.0137 21.25ZM32.623 21.9746L32.0279 20.5977L32.0279 20.5977L32.623 21.9746ZM27.5762 26.3379L26.3446 25.4815L26.3442 25.4821L27.5762 26.3379ZM25.4287 51.2646H23.9287V51.2656L25.4287 51.2646ZM39.2012 79.1172L39.0412 80.6086L39.0468 80.6092L39.2012 79.1172ZM45.5771 81.1308L47.0771 81.131V81.1308H45.5771ZM39.8721 83.372L40.1054 84.8538L40.1064 84.8536L39.8721 83.372ZM30.1396 87.9629L31.1514 89.0703L31.1563 89.0658L30.1396 87.9629ZM25.9521 147.575L24.4954 147.933L24.4954 147.933L25.9521 147.575ZM30.0459 151.937L29.3865 153.285L29.3904 153.287L30.0459 151.937ZM57.9932 153.603V152.103H57.992L57.9932 153.603ZM90.8799 152.26L90.6473 150.778L90.6431 150.779L90.8799 152.26ZM104.303 148.435L104.968 149.779L104.974 149.776L104.303 148.435ZM112.732 142.059L111.607 141.067L111.606 141.068L112.732 142.059ZM118.571 132.139L117.181 131.575L117.181 131.576L118.571 132.139ZM120.411 116.702L118.914 116.798L118.914 116.799L120.411 116.702ZM117.108 101.936L118.449 101.263L118.448 101.261L117.108 101.936ZM109.86 92.7285L108.892 93.8743L108.893 93.8747L109.86 92.7285ZM100.611 86.956L101.18 85.5678L101.173 85.5653L100.611 86.956ZM82.8525 83.4258L82.6658 84.9141L82.6689 84.9145L82.8525 83.4258ZM70.7715 80.8222L69.7108 79.7616L69.7028 79.7696L69.6949 79.7777L70.7715 80.8222ZM83.1611 78.4062L82.9735 76.918H82.9735L83.1611 78.4062ZM99.1885 74.6875L99.8507 76.0334L99.8593 76.0291L99.1885 74.6875ZM106.571 68.6074L105.36 67.7221L105.36 67.7223L106.571 68.6074ZM109.807 54.5127L108.308 54.4417L108.308 54.4454L109.807 54.5127ZM108.8 39.1836L107.36 39.6058L107.362 39.6094L108.8 39.1836ZM102.142 29.7871L103.107 28.6388L103.107 28.6387L102.142 29.7871ZM91.7393 23.5996L92.2354 22.184L92.2318 22.1828L91.7393 23.5996ZM61.0137 103.99L61.0275 102.49H61.0273L61.0137 103.99ZM76.4502 107.924L76.8923 106.49V106.49L76.4502 107.924ZM98.5986 114.515L98.1865 115.957L98.19 115.958L98.5986 114.515ZM110.397 129.44L111.735 130.12L111.735 130.12L110.397 129.44ZM32.6367 141.87L31.1754 142.209L31.1758 142.21L32.6367 141.87ZM32.3018 132.059L30.8071 131.932L30.807 131.934L32.3018 132.059ZM38.2607 118.179L37.0328 117.317L37.0319 117.318L38.2607 118.179ZM51.0127 107.198L51.6166 108.571L51.6168 108.571L51.0127 107.198ZM72.4229 46.3115L72.401 44.8116L72.4009 44.8117L72.4229 46.3115ZM82.4902 49.4521L83.1353 48.0979L83.1353 48.0979L82.4902 49.4521ZM93.9004 56.2441L94.8132 55.0538L94.8093 55.0508L93.9004 56.2441ZM100.276 62.4326L101.536 61.6177L101.533 61.6143L100.276 62.4326ZM97.9268 67.0371L97.258 65.6944L97.2528 65.697L97.9268 67.0371ZM82.8262 70.4062L82.6458 68.9171L82.6425 68.9175L82.8262 70.4062ZM68.7314 73.7617L67.9041 72.5105L67.904 72.5106L68.7314 73.7617ZM63.0273 80.4599L61.7258 79.7142L61.7241 79.7172L63.0273 80.4599ZM58.3291 85.1582V86.6582H58.3297L58.3291 85.1582ZM55.6982 82.8086L57.1498 82.4305L57.148 82.4235L57.1461 82.4164L55.6982 82.8086ZM52.0068 77.4931L50.9625 78.5699L50.9635 78.5709L52.0068 77.4931ZM41.5498 73.1035L41.8307 71.63L41.8274 71.6294L41.5498 73.1035ZM32.4619 69.372L31.2437 70.2474L31.2515 70.258L32.4619 69.372ZM30.7842 63.3457L29.2842 63.3331L29.2842 63.3358L30.7842 63.3457ZM34.8379 59.6543V58.1543L34.8379 58.1543L34.8379 59.6543ZM47.9258 55.4521L48.5567 56.813L48.5597 56.8116L47.9258 55.4521ZM63.0273 48.7949L62.4645 47.4045L62.4596 47.4065L63.0273 48.7949ZM37.286 145.52L37.2696 144.02L37.286 145.52ZM99.4831 141.648L98.5702 140.458L99.4831 141.648ZM89.4976 144.951L89.4812 143.451L89.4976 144.951ZM19.8888 173.029L19.8834 171.529L19.8888 173.029ZM25.4366 63.9212L23.9366 63.9222L25.4366 63.9212ZM107.14 117.711L107.794 116.361L107.14 117.711ZM65.7109 2.06833L65.878 3.559C70.5871 3.03137 78.0553 2.84729 82.3905 3.1363L82.4902 1.63962L82.59 0.142938C78.066 -0.158666 70.4189 0.0314442 65.5439 0.577655L65.7109 2.06833ZM82.4902 1.63962L82.395 3.13659C86.7348 3.4128 93.7468 4.49893 97.9023 5.52463L98.2617 4.06833L98.6212 2.61203C94.2935 1.54384 87.1047 0.430275 82.5855 0.142645L82.4902 1.63962ZM98.2617 4.06833L97.9066 5.52569C102.069 6.54002 107.851 8.57407 110.679 9.9881L111.35 8.64645L112.02 7.30481C108.942 5.76575 102.938 3.6638 98.6168 2.61097L98.2617 4.06833ZM111.35 8.64645L110.679 9.98808C113.424 11.3607 118.456 15.3127 121.759 18.7467L122.84 17.707L123.921 16.6673C120.485 13.0946 115.182 8.88549 112.02 7.30482L111.35 8.64645ZM122.84 17.707L121.758 18.7456C125.465 22.6097 128.439 27.3198 129.722 31.2587L131.148 30.7939L132.575 30.3291C131.12 25.8655 127.865 20.7774 123.922 16.6684L122.84 17.707ZM131.148 30.7939L129.723 31.2594C130.933 34.966 131.782 41.5172 131.69 46.8766L133.189 46.9023L134.689 46.928C134.785 41.3341 133.915 34.4341 132.574 30.3284L131.148 30.7939ZM133.189 46.9023L131.69 46.8789C131.611 51.95 130.561 58.7195 129.419 61.8203L130.826 62.3388L132.234 62.8574C133.534 59.3273 134.607 52.1904 134.689 46.9257L133.189 46.9023ZM130.826 62.3388L129.419 61.8203C128.256 64.9746 125.429 69.9022 123.184 72.6347L124.343 73.5869L125.502 74.5391C127.955 71.5536 130.953 66.3341 132.234 62.8574L130.826 62.3388ZM124.343 73.5869L123.182 72.6373C120.889 75.4404 117.437 78.6065 115.612 79.6753L116.37 80.9697L117.128 82.2641C119.384 80.9433 123.098 77.4782 125.504 74.5364L124.343 73.5869ZM116.37 80.9697L115.612 79.6753C114.551 80.2966 113.571 80.9479 112.839 81.5084C112.477 81.7853 112.145 82.0637 111.887 82.3227C111.761 82.45 111.62 82.6049 111.499 82.7785C111.418 82.8964 111.171 83.2593 111.152 83.7602L112.651 83.8154L114.15 83.8706C114.142 84.1027 114.077 84.2699 114.044 84.3435C114.008 84.4248 113.974 84.4752 113.963 84.4898C113.945 84.517 113.952 84.5013 114.015 84.4374C114.138 84.3144 114.351 84.1288 114.663 83.8906C115.276 83.4208 116.149 82.8373 117.128 82.2641L116.37 80.9697ZM112.651 83.8154H111.151C111.151 84.4538 111.524 84.8743 111.626 84.9877C111.785 85.1652 111.967 85.31 112.119 85.4194C112.43 85.6445 112.828 85.873 113.254 86.0921C114.118 86.5372 115.276 87.0343 116.525 87.4923L117.041 86.084L117.557 84.6756C116.39 84.2477 115.353 83.7984 114.627 83.4247C114.257 83.2344 114.011 83.0854 113.876 82.9883C113.805 82.9366 113.814 82.9342 113.856 82.9812C113.878 83.006 113.938 83.0753 113.998 83.1878C114.055 83.2957 114.151 83.5151 114.151 83.8154H112.651ZM117.041 86.084L116.529 87.4939C117.546 87.8632 119.267 88.8337 121.262 90.1812C123.225 91.5068 125.345 93.1226 127.138 94.7003L128.129 93.5742L129.12 92.4481C127.221 90.7774 124.999 89.0844 122.941 87.695C120.916 86.3277 118.939 85.1773 117.553 84.674L117.041 86.084ZM128.129 93.5742L127.14 94.7019C131.147 98.2162 134.863 103.098 136.833 107.37L138.195 106.742L139.557 106.114C137.393 101.42 133.406 96.2073 129.118 92.4465L128.129 93.5742ZM138.195 106.742L136.832 107.368C138.218 110.39 138.997 112.561 139.444 115.264C139.898 118.011 140.018 121.361 139.998 126.764L141.498 126.77L142.998 126.775C143.018 121.372 142.903 117.796 142.404 114.775C141.897 111.709 141.004 109.269 139.559 106.117L138.195 106.742ZM141.498 126.77L139.998 126.765C139.971 136.738 139.365 140.485 137.316 144.934L138.679 145.561L140.041 146.189C142.368 141.135 142.971 136.855 142.998 126.774L141.498 126.77ZM138.679 145.561L137.319 144.928C135.854 148.074 132.361 153.035 129.599 155.822L130.665 156.878L131.731 157.934C134.714 154.922 138.416 149.68 140.039 146.195L138.679 145.561ZM130.665 156.878L129.597 155.825C126.872 158.588 121.055 162.559 116.755 164.566L117.39 165.925L118.024 167.284C122.583 165.156 128.713 160.994 131.733 157.931L130.665 156.878ZM117.39 165.925L116.755 164.565C112.427 166.585 105.293 168.948 100.988 169.809L101.282 171.28L101.576 172.751C106.131 171.84 113.493 169.399 118.024 167.284L117.39 165.925ZM101.282 171.28L100.99 169.809C98.7605 170.251 93.6394 170.636 81.3886 170.928C69.1946 171.22 50.0508 171.42 19.8834 171.529L19.8888 173.029L19.8942 174.529C50.0638 174.42 69.2335 174.22 81.4603 173.928C93.6304 173.637 99.0375 173.255 101.574 172.752L101.282 171.28ZM1.81919 155.173L3.31915 155.162L3.07516 122.06L1.5752 122.071L0.0752342 122.082L0.319229 155.184L1.81919 155.173ZM1.5752 122.071L3.07516 122.06C2.94768 104.669 2.98139 91.1879 3.18236 81.2583C3.38414 71.2895 3.75379 64.9981 4.27579 61.9176L2.79688 61.667L1.31796 61.4164C0.752694 64.7521 0.383984 71.2665 0.182975 81.1976C-0.0188287 91.168 -0.0523211 104.681 0.0752337 122.082L1.5752 122.071ZM2.79688 61.667L4.27618 61.9153C5.19974 56.4133 7.80041 48.8544 10.8441 42.8855L9.50781 42.2041L8.17152 41.5227C5.01405 47.7147 2.30018 55.5649 1.31757 61.4186L2.79688 61.667ZM9.50781 42.2041L10.8462 42.8814C13.6167 37.4066 18.1986 30.2688 20.9419 27.0726L19.8037 26.0957L18.6655 25.1187C15.7174 28.5535 11.0098 35.914 8.16943 41.5268L9.50781 42.2041ZM19.8037 26.0957L20.9442 27.07C23.6651 23.8849 29.7672 18.6441 34.4235 15.5311L33.5898 14.2841L32.7562 13.0372C27.9359 16.2598 21.607 21.6754 18.6632 25.1214L19.8037 26.0957ZM33.5898 14.2841L34.4243 15.5306C39.107 12.3956 46.1972 8.63099 50.1277 7.16518L49.6035 5.75974L49.0794 4.35429C44.8755 5.92208 37.5762 9.81018 32.7554 13.0377L33.5898 14.2841ZM49.6035 5.75974L50.1236 7.1667C54.0646 5.71001 61.1917 4.07096 65.8738 3.55946L65.7109 2.06833L65.548 0.577198C60.6464 1.11267 53.277 2.80276 49.0835 4.35277L49.6035 5.75974ZM61.0137 21.25L61.0438 19.7503C54.0122 19.609 47.2874 19.6188 42.114 19.7503C39.5293 19.816 37.3179 19.9124 35.6434 20.037C34.8077 20.0992 34.0883 20.1697 33.515 20.2497C32.999 20.3218 32.436 20.4213 32.0279 20.5977L32.623 21.9746L33.2181 23.3515C33.206 23.3567 33.3889 23.2964 33.9298 23.2209C34.4133 23.1534 35.0617 23.0886 35.8661 23.0288C37.4716 22.9093 39.6287 22.8145 42.1903 22.7494C47.3095 22.6192 53.9879 22.6091 60.9835 22.7497L61.0137 21.25ZM32.623 21.9746L32.0279 20.5977C31.0396 21.0249 29.9448 21.7935 28.9726 22.6339C27.9896 23.4837 27.0309 24.4945 26.3446 25.4815L27.5762 26.3379L28.8077 27.1942C29.3161 26.4631 30.0888 25.6346 30.9346 24.9034C31.7912 24.1629 32.6225 23.6089 33.2182 23.3515L32.623 21.9746ZM27.5762 26.3379L26.3442 25.4821C25.2251 27.0931 24.6641 29.1862 24.3435 32.9249C24.0217 36.6777 23.9287 42.3366 23.9287 51.2646H25.4287H26.9287C26.9287 42.3136 27.0236 36.7843 27.3326 33.1812C27.6428 29.5638 28.1555 28.1331 28.8081 27.1936L27.5762 26.3379ZM25.4287 51.2646L23.9287 51.2656L23.9366 63.9222L25.4366 63.9212L26.9366 63.9203L26.9287 51.2637L25.4287 51.2646ZM33.3743 77.607L32.8147 78.9987C35.1339 79.9312 37.2049 80.4116 39.0412 80.6086L39.2012 79.1172L39.3612 77.6257C37.8079 77.4591 36.0054 77.0482 33.9339 76.2152L33.3743 77.607ZM39.2012 79.1172L39.0468 80.6092C40.7244 80.7828 42.2143 81.0853 43.2503 81.4132C43.7784 81.5803 44.1207 81.7329 44.2999 81.8408C44.392 81.8963 44.3779 81.9026 44.3244 81.8423C44.2761 81.7877 44.0771 81.5422 44.0771 81.1308H45.5771H47.0771C47.0771 80.5349 46.7884 80.0993 46.5693 79.8521C46.345 79.5992 46.0791 79.4102 45.8471 79.2706C45.3783 78.9884 44.7835 78.7517 44.1554 78.553C42.8793 78.1491 41.1812 77.814 39.3555 77.6251L39.2012 79.1172ZM45.5771 81.1308L44.0771 81.1306C44.0772 80.7791 44.2284 80.5607 44.2718 80.5042C44.318 80.4442 44.3328 80.4471 44.2579 80.5003C44.1096 80.6058 43.8172 80.7639 43.3541 80.9458C42.4452 81.3028 41.129 81.6546 39.6378 81.8904L39.8721 83.372L40.1064 84.8536C41.756 84.5928 43.2923 84.1932 44.4507 83.7382C45.0212 83.5142 45.5662 83.2512 45.9968 82.9449C46.2114 82.7923 46.4511 82.5915 46.6498 82.3333C46.8458 82.0785 47.0771 81.6671 47.0771 81.131L45.5771 81.1308ZM39.8721 83.372L39.6387 81.8903C35.9581 82.4699 31.7592 84.4299 29.123 86.8599L30.1396 87.9629L31.1563 89.0658C33.3255 87.0662 36.9671 85.348 40.1054 84.8538L39.8721 83.372ZM26.0315 97.1147L24.5317 97.0928C24.2623 115.579 24.1558 127.851 24.1601 135.68C24.1622 139.594 24.192 142.406 24.2434 144.335C24.2691 145.298 24.3004 146.051 24.3374 146.616C24.3716 147.141 24.4162 147.61 24.4954 147.933L25.9521 147.575L27.4089 147.218C27.4105 147.224 27.3982 147.17 27.3807 147.014C27.3645 146.871 27.3476 146.676 27.331 146.421C27.2976 145.911 27.2675 145.2 27.2423 144.255C27.192 142.365 27.1622 139.583 27.1601 135.678C27.1558 127.872 27.262 115.618 27.5314 97.1366L26.0315 97.1147ZM25.9521 147.575L24.4954 147.933C24.7643 149.028 25.5082 150.112 26.3314 150.989C27.1786 151.892 28.2544 152.731 29.3865 153.285L30.0459 151.937L30.7053 150.59C29.9448 150.218 29.155 149.614 28.519 148.936C27.8591 148.233 27.5024 147.598 27.4089 147.218L25.9521 147.575ZM30.0459 151.937L29.3904 153.287C30.2031 153.682 31.385 153.956 32.8184 154.17C34.2923 154.391 36.1774 154.567 38.4887 154.705C43.1135 154.982 49.5422 155.109 57.9944 155.103L57.9932 153.603L57.992 152.103C49.5578 152.109 43.2009 151.981 38.6676 151.711C36.3998 151.575 34.6127 151.405 33.2623 151.203C31.8714 150.995 31.0767 150.771 30.7014 150.588L30.0459 151.937ZM57.9932 153.603V155.103C71.4535 155.103 86.3631 154.501 91.1167 153.741L90.8799 152.26L90.6431 150.779C86.1616 151.495 71.4865 152.103 57.9932 152.103V153.603ZM90.8799 152.26L91.1125 153.742C95.8154 153.003 102.018 151.24 104.968 149.779L104.303 148.435L103.637 147.09C101.057 148.368 95.1792 150.066 90.6473 150.778L90.8799 152.26ZM104.303 148.435L104.974 149.776C107.895 148.315 111.853 145.329 113.859 143.049L112.732 142.059L111.606 141.068C109.88 143.03 106.241 145.789 103.632 147.093L104.303 148.435ZM112.732 142.059L113.858 143.05C115.877 140.757 118.574 136.13 119.962 132.702L118.571 132.139L117.181 131.576C115.884 134.779 113.347 139.091 111.607 141.067L112.732 142.059ZM118.571 132.139L119.961 132.702C121.914 127.884 122.373 123.798 121.908 116.605L120.411 116.702L118.914 116.799C119.362 123.727 118.906 127.319 117.181 131.575L118.571 132.139ZM120.411 116.702L121.908 116.606C121.539 110.841 120.2 104.75 118.449 101.263L117.108 101.936L115.768 102.61C117.266 105.592 118.558 111.234 118.914 116.798L120.411 116.702ZM117.108 101.936L118.448 101.261C116.868 98.1308 113.482 93.8223 110.828 91.5823L109.86 92.7285L108.893 93.8747C111.232 95.8496 114.369 99.8361 115.769 102.612L117.108 101.936ZM109.86 92.7285L110.828 91.5827C108.22 89.3784 103.939 86.6973 101.18 85.5678L100.611 86.956L100.043 88.3442C102.465 89.3357 106.481 91.8369 108.892 93.8743L109.86 92.7285ZM100.611 86.956L101.173 85.5653C99.7303 84.9821 96.9555 84.2985 93.7462 83.6594C90.4928 83.0114 86.6644 82.3846 83.0362 81.937L82.8525 83.4258L82.6689 84.9145C86.2217 85.3528 89.9772 85.9676 93.1602 86.6016C96.3873 87.2443 98.9014 87.8829 100.049 88.3468L100.611 86.956ZM82.8525 83.4258L83.0393 81.9374C79.4821 81.4911 76.3777 80.9809 74.2449 80.5218C73.1654 80.2894 72.3923 80.0821 71.9433 79.9192C71.6874 79.8263 71.6721 79.7949 71.7505 79.854C71.7695 79.8684 72.03 80.0547 72.1636 80.4497C72.2419 80.6815 72.268 80.9648 72.1897 81.2596C72.1144 81.5428 71.9678 81.7433 71.848 81.8668L70.7715 80.8222L69.6949 79.7777C69.5426 79.9348 69.3751 80.17 69.2902 80.4893C69.2024 80.82 69.2303 81.1404 69.3216 81.4105C69.481 81.882 69.8118 82.1494 69.9436 82.2489C70.2475 82.4781 70.6273 82.633 70.9198 82.7392C71.5674 82.9742 72.5033 83.2156 73.6135 83.4546C75.8599 83.9382 79.0566 84.4612 82.6658 84.9141L82.8525 83.4258ZM70.7715 80.8222L71.8321 81.8829C71.7613 81.9538 71.7012 81.9964 71.6742 82.0146C71.6585 82.0251 71.6465 82.0324 71.6391 82.0368C71.6316 82.0412 71.6272 82.0435 71.6265 82.0439C71.6256 82.0443 71.6339 82.04 71.654 82.0312C71.6737 82.0225 71.7008 82.0113 71.7365 81.9977C71.8869 81.9401 72.1199 81.8654 72.4452 81.7767C73.0905 81.6007 73.9932 81.3978 75.0991 81.1821C77.3046 80.7519 80.2338 80.2871 83.3488 79.8944L83.1611 78.4062L82.9735 76.918C79.8066 77.3173 76.8094 77.792 74.5248 78.2376C73.3856 78.4598 72.4023 78.6789 71.6558 78.8824C71.2851 78.9835 70.9458 79.0881 70.6642 79.1958C70.5237 79.2496 70.3751 79.3127 70.2337 79.3868C70.1121 79.4505 69.9029 79.5695 69.7108 79.7616L70.7715 80.8222ZM83.1611 78.4062L83.3487 79.8944C86.5438 79.4917 89.967 78.8647 92.9185 78.1791C95.8254 77.5039 98.4125 76.7411 99.8507 76.0334L99.1885 74.6875L98.5262 73.3416C97.4274 73.8822 95.1418 74.5828 92.2398 75.2569C89.3823 75.9206 86.0605 76.5288 82.9735 76.918L83.1611 78.4062ZM99.1885 74.6875L99.8593 76.0291C102.571 74.6734 106.095 71.8016 107.782 69.4925L106.571 68.6074L105.36 67.7223C103.987 69.6011 100.853 72.1781 98.5177 73.3458L99.1885 74.6875ZM106.571 68.6074L107.782 69.4927C110.149 66.255 110.955 62.3703 111.305 54.58L109.807 54.5127L108.308 54.4454C107.96 62.199 107.154 65.2683 105.36 67.7221L106.571 68.6074ZM109.807 54.5127L111.305 54.5837C111.442 51.6894 111.394 48.4916 111.208 45.6624C111.024 42.87 110.698 40.3113 110.238 38.7577L108.8 39.1836L107.362 39.6094C107.72 40.821 108.032 43.0947 108.214 45.8594C108.394 48.5873 108.44 51.6714 108.308 54.4417L109.807 54.5127ZM108.8 39.1836L110.239 38.7614C109.249 35.387 106.383 31.3927 103.107 28.6388L102.142 29.7871L101.176 30.9353C104.128 33.4165 106.578 36.9397 107.36 39.6058L108.8 39.1836ZM102.142 29.7871L103.107 28.6387C100.139 26.145 95.313 23.2627 92.2354 22.184L91.7393 23.5996L91.2431 25.0151C93.9106 25.9501 98.426 28.624 101.177 30.9354L102.142 29.7871ZM91.7393 23.5996L92.2318 22.1828C90.3011 21.5115 86.618 21.0044 81.4893 20.612C76.294 20.2146 69.4409 19.9251 61.0449 19.7503L61.0137 21.25L60.9825 22.7496C69.3517 22.9239 76.1433 23.2118 81.2604 23.6033C86.444 23.9998 89.7412 24.493 91.2467 25.0164L91.7393 23.5996ZM61.0137 103.99L60.9998 105.49C61.1994 105.492 61.7699 105.571 62.7595 105.776C63.6988 105.97 64.9019 106.253 66.2888 106.605C69.0608 107.31 72.5264 108.283 76.0081 109.357L76.4502 107.924L76.8923 106.49C73.3675 105.403 69.8534 104.416 67.0281 103.698C65.6164 103.339 64.3664 103.045 63.3676 102.838C62.419 102.641 61.5665 102.495 61.0275 102.49L61.0137 103.99ZM76.4502 107.924L76.0081 109.357C83.0248 111.521 93.0085 114.477 98.1865 115.957L98.5986 114.515L99.0107 113.072C93.8531 111.599 83.8893 108.649 76.8923 106.49L76.4502 107.924ZM98.5986 114.515L98.19 115.958C100.912 116.729 103.74 117.73 106.485 119.061L107.14 117.711L107.794 116.361C104.856 114.937 101.856 113.878 99.0073 113.071L98.5986 114.515ZM110.397 129.44L109.06 128.761C107.138 132.542 104.716 135.743 98.5702 140.458L99.4831 141.648L100.396 142.838C106.827 137.905 109.573 134.374 111.735 130.12L110.397 129.44ZM89.4976 144.951L89.4812 143.451L37.2696 144.02L37.286 145.52L37.3023 147.02L89.5139 146.451L89.4976 144.951ZM32.6367 141.87L34.098 141.531C33.6788 139.723 33.5205 135.484 33.7965 132.184L32.3018 132.059L30.807 131.934C30.5194 135.371 30.6552 139.964 31.1754 142.209L32.6367 141.87ZM32.3018 132.059L33.7964 132.185C34.1408 128.126 35.619 124.568 39.4896 119.039L38.2607 118.179L37.0319 117.318C33.0099 123.064 31.2144 127.132 30.8071 131.932L32.3018 132.059ZM38.2607 118.179L39.4887 119.04C41.6238 115.997 43.2785 114.007 45.062 112.471C46.8323 110.946 48.7946 109.812 51.6166 108.571L51.0127 107.198L50.4088 105.825C47.4321 107.134 45.1796 108.41 43.1041 110.198C41.0419 111.974 39.2199 114.2 37.0328 117.317L38.2607 118.179ZM51.0127 107.198L51.6168 108.571C53.5848 107.705 55.6674 106.919 57.4284 106.353C58.3093 106.07 59.0948 105.847 59.7356 105.697C60.409 105.54 60.8204 105.489 61 105.49L61.0137 103.99L61.0273 102.49C60.4687 102.485 59.7642 102.61 59.0532 102.776C58.3096 102.95 57.4422 103.197 56.5108 103.497C54.6471 104.095 52.4675 104.919 50.4086 105.825L51.0127 107.198ZM72.4229 46.3115L72.4447 47.8113C73.1028 47.8017 74.4949 48.0772 76.3158 48.6445C78.077 49.1931 80.0673 49.9594 81.8452 50.8063L82.4902 49.4521L83.1353 48.0979C81.2218 47.1864 79.0979 46.369 77.208 45.7802C75.3778 45.2101 73.5818 44.7944 72.401 44.8116L72.4229 46.3115ZM82.4902 49.4521L81.8451 50.8063C85.4632 52.5298 90.4989 55.5389 92.9915 57.4374L93.9004 56.2441L94.8093 55.0508C92.1206 53.0029 86.9 49.8913 83.1353 48.0979L82.4902 49.4521ZM93.9004 56.2441L92.9876 57.4344C94.232 58.3887 95.5506 59.5412 96.6676 60.6259C97.81 61.7352 98.6532 62.6885 99.0192 63.2509L100.276 62.4326L101.533 61.6143C100.973 60.7538 99.9239 59.6062 98.7575 58.4736C97.5658 57.3164 96.1594 56.0861 94.8132 55.0538L93.9004 56.2441ZM100.276 62.4326L99.017 63.2474C99.3806 63.8094 99.5414 64.1261 99.6024 64.3186C99.6422 64.4441 99.5947 64.3591 99.6517 64.2468C99.6639 64.2227 99.6021 64.3536 99.1674 64.6447C98.7514 64.9234 98.1426 65.2538 97.258 65.6944L97.9268 67.0371L98.5956 68.3797C99.4894 67.9345 100.248 67.5316 100.837 67.1373C101.407 66.7555 101.987 66.2738 102.326 65.6054C102.711 64.8486 102.676 64.0873 102.462 63.4124C102.27 62.8044 101.91 62.1967 101.536 61.6177L100.276 62.4326ZM97.9268 67.0371L97.2528 65.697C96.331 66.1606 94.2486 66.7861 91.5042 67.3986C88.8148 67.9988 85.6422 68.5541 82.6458 68.9171L82.8262 70.4062L83.0066 71.8953C86.1038 71.5201 89.374 70.9478 92.1577 70.3266C94.8863 69.7176 97.3073 69.0276 98.6007 68.3771L97.9268 67.0371ZM82.8262 70.4062L82.6425 68.9175C79.5432 69.2998 76.381 69.873 73.7707 70.4938C72.4662 70.804 71.2827 71.13 70.3051 71.4556C69.3635 71.7691 68.4952 72.1196 67.9041 72.5105L68.7314 73.7617L69.5588 75.0129C69.7999 74.8535 70.3478 74.6033 71.2529 74.3019C72.1218 74.0126 73.2154 73.7095 74.4647 73.4124C76.9621 72.8185 80.015 72.2643 83.0098 71.8949L82.8262 70.4062ZM68.7314 73.7617L67.904 72.5106C66.8955 73.1775 65.7304 74.3344 64.6664 75.5853C63.5843 76.8573 62.5178 78.3319 61.7258 79.7143L63.0273 80.4599L64.3289 81.2056C65.0134 80.0109 65.9667 78.6867 66.9514 77.5291C67.9542 76.3503 68.9029 75.4467 69.5589 75.0128L68.7314 73.7617ZM63.0273 80.4599L61.7241 79.7172C61.0462 80.9066 60.2265 81.9713 59.4778 82.7186C59.1021 83.0935 58.7738 83.3589 58.5186 83.5202C58.2241 83.7063 58.1786 83.6582 58.3285 83.6582L58.3291 85.1582L58.3297 86.6582C59.03 86.6579 59.6624 86.3462 60.1214 86.0561C60.6196 85.7412 61.1202 85.3178 61.597 84.842C62.5531 83.8878 63.5321 82.6037 64.3305 81.2027L63.0273 80.4599ZM58.3291 85.1582V83.6582C58.2382 83.6582 58.0055 83.6025 57.7219 83.3487C57.4487 83.1043 57.2378 82.7683 57.1498 82.4305L55.6982 82.8086L54.2467 83.1866C54.4943 84.1375 55.0417 84.9762 55.7215 85.5845C56.3909 86.1834 57.3059 86.6582 58.3291 86.6582V85.1582ZM55.6982 82.8086L57.1461 82.4164C56.9017 81.5144 56.2748 80.4182 55.5832 79.4215C54.8653 78.387 53.9677 77.3036 53.0501 76.4154L52.0068 77.4931L50.9635 78.5709C51.7237 79.3068 52.4973 80.2368 53.1185 81.1319C53.7658 82.0647 54.1457 82.8141 54.2504 83.2008L55.6982 82.8086ZM52.0068 77.4931L53.0512 76.4164C51.9591 75.3572 50.2161 74.3775 48.3004 73.573C46.3501 72.754 44.0817 72.0591 41.8307 71.63L41.5498 73.1035L41.2689 74.577C43.3133 74.9667 45.3808 75.6008 47.1389 76.339C48.9315 77.0918 50.2693 77.8975 50.9625 78.5699L52.0068 77.4931ZM41.5498 73.1035L41.8274 71.6294C39.8543 71.2578 37.9193 70.6784 36.3834 70.0468C35.6149 69.7308 34.9716 69.412 34.4839 69.1144C33.9662 68.7985 33.7367 68.5741 33.6723 68.4861L32.4619 69.372L31.2515 70.258C31.6636 70.821 32.2916 71.2912 32.9213 71.6754C33.5809 72.0778 34.3748 72.4646 35.2424 72.8214C36.9786 73.5353 39.111 74.1706 41.2722 74.5776L41.5498 73.1035ZM32.4619 69.372L33.68 68.4967C33.3617 68.0537 32.9979 67.242 32.7154 66.2317C32.4381 65.24 32.2786 64.1975 32.2841 63.3555L30.7842 63.3457L29.2842 63.3358C29.2764 64.5205 29.4928 65.8469 29.8262 67.0395C30.1544 68.2135 30.6361 69.4017 31.2438 70.2474L32.4619 69.372ZM30.7842 63.3457L32.2841 63.3582C32.2907 62.5725 32.33 62.0718 32.4035 61.7363C32.438 61.5786 32.4731 61.4918 32.4953 61.4483C32.5059 61.4275 32.5133 61.4169 32.5165 61.4127C32.5193 61.4089 32.5208 61.4075 32.5217 61.4067C32.5226 61.4058 32.5274 61.4016 32.5392 61.3943C32.5513 61.3868 32.573 61.3747 32.6081 61.36C32.6811 61.3295 32.8022 61.2914 32.9964 61.2572C33.4011 61.1859 33.9784 61.1543 34.8379 61.1543L34.8379 59.6543L34.8379 58.1543C33.9526 58.1543 33.1541 58.1831 32.4757 58.3027C31.7899 58.4236 31.0825 58.6605 30.5033 59.1872C29.9102 59.7266 29.6221 60.413 29.4729 61.0948C29.329 61.7521 29.2911 62.5148 29.2842 63.3331L30.7842 63.3457ZM34.8379 59.6543V61.1543C36.2083 61.1543 38.4411 60.6058 40.8035 59.8471C43.2339 59.0667 46.0098 57.9938 48.5567 56.813L47.9258 55.4521L47.2949 54.0913C44.8618 55.2193 42.2011 56.2474 39.8863 56.9908C37.5034 57.756 35.6823 58.1543 34.8379 58.1543V59.6543ZM47.9258 55.4521L48.5597 56.8116C53.5219 54.4977 60.3057 51.5284 63.5951 50.1833L63.0273 48.7949L62.4596 47.4065C59.118 48.7729 52.2896 51.7622 47.2919 54.0927L47.9258 55.4521ZM63.0273 48.7949L63.5902 50.1853C65.1829 49.5405 67.0111 48.9457 68.6614 48.5103C70.3499 48.0649 71.7201 47.8219 72.4448 47.8113L72.4229 46.3115L72.4009 44.8117C71.2866 44.828 69.6167 45.1556 67.8961 45.6096C66.1372 46.0736 64.1872 46.7071 62.4645 47.4045L63.0273 48.7949ZM37.286 145.52L37.2696 144.02C35.7591 144.037 34.4402 143.001 34.0977 141.53L32.6367 141.87L31.1758 142.21C31.8373 145.052 34.3849 147.052 37.3023 147.02L37.286 145.52ZM99.4831 141.648L98.5702 140.458C96.0064 142.425 92.7946 143.415 89.4812 143.451L89.4976 144.951L89.5139 146.451C93.3915 146.408 97.2538 145.249 100.396 142.838L99.4831 141.648ZM30.1396 87.9629L29.1279 86.8555C26.2514 89.4835 24.5884 93.2009 24.5317 97.0928L26.0315 97.1147L27.5314 97.1366C27.5761 94.0681 28.8887 91.1376 31.1514 89.0703L30.1396 87.9629ZM19.8888 173.029L19.8834 171.529C10.8034 171.561 3.38605 164.238 3.31915 155.162L1.81919 155.173L0.319229 155.184C0.398336 165.917 9.16556 174.567 19.8942 174.529L19.8888 173.029ZM25.4366 63.9212L23.9366 63.9222C23.9405 70.0323 26.7046 76.5418 32.8147 78.9987L33.3743 77.607L33.9339 76.2152C29.3683 74.3795 26.94 69.3165 26.9366 63.9203L25.4366 63.9212ZM107.14 117.711L106.485 119.061C109.877 120.704 110.96 125.023 109.06 128.761L110.397 129.44L111.735 130.12C114.196 125.277 113.064 118.915 107.794 116.361L107.14 117.711Z" fill="url(#paint1_linear_580_28355)"/>
    <defs>
        <linearGradient id="paint0_linear_580_28355" x1="3.11475" y1="20.2849" x2="150.823" y2="140.845" gradientUnits="userSpaceOnUse">
            <stop stop-color="white"/>
            <stop offset="1" stop-color="white" stop-opacity="0.6"/>
        </linearGradient>
        <linearGradient id="paint1_linear_580_28355" x1="3.11488" y1="20.2843" x2="150.83" y2="140.856" gradientUnits="userSpaceOnUse">
            <stop stop-color="white" stop-opacity="0.6"/>
            <stop offset="0.4927" stop-color="white" stop-opacity="0"/>
            <stop offset="0.9971" stop-color="white" stop-opacity="0.3"/>
        </linearGradient>
    </defs>
</svg>
