<svg width="311" height="56" viewBox="0 0 311 56" fill="none" xmlns="http://www.w3.org/2000/svg">
    <path
        d="M21.936 1.27209C23.22 1.02919 25.3052 0.95152 28.6099 1.02893C31.4927 1.09567 34.1089 1.29918 35.1499 1.53674C36.1028 1.75565 37.6668 2.21394 38.6196 2.55823C39.5723 2.90249 40.9548 3.53251 41.689 3.95959C42.423 4.38664 43.6966 5.40649 44.5161 6.22327C45.3382 7.04007 46.2884 8.25241 46.6274 8.91174C46.9664 9.57374 47.4043 10.7138 47.5991 11.4479C47.7966 12.182 47.9543 13.7433 47.9517 14.9176C47.9517 16.0921 47.8233 17.5952 47.6685 18.2545C47.5136 18.9139 47.0684 20.1152 46.6733 20.9186C46.281 21.722 45.2985 23.0427 44.4897 23.8541C43.6809 24.6656 42.4474 25.63 41.7534 25.9957C41.0568 26.3641 40.4878 26.7535 40.4878 26.8629C40.4878 26.9723 40.8192 27.1352 41.2222 27.2233C41.6252 27.3087 42.7304 27.7598 43.6753 28.2242C44.6202 28.686 46.0483 29.666 46.8491 30.4C47.6498 31.134 48.6696 32.2758 49.1128 32.9352C49.5586 33.5945 50.1595 34.7963 50.4478 35.6051C50.8481 36.7261 50.9761 37.7997 50.9868 40.1432C51.0002 42.6734 50.9013 43.4929 50.4155 44.8141C50.0899 45.695 49.3775 47.062 48.8276 47.8522C48.2777 48.6423 47.1079 49.8301 46.2271 50.4948C45.3461 51.1567 43.9047 52.0324 43.0239 52.4381C42.143 52.8412 40.461 53.4175 39.2866 53.7164C38.1121 54.018 36.1314 54.3888 34.8823 54.5436C33.598 54.7024 27.0574 54.8113 5.0091 54.8228C2.79293 54.824 0.990039 53.022 1.00001 50.8059L1.05908 37.6735C1.12848 21.962 1.1773 20.376 1.62842 18.7877C1.89804 17.8322 2.44216 16.3325 2.83447 15.4518C3.22685 14.5709 4.07568 13.0705 4.71631 12.1149C5.35962 11.1592 6.67358 9.58924 7.63721 8.62561C8.6008 7.66209 10.1109 6.38613 10.9917 5.79358C11.8726 5.19832 13.4347 4.2934 14.4624 3.78088C15.4901 3.26572 17.1721 2.57227 18.1997 2.23596C19.2273 1.89968 20.9084 1.4643 21.936 1.27209ZM264.418 3.09957C266.585 3.13851 268.328 4.89728 268.346 7.06524L268.455 19.9869C268.583 35.29 268.638 36.9374 269.082 38.2721C269.349 39.081 269.944 40.4474 270.409 41.3121C270.871 42.177 271.85 43.4797 272.583 44.2057C273.36 44.9771 274.7 45.9007 275.787 46.4186C276.814 46.9097 278.587 47.4995 279.724 47.7291C280.885 47.964 283.112 48.1481 284.796 48.1481C286.905 48.1454 288.477 47.9826 290.068 47.5983C291.317 47.2966 293.053 46.667 293.928 46.1998C294.804 45.73 296.125 44.7444 296.867 44.0104C297.606 43.2763 298.538 42.0755 298.933 41.3414C299.331 40.6074 299.923 39.0461 300.254 37.8717C300.819 35.8614 300.853 35.5031 300.909 7.05024C300.913 4.84406 302.703 3.03674 304.909 3.03674H305.019C307.228 3.03674 309.019 4.8284 309.019 7.03806L309.015 17.9176C309.012 26.1044 308.892 33.9422 308.746 35.3356C308.599 36.7316 308.233 38.7739 307.931 39.8737C307.627 40.9761 306.914 42.7779 306.343 43.8776C305.772 44.98 304.611 46.6457 303.759 47.5826C302.911 48.5195 301.373 49.8455 300.345 50.5289C299.318 51.2149 297.577 52.1518 296.474 52.611C295.374 53.0728 293.212 53.7086 291.669 54.0289C289.566 54.4613 287.868 54.6106 284.863 54.6266C282.661 54.6373 279.96 54.4988 278.857 54.3199C277.757 54.1384 275.715 53.6391 274.319 53.2067C272.925 52.7742 271.062 51.9923 270.181 51.4664C269.3 50.9406 267.931 50.011 267.141 49.3971C266.348 48.7831 265.149 47.5611 264.474 46.6803C263.801 45.7994 262.865 44.299 262.392 43.3434C261.92 42.3906 261.261 40.6477 260.927 39.4733C260.332 37.3698 260.321 37.0835 260.241 20.1813L260.18 7.1146C260.169 4.87005 262.007 3.05625 264.252 3.09658L264.418 3.09957ZM130.467 3.13479C131.561 3.15886 132.597 3.63025 133.335 4.4391L159.691 33.3517C162.148 36.047 166.635 34.3171 166.647 30.67L166.724 7.02571C166.731 4.82165 168.52 3.0387 170.724 3.0387H171.023C173.232 3.0387 175.023 4.82956 175.023 7.0387V50.034C175.023 52.2388 173.239 54.0279 171.034 54.0339L169.987 54.0368C168.859 54.0399 167.782 53.5663 167.021 52.7328L140.7 23.8835C138.243 21.1903 133.758 22.9196 133.745 26.5653L133.662 50.0373C133.654 52.2408 131.866 54.0231 129.662 54.0231H129.374C127.164 54.0231 125.373 52.2314 125.374 50.0217L125.381 28.5231L125.388 7.11079C125.389 4.86769 127.233 3.06365 129.476 3.11299L130.467 3.13479ZM86.4116 3.0387C90.2648 3.0387 90.4179 3.06054 90.77 3.63928C90.9702 3.97028 96.8565 15.3824 103.85 28.9987C110.844 42.6148 116.564 53.8155 116.564 53.8903C116.558 53.9545 115.125 54.0067 110.497 54.0199C108.982 54.0242 107.594 53.1669 106.916 51.8116L102.855 43.6869C102.178 42.3315 100.792 41.4753 99.2769 41.4754L73.4141 41.477C71.8868 41.4771 70.4928 42.3469 69.8215 43.7188L65.8148 51.906C65.1808 53.2016 63.8643 54.0231 62.4219 54.0231H62.0129C59.3741 54.0231 57.6695 51.232 58.8745 48.8844C60.3242 46.0571 65.5643 35.8178 70.521 26.1285C75.4752 16.439 80.1787 7.28051 80.9741 5.77502L81.2942 5.16952C81.987 3.85875 83.348 3.0387 84.8306 3.0387H86.4116ZM207.276 3.11682C219.64 3.22092 222.515 3.31394 224.405 3.68225C225.651 3.92516 227.694 4.43283 228.943 4.8092C230.189 5.18558 232.112 5.90874 233.214 6.41858C234.314 6.92583 236.177 7.98865 237.351 8.776C238.526 9.56346 240.285 11.0289 241.262 12.0299C242.239 13.0309 243.592 14.6908 244.273 15.7184C244.954 16.7461 245.866 18.5187 246.301 19.6559C246.736 20.793 247.286 22.8353 247.524 24.194C247.839 25.9903 247.914 27.5357 247.807 29.8658C247.724 31.6276 247.457 33.8514 247.214 34.8043C246.969 35.76 246.259 37.6208 245.637 38.942C245.015 40.2633 243.96 42.0651 243.298 42.9459C242.634 43.8268 241.385 45.1959 240.52 45.986C239.658 46.7788 238.232 47.9132 237.351 48.5084C236.47 49.101 234.668 50.0994 233.347 50.7213C232.026 51.3459 229.864 52.168 228.542 52.5524C227.221 52.9367 224.997 53.4228 223.604 53.6364C221.742 53.9188 218.274 54.0104 196.388 54.0219C194.178 54.023 192.375 52.23 192.377 50.0194L192.394 28.5074L192.415 7.02318C192.417 4.80259 194.227 3.00875 196.448 3.02714L207.276 3.11682ZM21.8032 7.12561C13.4484 7.03486 12.7888 7.0619 11.7505 7.53967C11.1393 7.81991 10.3596 8.45213 10.0151 8.94592C9.40119 9.82947 9.39111 9.96877 9.39111 16.3004C9.39111 22.3998 9.4204 22.7947 9.94092 23.5074C10.2452 23.9212 10.9069 24.4658 11.4087 24.7194C11.9132 24.9729 13.3789 25.2716 14.6655 25.3864C15.9494 25.5011 17.0005 25.7151 17.0005 25.8619C17.0004 26.0088 16.0081 26.3401 14.7964 26.5963C13.5581 26.8605 12.1568 27.3538 11.5933 27.7301C11.0435 28.0984 10.3228 28.9073 9.9917 29.5319C9.40712 30.637 9.39111 30.8832 9.39111 38.7203V45.1778C9.39111 46.2021 9.74957 47.2312 10.5648 47.8514C11.0089 48.1892 11.3673 48.3684 11.6597 48.4547C12.2656 48.6336 16.2134 48.6925 22.8706 48.6178C32.1759 48.5164 33.3374 48.4554 35.1499 47.9615C36.2497 47.6599 37.7528 47.1153 38.4868 46.7496C39.2209 46.3812 40.2457 45.615 40.7661 45.0465C41.2865 44.478 42.0388 43.3543 42.4419 42.5455C42.8423 41.7368 43.2668 40.4178 43.3843 39.609C43.5017 38.8003 43.4995 37.3298 43.3794 36.3395C43.2566 35.3492 42.8618 33.9068 42.5015 33.1354C42.1411 32.364 41.3877 31.2671 40.8325 30.6959C40.2773 30.1247 39.3697 29.3723 38.8198 29.028C38.2699 28.6809 37.1889 28.1467 36.4175 27.8424C35.5018 27.4794 33.3985 27.1113 30.3452 26.775C27.7746 26.4921 25.5826 26.2594 25.4731 26.2594C25.3638 26.2618 25.273 26.0806 25.2729 25.8619C25.2729 25.547 25.7941 25.4291 27.7427 25.3063C29.1012 25.2209 31.0519 25.0371 32.0796 24.901C33.107 24.7649 34.5485 24.4581 35.2827 24.2233C36.0167 23.9857 36.978 23.5289 37.4185 23.2086C37.8589 22.8856 38.5188 22.0314 38.8872 21.3053C39.493 20.1096 39.5542 19.6822 39.5542 16.653C39.5542 13.7625 39.4795 13.1747 38.9858 12.2487C38.6735 11.6614 37.8938 10.7078 37.2505 10.1285C36.6098 9.54933 35.6033 8.86622 35.0161 8.60999C34.4289 8.35109 33.228 7.93511 32.3472 7.6842C31.0125 7.30249 29.2479 7.20836 21.8032 7.12561ZM200.648 43.8843C200.648 46.0931 202.443 47.8846 204.652 47.8798C214.429 47.8588 218.431 47.75 219.734 47.6198C221.202 47.4729 223.364 47.1129 224.539 46.8219C225.713 46.5283 227.934 45.6657 229.477 44.9049C231.842 43.7385 232.616 43.1861 234.42 41.3658C235.832 39.9459 236.9 38.5709 237.546 37.3405C238.086 36.3128 238.774 34.5101 239.076 33.3356C239.439 31.9236 239.626 30.3619 239.624 28.7311C239.624 27.3724 239.428 25.3917 239.196 24.3268C238.961 23.2617 238.366 21.5507 237.87 20.5231C237.376 19.4954 236.396 17.9876 235.691 17.1735C234.989 16.3566 233.815 15.1979 233.081 14.5973C232.347 13.9967 230.967 13.0807 230.011 12.5602C229.056 12.0397 227.374 11.3111 226.274 10.9401C225.171 10.569 223.07 10.0813 221.602 9.85706C219.6 9.55012 216.645 9.44788 209.791 9.44788L204.649 9.44678C202.439 9.44631 200.648 11.2373 200.648 13.4468V43.8843ZM20.4019 34.2809C20.9518 34.1395 22.0619 34.076 22.8706 34.1373C23.6794 34.2014 24.9983 34.4811 25.8071 34.7614C26.616 35.0416 29.4371 35.7709 32.0796 36.3795C34.7222 36.9908 37.4851 37.682 38.2192 37.9196C38.9533 38.1545 40.0053 38.5704 40.5552 38.8453C41.1504 39.1416 41.5537 39.5316 41.5483 39.8092C41.543 40.0655 41.1526 40.9835 40.6802 41.8483C40.2077 42.7131 39.3407 43.8456 38.7534 44.3688C38.1661 44.8893 36.9643 45.6523 36.0835 46.066C35.2026 46.4771 33.7611 46.9339 32.8804 47.0807C31.9985 47.2275 27.1646 47.3473 22.1362 47.3473C15.3645 47.35 12.8153 47.2645 12.3081 47.0162C11.9318 46.832 11.5556 46.3836 11.4702 46.0153C11.3848 45.6495 11.3737 44.5068 11.4458 43.4791C11.5179 42.4328 11.7876 41.1995 12.0571 40.6764C12.3242 40.1611 13.2746 38.9787 14.1714 38.0446C15.2364 36.9342 16.4166 36.0373 17.5991 35.442C18.5894 34.9456 19.852 34.4223 20.4019 34.2809ZM86.3872 10.775C86.2977 10.7916 83.5082 16.2527 80.1812 22.9254C76.8472 29.6067 74.1216 35.1917 74.1216 35.3385C74.129 35.5117 78.3998 35.6051 86.4009 35.6051C93.1515 35.6051 98.6728 35.5143 98.6772 35.4049C98.6746 35.2955 95.9407 29.7056 92.604 22.9869C89.2647 16.2657 86.4673 10.7697 86.3872 10.775ZM26.6079 15.1237C27.9238 15.1957 28.8605 15.4626 30.478 16.2233C31.6525 16.7758 33.3345 17.7449 34.2153 18.3776C35.0958 19.0099 36.027 19.7806 36.2837 20.0905C36.7375 20.6403 36.7268 20.6725 35.8833 21.193C35.4055 21.4893 34.5967 21.8474 34.0815 21.9889C33.5657 22.1304 31.4655 22.4295 29.4106 22.651C26.2688 22.99 25.5132 23.161 24.6724 23.7242C24.1225 24.0928 23.2492 25.056 22.7368 25.8619C22.1816 26.7347 21.613 27.3275 21.3354 27.3248C21.0711 27.3216 20.5187 26.7695 20.0679 26.0573C19.526 25.2031 18.8773 24.6024 18.0659 24.2047C17.4066 23.8791 15.9035 23.4938 14.729 23.3444C13.3073 23.1664 12.4397 22.9187 12.1265 22.6002C11.9462 22.4181 11.7543 21.9678 11.5679 21.0126C11.4023 20.1638 12.0349 19.3822 12.895 19.2926C13.8479 19.1938 15.666 18.6362 17.5317 17.8649C19.2212 17.1683 21.5622 16.2446 22.7368 15.8121C24.4799 15.1688 25.1905 15.0436 26.6079 15.1237Z"
        fill="url(#paint0_linear_53_976)" />
    <path
        d="M21.936 1.27209L22.1199 2.25505L22.1219 2.25466L21.936 1.27209ZM28.6099 1.02893L28.5864 2.02866L28.5867 2.02866L28.6099 1.02893ZM35.1499 1.53674L35.3738 0.562128L35.3724 0.561807L35.1499 1.53674ZM38.6196 2.55823L38.9595 1.61774L38.9595 1.61774L38.6196 2.55823ZM41.689 3.95959L42.1919 3.09525L42.1918 3.0952L41.689 3.95959ZM44.5161 6.22327L43.8102 6.93155L43.8113 6.93267L44.5161 6.22327ZM46.6274 8.91174L47.5175 8.45594L47.5168 8.45446L46.6274 8.91174ZM47.5991 11.4479L46.6326 11.7044L46.6334 11.7076L47.5991 11.4479ZM47.9517 14.9176L46.9517 14.9153V14.9176H47.9517ZM47.6685 18.2545L48.642 18.4832L48.642 18.4831L47.6685 18.2545ZM46.6733 20.9186L45.7759 20.4773L45.7748 20.4797L46.6733 20.9186ZM44.4897 23.8541L45.198 24.5601L45.1981 24.56L44.4897 23.8541ZM41.7534 25.9957L41.2873 25.111L41.286 25.1117L41.7534 25.9957ZM40.4878 26.8629H39.4878V26.8631L40.4878 26.8629ZM41.2222 27.2233L41.0086 28.2002L41.0149 28.2015L41.2222 27.2233ZM43.6753 28.2242L43.2342 29.1217L43.2362 29.1227L43.6753 28.2242ZM46.8491 30.4L47.5249 29.6629L47.5248 29.6629L46.8491 30.4ZM49.1128 32.9352L48.2829 33.4931L48.2844 33.4953L49.1128 32.9352ZM50.4478 35.6051L49.5058 35.9408L49.506 35.9414L50.4478 35.6051ZM50.9868 40.1432L49.9868 40.1477L49.9868 40.1485L50.9868 40.1432ZM50.4155 44.8141L51.3535 45.1608L51.3541 45.1592L50.4155 44.8141ZM48.8276 47.8522L49.6484 48.4234L49.6484 48.4234L48.8276 47.8522ZM46.2271 50.4948L46.8278 51.2942L46.8294 51.293L46.2271 50.4948ZM43.0239 52.4381L43.44 53.3475L43.4423 53.3464L43.0239 52.4381ZM39.2866 53.7164L39.0399 52.7473L39.0379 52.7479L39.2866 53.7164ZM34.8823 54.5436L35.0051 55.536L35.0053 55.536L34.8823 54.5436ZM1.05908 37.6735L2.05907 37.678L2.05907 37.6779L1.05908 37.6735ZM1.62842 18.7877L2.59037 19.0609L2.59084 19.0593L1.62842 18.7877ZM2.83447 15.4518L1.921 15.0449L1.92099 15.0449L2.83447 15.4518ZM4.71631 12.1149L3.88676 11.5564L3.88568 11.558L4.71631 12.1149ZM7.63721 8.62561L6.93013 7.91848L6.9301 7.9185L7.63721 8.62561ZM10.9917 5.79358L11.5499 6.62329L11.5516 6.62214L10.9917 5.79358ZM14.4624 3.78088L14.9087 4.67578L14.9105 4.67485L14.4624 3.78088ZM18.1997 2.23596L17.8887 1.28556L17.8887 1.28556L18.1997 2.23596ZM268.455 19.9869L269.455 19.9786V19.9785L268.455 19.9869ZM269.082 38.2721L270.031 37.9586L270.031 37.957L269.082 38.2721ZM270.409 41.3121L271.291 40.8411L271.29 40.839L270.409 41.3121ZM272.583 44.2057L273.288 43.4962L273.287 43.4947L272.583 44.2057ZM275.787 46.4186L276.218 45.5163L276.217 45.5159L275.787 46.4186ZM279.724 47.7291L279.922 46.749L279.922 46.7489L279.724 47.7291ZM284.796 48.1481V49.1481H284.798L284.796 48.1481ZM290.068 47.5983L289.833 46.6262L289.833 46.6262L290.068 47.5983ZM293.928 46.1998L294.399 47.0821L294.401 47.081L293.928 46.1998ZM296.867 44.0104L297.57 44.7213L297.571 44.72L296.867 44.0104ZM298.933 41.3414L298.054 40.8651L298.053 40.8675L298.933 41.3414ZM300.254 37.8717L301.217 38.143L301.217 38.1421L300.254 37.8717ZM309.015 17.9176L308.015 17.9173V17.9173L309.015 17.9176ZM308.746 35.3356L307.751 35.2308V35.231L308.746 35.3356ZM307.931 39.8737L308.895 40.1398L308.896 40.1382L307.931 39.8737ZM306.343 43.8776L305.456 43.4166L305.455 43.4175L306.343 43.8776ZM303.759 47.5826L303.019 46.9101L303.018 46.9112L303.759 47.5826ZM300.345 50.5289L299.791 49.6962L299.79 49.6972L300.345 50.5289ZM296.474 52.611L296.09 51.6878L296.087 51.6889L296.474 52.611ZM291.669 54.0289L291.871 55.0084L291.873 55.0081L291.669 54.0289ZM284.863 54.6266L284.868 55.6266L284.868 55.6266L284.863 54.6266ZM278.857 54.3199L278.694 55.3066L278.697 55.307L278.857 54.3199ZM274.319 53.2067L274.022 54.1617L274.023 54.1619L274.319 53.2067ZM270.181 51.4664L269.669 52.3251V52.3251L270.181 51.4664ZM267.141 49.3971L267.755 48.6075L267.753 48.6065L267.141 49.3971ZM264.474 46.6803L263.679 47.2872L263.681 47.2887L264.474 46.6803ZM262.392 43.3434L263.289 42.9002L263.288 42.8992L262.392 43.3434ZM260.927 39.4733L259.965 39.7456L259.965 39.7466L260.927 39.4733ZM260.241 20.1813L259.241 20.1859V20.186L260.241 20.1813ZM125.381 28.5231L126.381 28.5234V28.5234L125.381 28.5231ZM86.4116 3.0387V2.0387V3.0387ZM90.77 3.63928L91.6257 3.12175L91.6243 3.11949L90.77 3.63928ZM103.85 28.9987L102.961 29.4555L103.85 28.9987ZM116.564 53.8903L117.56 53.9807L117.564 53.9356V53.8903H116.564ZM58.8745 48.8844L59.7642 49.3411L59.7644 49.3407L58.8745 48.8844ZM70.521 26.1285L71.4113 26.584L71.4114 26.5838L70.521 26.1285ZM80.9741 5.77502L80.09 5.30773L80.09 5.30786L80.9741 5.77502ZM207.276 3.11682L207.284 2.11686L207.284 2.11686L207.276 3.11682ZM224.405 3.68225L224.214 4.66378L224.214 4.66379L224.405 3.68225ZM228.943 4.8092L229.232 3.85189L229.231 3.85172L228.943 4.8092ZM233.214 6.41858L232.795 7.32622L232.796 7.32665L233.214 6.41858ZM237.351 8.776L236.794 9.6066L236.794 9.6066L237.351 8.776ZM241.262 12.0299L241.978 11.3315L241.978 11.3314L241.262 12.0299ZM244.273 15.7184L245.107 15.1662V15.1662L244.273 15.7184ZM246.301 19.6559L245.367 20.0132L245.367 20.0132L246.301 19.6559ZM247.524 24.194L246.539 24.3662L246.539 24.3667L247.524 24.194ZM247.807 29.8658L248.806 29.9128L248.806 29.9116L247.807 29.8658ZM247.214 34.8043L248.183 35.0533L248.183 35.0513L247.214 34.8043ZM245.637 38.942L246.542 39.3679V39.3679L245.637 38.942ZM243.298 42.9459L244.097 43.5483L244.098 43.5467L243.298 42.9459ZM240.52 45.986L239.846 45.2477L239.843 45.2498L240.52 45.986ZM237.351 48.5084L237.909 49.3382L237.911 49.337L237.351 48.5084ZM233.347 50.7213L232.921 49.8165L232.92 49.8172L233.347 50.7213ZM228.542 52.5524L228.822 53.5126V53.5126L228.542 52.5524ZM223.604 53.6364L223.754 54.625L223.755 54.6248L223.604 53.6364ZM192.394 28.5074L191.394 28.5065V28.5066L192.394 28.5074ZM21.8032 7.12561L21.8143 6.12567L21.8141 6.12567L21.8032 7.12561ZM11.7505 7.53967L12.1673 8.44868L12.1685 8.44811L11.7505 7.53967ZM10.0151 8.94592L9.19494 8.37383L9.19393 8.37529L10.0151 8.94592ZM9.39111 16.3004H8.39111H9.39111ZM9.94092 23.5074L9.13336 24.0972L9.13538 24.1L9.94092 23.5074ZM11.4087 24.7194L10.9577 25.6119L10.9596 25.6128L11.4087 24.7194ZM14.6655 25.3864L14.7546 24.3903L14.7544 24.3903L14.6655 25.3864ZM17.0005 25.8619L18.0005 25.8627V25.8619H17.0005ZM14.7964 26.5963L14.5895 25.6179L14.5877 25.6183L14.7964 26.5963ZM11.5933 27.7301L11.0379 26.8985L11.0367 26.8993L11.5933 27.7301ZM9.9917 29.5319L9.10818 29.0635L9.10776 29.0643L9.9917 29.5319ZM11.6597 48.4547L11.3764 49.4137L11.3766 49.4138L11.6597 48.4547ZM22.8706 48.6178L22.8597 47.6179L22.8594 47.6179L22.8706 48.6178ZM35.1499 47.9615L35.4128 48.9264L35.4144 48.9259L35.1499 47.9615ZM38.4868 46.7496L38.9327 47.6447L38.9354 47.6434L38.4868 46.7496ZM40.7661 45.0465L40.0285 44.3713H40.0285L40.7661 45.0465ZM42.4419 42.5455L43.3369 42.9916L43.3381 42.9892L42.4419 42.5455ZM43.3843 39.609L44.3739 39.7527L44.3739 39.7527L43.3843 39.609ZM43.3794 36.3395L44.3721 36.2191L44.3718 36.2164L43.3794 36.3395ZM42.5015 33.1354L43.4075 32.7121L43.4075 32.7121L42.5015 33.1354ZM40.8325 30.6959L41.5496 29.9989L41.5496 29.9989L40.8325 30.6959ZM38.8198 29.028L38.2861 29.8736L38.2891 29.8755L38.8198 29.028ZM36.4175 27.8424L36.049 28.772L36.0505 28.7726L36.4175 27.8424ZM30.3452 26.775L30.4547 25.781L30.4546 25.781L30.3452 26.775ZM25.4731 26.2594V25.2594H25.4622L25.4513 25.2596L25.4731 26.2594ZM25.2729 25.8619H24.2729V25.862L25.2729 25.8619ZM27.7427 25.3063L27.6799 24.3082L27.6798 24.3083L27.7427 25.3063ZM32.0796 24.901L32.2109 25.8923L32.2109 25.8923L32.0796 24.901ZM35.2827 24.2233L35.5874 25.1757L35.5906 25.1747L35.2827 24.2233ZM37.4185 23.2086L38.0066 24.0174L38.0098 24.015L37.4185 23.2086ZM38.8872 21.3053L39.779 21.7577L39.7792 21.7573L38.8872 21.3053ZM39.5542 16.653L40.5542 16.653V16.653H39.5542ZM38.9858 12.2487L38.1029 12.7182L38.1034 12.7191L38.9858 12.2487ZM37.2505 10.1285L36.5798 10.8703L36.5814 10.8717L37.2505 10.1285ZM35.0161 8.60999L34.6127 9.52501L34.6162 9.52652L35.0161 8.60999ZM32.3472 7.6842L32.0722 8.64566L32.0732 8.64594L32.3472 7.6842ZM219.734 47.6198L219.833 48.6148L219.734 47.6198ZM224.539 46.8219L224.779 47.7926L224.781 47.792L224.539 46.8219ZM229.477 44.9049L229.919 45.8018L229.919 45.8018L229.477 44.9049ZM234.42 41.3658L233.711 40.6607L233.71 40.6619L234.42 41.3658ZM237.546 37.3405L238.432 37.8053L238.432 37.8051L237.546 37.3405ZM239.076 33.3356L238.107 33.0866L238.107 33.0868L239.076 33.3356ZM239.624 28.7311L238.624 28.7311V28.7327L239.624 28.7311ZM239.196 24.3268L240.173 24.1137L240.172 24.1114L239.196 24.3268ZM237.87 20.5231L236.968 20.9562L236.969 20.9581L237.87 20.5231ZM235.691 17.1735L234.933 17.8253L234.935 17.8279L235.691 17.1735ZM233.081 14.5973L233.714 13.8233V13.8233L233.081 14.5973ZM230.011 12.5602L230.49 11.682L230.49 11.682L230.011 12.5602ZM226.274 10.9401L226.594 9.99254L226.593 9.9923L226.274 10.9401ZM221.602 9.85706L221.451 10.8455L221.451 10.8456L221.602 9.85706ZM209.791 9.44788L209.79 10.4479H209.791V9.44788ZM20.4019 34.2809L20.1528 33.3124L20.1527 33.3124L20.4019 34.2809ZM22.8706 34.1373L22.9496 33.1404L22.9463 33.1402L22.8706 34.1373ZM25.8071 34.7614L25.4797 35.7062L25.4797 35.7062L25.8071 34.7614ZM32.0796 36.3795L32.305 35.4052L32.304 35.405L32.0796 36.3795ZM38.2192 37.9196L37.9113 38.871L37.9145 38.872L38.2192 37.9196ZM40.5552 38.8453L40.108 39.7398L40.1096 39.7406L40.5552 38.8453ZM41.5483 39.8092L42.5481 39.8301L42.5482 39.8284L41.5483 39.8092ZM40.6802 41.8483L41.5578 42.3277V42.3277L40.6802 41.8483ZM38.7534 44.3688L39.4167 45.1171L39.4186 45.1154L38.7534 44.3688ZM36.0835 46.066L36.5063 46.9722L36.5086 46.9712L36.0835 46.066ZM32.8804 47.0807L33.0446 48.0671L33.0448 48.0671L32.8804 47.0807ZM22.1362 47.3473V46.3473H22.1358L22.1362 47.3473ZM12.3081 47.0162L11.8685 47.9144L11.8685 47.9144L12.3081 47.0162ZM11.4702 46.0153L12.4444 45.7894L12.444 45.7879L11.4702 46.0153ZM11.4458 43.4791L12.4434 43.5491L12.4434 43.5479L11.4458 43.4791ZM12.0571 40.6764L11.1693 40.2162L11.1682 40.2183L12.0571 40.6764ZM14.1714 38.0446L14.8928 38.7371L14.8931 38.7368L14.1714 38.0446ZM17.5991 35.442L17.151 34.5481L17.1495 34.5488L17.5991 35.442ZM86.3872 10.775L86.3207 9.77724L86.2625 9.78112L86.2052 9.79173L86.3872 10.775ZM80.1812 22.9254L81.0759 23.3719L81.0761 23.3716L80.1812 22.9254ZM74.1216 35.3385H73.1216V35.3599L73.1225 35.3813L74.1216 35.3385ZM86.4009 35.6051V36.6051V35.6051ZM98.6772 35.4049L99.6764 35.446L99.6777 35.4132L99.6769 35.3805L98.6772 35.4049ZM92.604 22.9869L93.4996 22.5421L93.4996 22.542L92.604 22.9869ZM26.6079 15.1237L26.5515 16.1221L26.5532 16.1222L26.6079 15.1237ZM30.478 16.2233L30.9037 15.3184L30.9036 15.3183L30.478 16.2233ZM34.2153 18.3776L34.7987 17.5653L34.7987 17.5653L34.2153 18.3776ZM36.2837 20.0905L37.055 19.454L37.0538 19.4525L36.2837 20.0905ZM35.8833 21.193L35.3582 20.342L35.3563 20.3431L35.8833 21.193ZM34.0815 21.9889L34.3461 22.9533L34.3464 22.9532L34.0815 21.9889ZM29.4106 22.651L29.3035 21.6568L29.3034 21.6568L29.4106 22.651ZM24.6724 23.7242L24.1158 22.8934L24.1157 22.8935L24.6724 23.7242ZM22.7368 25.8619L23.5806 26.3987L23.5807 26.3985L22.7368 25.8619ZM21.3354 27.3248L21.3233 28.3248L21.3258 28.3248L21.3354 27.3248ZM20.0679 26.0573L20.9128 25.5224L20.9123 25.5216L20.0679 26.0573ZM18.0659 24.2047L17.6231 25.1013L17.6258 25.1026L18.0659 24.2047ZM14.729 23.3444L14.8553 22.3524L14.8532 22.3521L14.729 23.3444ZM12.1265 22.6002L12.8395 21.8991L12.8372 21.8967L12.1265 22.6002ZM12.895 19.2926L12.7919 18.2979L12.7915 18.298L12.895 19.2926ZM17.5317 17.8649L17.1505 16.9404L17.1497 16.9407L17.5317 17.8649ZM22.7368 15.8121L23.0823 16.7505L23.0831 16.7503L22.7368 15.8121ZM204.652 47.8798L204.654 48.8798L204.652 47.8798ZM192.415 7.02318L191.415 7.02223L192.415 7.02318ZM196.388 54.0219L196.389 55.0219L196.388 54.0219ZM192.377 50.0194L191.377 50.0186L192.377 50.0194ZM65.8148 51.906L66.7131 52.3456L65.8148 51.906ZM73.4141 41.477L73.414 40.477L73.4141 41.477ZM102.855 43.6869L101.961 44.134L102.855 43.6869ZM99.2769 41.4754L99.277 42.4754L99.2769 41.4754ZM110.497 54.0199L110.5 55.0198L110.497 54.0199ZM106.916 51.8116L106.022 52.2587L106.916 51.8116ZM10.5648 47.8514L9.95939 48.6473L10.5648 47.8514ZM125.388 7.11079L126.388 7.1111L125.388 7.11079ZM125.374 50.0217L124.374 50.0213L125.374 50.0217ZM133.662 50.0373L132.662 50.0337L133.662 50.0373ZM140.7 23.8835L141.439 23.2095L140.7 23.8835ZM133.745 26.5653L132.745 26.5618L133.745 26.5653ZM169.987 54.0368L169.99 55.0368L169.987 54.0368ZM167.021 52.7328L166.282 53.4068L167.021 52.7328ZM5.0091 54.8228L5.00962 55.8228L5.0091 54.8228ZM309.019 7.03806L310.019 7.03838L309.019 7.03806ZM171.034 54.0339L171.031 53.0339L171.034 54.0339ZM159.691 33.3517L158.952 34.0254L159.691 33.3517ZM166.647 30.67L167.647 30.6733L166.647 30.67ZM260.18 7.1146L259.18 7.11927L260.18 7.1146ZM300.909 7.05024L301.909 7.05219L300.909 7.05024ZM166.724 7.02571L167.724 7.02896L166.724 7.02571ZM81.2942 5.16952L82.1783 5.63682L81.2942 5.16952ZM133.335 4.4391L134.074 3.76542L133.335 4.4391ZM268.346 7.06524L269.346 7.05682L268.346 7.06524ZM264.418 3.09957L264.4 4.0994L264.418 3.09957ZM21.936 1.27209L22.1219 2.25466C23.2901 2.03365 25.2785 1.95117 28.5864 2.02866L28.6099 1.02893L28.6333 0.0292049C25.3319 -0.0481286 23.1498 0.0247201 21.7501 0.289524L21.936 1.27209ZM28.6099 1.02893L28.5867 2.02866C31.4785 2.09561 33.9984 2.29967 34.9274 2.51168L35.1499 1.53674L35.3724 0.561807C34.2194 0.298684 31.5069 0.0957277 28.633 0.0291985L28.6099 1.02893ZM35.1499 1.53674L34.926 2.51136C35.8401 2.72134 37.3653 3.16829 38.2798 3.49872L38.6196 2.55823L38.9595 1.61774C37.9683 1.25959 36.3656 0.78996 35.3738 0.562129L35.1499 1.53674ZM38.6196 2.55823L38.2798 3.49871C39.1875 3.82671 40.5135 4.43269 41.1861 4.82399L41.689 3.95959L42.1918 3.0952C41.3961 2.63233 39.9572 1.97827 38.9595 1.61774L38.6196 2.55823ZM41.689 3.95959L41.1861 4.82394C41.8247 5.19551 43.0311 6.15502 43.8102 6.93155L44.5161 6.22327L45.222 5.51498C44.3622 4.65797 43.0212 3.57778 42.1919 3.09525L41.689 3.95959ZM44.5161 6.22327L43.8113 6.93267C44.5947 7.71101 45.4656 8.83896 45.7381 9.36902L46.6274 8.91174L47.5168 8.45446C47.1113 7.66587 46.0818 6.36912 45.2209 5.51386L44.5161 6.22327ZM46.6274 8.91174L45.7374 9.36755C46.0437 9.96575 46.4559 11.039 46.6326 11.7044L47.5991 11.4479L48.5656 11.1913C48.3526 10.3886 47.8892 9.18173 47.5175 8.45594L46.6274 8.91174ZM47.5991 11.4479L46.6334 11.7076C46.7989 12.3226 46.9542 13.7859 46.9517 14.9153L47.9517 14.9176L48.9517 14.9199C48.9544 13.7006 48.7943 12.0415 48.5648 11.1881L47.5991 11.4479ZM47.9517 14.9176H46.9517C46.9517 16.0614 46.824 17.4761 46.6949 18.0259L47.6685 18.2545L48.642 18.4831C48.8225 17.7143 48.9517 16.1228 48.9517 14.9176H47.9517ZM47.6685 18.2545L46.695 18.0259C46.5611 18.5959 46.1457 19.7254 45.776 20.4773L46.6733 20.9186L47.5707 21.3598C47.991 20.505 48.4661 19.2319 48.642 18.4832L47.6685 18.2545ZM46.6733 20.9186L45.7748 20.4797C45.4421 21.1608 44.5333 22.3938 43.7814 23.1482L44.4897 23.8541L45.1981 24.56C46.0636 23.6915 47.1198 22.2831 47.5719 21.3574L46.6733 20.9186ZM44.4897 23.8541L43.7815 23.1482C43.0149 23.9173 41.8618 24.8083 41.2873 25.111L41.7534 25.9957L42.2196 26.8804C43.0331 26.4518 44.347 25.4139 45.198 24.5601L44.4897 23.8541ZM41.7534 25.9957L41.286 25.1117C40.9125 25.3092 40.5621 25.518 40.2943 25.7014C40.1638 25.7908 40.0305 25.8893 39.9196 25.9889C39.8665 26.0365 39.7922 26.1077 39.7231 26.1969C39.6937 26.2349 39.4878 26.487 39.4878 26.8629H40.4878H41.4878C41.4878 27.0627 41.4263 27.2091 41.3943 27.2752C41.3587 27.3486 41.3221 27.3986 41.3041 27.4218C41.2688 27.4673 41.2445 27.4872 41.2556 27.4772C41.2731 27.4615 41.3257 27.4191 41.4245 27.3514C41.6154 27.2207 41.8977 27.0506 42.2209 26.8798L41.7534 25.9957ZM40.4878 26.8629L39.4878 26.8631C39.4879 27.3627 39.8253 27.6524 39.895 27.7122C40.0213 27.8205 40.1577 27.897 40.2632 27.9488C40.4833 28.0568 40.7462 28.1428 41.0086 28.2002L41.2222 27.2233L41.4357 26.2463C41.2951 26.2156 41.1909 26.1762 41.1445 26.1534C41.1168 26.1398 41.1451 26.1496 41.1967 26.1938C41.2229 26.2162 41.2819 26.2702 41.3404 26.3598C41.3977 26.4478 41.4878 26.622 41.4878 26.8628L40.4878 26.8629ZM41.2222 27.2233L41.0149 28.2015C41.1174 28.2233 41.4174 28.3237 41.8677 28.5075C42.2915 28.6805 42.7829 28.8999 43.2342 29.1217L43.6753 28.2242L44.1164 27.3268C43.6227 27.0842 43.0891 26.8458 42.6234 26.6557C42.1841 26.4765 41.73 26.3087 41.4295 26.245L41.2222 27.2233ZM43.6753 28.2242L43.2362 29.1227C44.0916 29.5407 45.4405 30.4654 46.1734 31.1372L46.8491 30.4L47.5248 29.6629C46.6562 28.8666 45.1489 27.8314 44.1144 27.3258L43.6753 28.2242ZM46.8491 30.4L46.1734 31.1372C46.9356 31.8359 47.8966 32.9184 48.2829 33.493L49.1128 32.9352L49.9427 32.3773C49.4425 31.6332 48.364 30.4321 47.5249 29.6629L46.8491 30.4ZM49.1128 32.9352L48.2844 33.4953C48.6795 34.0796 49.2436 35.2051 49.5058 35.9408L50.4478 35.6051L51.3897 35.2694C51.0754 34.3875 50.4377 33.1094 49.9412 32.3751L49.1128 32.9352ZM50.4478 35.6051L49.506 35.9414C49.8472 36.8968 49.9763 37.8302 49.9868 40.1477L50.9868 40.1432L51.9868 40.1386C51.976 37.7692 51.849 36.5555 51.3895 35.2688L50.4478 35.6051ZM50.9868 40.1432L49.9868 40.1485C50 42.6398 49.9007 43.3166 49.477 44.469L50.4155 44.8141L51.3541 45.1592C51.9019 43.6691 52.0003 42.7069 51.9868 40.1379L50.9868 40.1432ZM50.4155 44.8141L49.4776 44.4673C49.1814 45.2685 48.5084 46.5602 48.0068 47.2809L48.8276 47.8522L49.6484 48.4234C50.2466 47.5639 50.9984 46.1214 51.3535 45.1608L50.4155 44.8141ZM48.8276 47.8522L48.0068 47.2809C47.5257 47.9722 46.4339 49.086 45.6247 49.6965L46.2271 50.4948L46.8294 51.293C47.782 50.5742 49.0298 49.3124 49.6484 48.4234L48.8276 47.8522ZM46.2271 50.4948L45.6263 49.6953C44.7939 50.3209 43.4131 51.1579 42.6056 51.5298L43.0239 52.4381L43.4423 53.3464C44.3964 52.9069 45.8984 51.9926 46.8278 51.2942L46.2271 50.4948ZM43.0239 52.4381L42.6079 51.5288C41.7924 51.9019 40.1691 52.4599 39.0399 52.7473L39.2866 53.7164L39.5333 54.6855C40.7529 54.3751 42.4936 53.7805 43.44 53.3475L43.0239 52.4381ZM39.2866 53.7164L39.0379 52.7479C37.9071 53.0382 35.9686 53.4013 34.7593 53.5512L34.8823 54.5436L35.0053 55.536C36.2943 55.3762 38.317 54.9979 39.5353 54.685L39.2866 53.7164ZM34.8823 54.5436L34.7596 53.5511C34.188 53.6218 32.3039 53.6897 27.7215 53.7385C23.1751 53.787 16.0321 53.8171 5.00857 53.8228L5.0091 54.8228L5.00962 55.8228C16.0344 55.8171 23.1858 55.787 27.7429 55.7384C32.2639 55.6902 34.2923 55.6242 35.0051 55.536L34.8823 54.5436ZM1.00001 50.8059L2 50.8104L2.05907 37.678L1.05908 37.6735L0.0590922 37.669L1.80602e-05 50.8014L1.00001 50.8059ZM1.05908 37.6735L2.05907 37.6779C2.0938 29.816 2.12337 25.5074 2.20015 22.9646C2.27693 20.4218 2.4001 19.7308 2.59037 19.0609L1.62842 18.7877L0.666468 18.5145C0.405618 19.4329 0.278823 20.329 0.201063 22.9042C0.123308 25.4793 0.0937659 29.8194 0.0590918 37.669L1.05908 37.6735ZM1.62842 18.7877L2.59084 19.0593C2.84733 18.1503 3.37505 16.6959 3.74795 15.8587L2.83447 15.4518L1.92099 15.0449C1.50927 15.9692 0.94875 17.5141 0.665998 18.5162L1.62842 18.7877ZM2.83447 15.4518L3.74794 15.8587C4.11236 15.0406 4.93103 13.5904 5.54693 12.6717L4.71631 12.1149L3.88568 11.558C3.22033 12.5505 2.34134 14.1013 1.921 15.0449L2.83447 15.4518ZM4.71631 12.1149L5.54586 12.6733C6.14751 11.7796 7.41832 10.2587 8.34431 9.33272L7.63721 8.62561L6.9301 7.9185C5.92884 8.91976 4.57173 10.5389 3.88676 11.5564L4.71631 12.1149ZM7.63721 8.62561L8.34429 9.33274C9.2749 8.40219 10.7356 7.17114 11.5499 6.62329L10.9917 5.79358L10.4335 4.96387C9.48629 5.60112 7.92669 6.92198 6.93013 7.91848L7.63721 8.62561ZM10.9917 5.79358L11.5516 6.62214C12.3928 6.0537 13.9165 5.17057 14.9087 4.67578L14.4624 3.78088L14.0161 2.88599C12.9529 3.41623 11.3524 4.34294 10.4318 4.96502L10.9917 5.79358ZM14.4624 3.78088L14.9105 4.67485C15.8955 4.18113 17.5317 3.50677 18.5107 3.18636L18.1997 2.23596L17.8887 1.28556C16.8125 1.63777 15.0848 2.35031 14.0143 2.88691L14.4624 3.78088ZM18.1997 2.23596L18.5107 3.18636C19.4995 2.86278 21.1381 2.43868 22.1199 2.25505L21.936 1.27209L21.7522 0.289141C20.6787 0.489928 18.9551 0.936568 17.8887 1.28556L18.1997 2.23596ZM268.346 7.06524L267.346 7.07366L267.455 19.9954L268.455 19.9869L269.455 19.9785L269.346 7.05682L268.346 7.06524ZM268.455 19.9869L267.455 19.9953C267.519 27.6407 267.565 31.8942 267.651 34.4019C267.736 36.8947 267.861 37.7697 268.132 38.5872L269.082 38.2721L270.031 37.957C269.859 37.4398 269.735 36.8238 269.649 34.3334C269.565 31.858 269.519 27.6362 269.455 19.9786L268.455 19.9869ZM269.082 38.2721L268.132 38.5856C268.419 39.4565 269.04 40.8763 269.528 41.7852L270.409 41.3121L271.29 40.839C270.849 40.0186 270.278 38.7054 270.031 37.9586L269.082 38.2721ZM270.409 41.3121L269.527 41.7832C270.038 42.741 271.079 44.1238 271.88 44.9166L272.583 44.2057L273.287 43.4947C272.62 42.8356 271.703 41.6129 271.291 40.8411L270.409 41.3121ZM272.583 44.2057L271.879 44.9152C272.744 45.7745 274.18 46.7604 275.356 47.3213L275.787 46.4186L276.217 45.5159C275.221 45.041 273.976 44.1797 273.288 43.4962L272.583 44.2057ZM275.787 46.4186L275.355 47.3208C276.459 47.8482 278.31 48.4638 279.526 48.7093L279.724 47.7291L279.922 46.7489C278.864 46.5353 277.17 45.9713 276.218 45.5163L275.787 46.4186ZM279.724 47.7291L279.526 48.7093C280.773 48.9616 283.071 49.1481 284.796 49.1481V48.1481V47.1481C283.153 47.1481 280.997 46.9665 279.922 46.749L279.724 47.7291ZM284.796 48.1481L284.798 49.1481C286.963 49.1453 288.617 48.9777 290.303 48.5703L290.068 47.5983L289.833 46.6262C288.338 46.9876 286.847 47.1455 284.795 47.1481L284.796 48.1481ZM290.068 47.5983L290.303 48.5703C291.612 48.2542 293.431 47.5984 294.399 47.0821L293.928 46.1998L293.457 45.3175C292.674 45.7355 291.022 46.3391 289.833 46.6262L290.068 47.5983ZM293.928 46.1998L294.401 47.081C295.366 46.563 296.764 45.5187 297.57 44.7213L296.867 44.0104L296.163 43.2994C295.485 43.9701 294.241 44.8969 293.455 45.3187L293.928 46.1998ZM296.867 44.0104L297.571 44.72C298.362 43.9344 299.361 42.6561 299.814 41.8153L298.933 41.3414L298.053 40.8675C297.715 41.4948 296.85 42.6182 296.162 43.3007L296.867 44.0104ZM298.933 41.3414L299.812 41.8178C300.258 40.9952 300.875 39.3573 301.217 38.143L300.254 37.8717L299.292 37.6004C298.972 38.735 298.404 40.2196 298.054 40.8651L298.933 41.3414ZM300.254 37.8717L301.217 38.1421C301.534 37.0136 301.686 36.3206 301.772 32.399C301.859 28.4887 301.881 21.2724 301.909 7.05219L300.909 7.05024L299.909 7.04828C299.881 21.2809 299.858 28.4702 299.773 32.3548C299.687 36.2282 299.539 36.7194 299.292 37.6014L300.254 37.8717ZM304.909 3.03674V4.03674H305.019V3.03674V2.03674H304.909V3.03674ZM309.019 7.03806L308.019 7.03773L308.015 17.9173L309.015 17.9176L310.015 17.9179L310.019 7.03838L309.019 7.03806ZM309.015 17.9176L308.015 17.9173C308.012 26.1366 307.891 33.9039 307.751 35.2308L308.746 35.3356L309.74 35.4404C309.894 33.9804 310.012 26.0723 310.015 17.9179L309.015 17.9176ZM308.746 35.3356L307.751 35.231C307.609 36.5852 307.251 38.5725 306.967 39.6092L307.931 39.8737L308.896 40.1382C309.214 38.9754 309.589 36.878 309.74 35.4402L308.746 35.3356ZM307.931 39.8737L306.967 39.6075C306.682 40.6387 305.997 42.3754 305.456 43.4166L306.343 43.8776L307.231 44.3385C307.832 43.1804 308.571 41.3135 308.895 40.1398L307.931 39.8737ZM306.343 43.8776L305.455 43.4175C304.925 44.4417 303.813 46.0362 303.019 46.9101L303.759 47.5826L304.499 48.2552C305.408 47.2552 306.619 45.5183 307.231 44.3376L306.343 43.8776ZM303.759 47.5826L303.018 46.9112C302.224 47.7879 300.749 49.0595 299.791 49.6962L300.345 50.5289L300.899 51.3616C301.997 50.6316 303.597 49.251 304.5 48.2541L303.759 47.5826ZM300.345 50.5289L299.79 49.6972C298.814 50.3487 297.13 51.2546 296.09 51.6878L296.474 52.611L296.859 53.5341C298.023 53.0491 299.821 52.0812 300.9 51.3606L300.345 50.5289ZM296.474 52.611L296.087 51.6889C295.063 52.1189 292.966 52.7383 291.466 53.0498L291.669 54.0289L291.873 55.0081C293.458 54.6789 295.686 54.0266 296.861 53.533L296.474 52.611ZM291.669 54.0289L291.468 53.0494C289.449 53.4645 287.821 53.6108 284.857 53.6266L284.863 54.6266L284.868 55.6266C287.916 55.6103 289.683 55.4582 291.871 55.0084L291.669 54.0289ZM284.863 54.6266L284.858 53.6266C282.669 53.6372 280.035 53.498 279.017 53.3328L278.857 54.3199L278.697 55.307C279.884 55.4995 282.652 55.6373 284.868 55.6266L284.863 54.6266ZM278.857 54.3199L279.02 53.3333C277.975 53.1609 275.979 52.6739 274.615 52.2514L274.319 53.2067L274.023 54.1619C275.451 54.6043 277.539 55.1159 278.694 55.3066L278.857 54.3199ZM274.319 53.2067L274.615 52.2516C273.267 51.8332 271.484 51.0795 270.694 50.6078L270.181 51.4664L269.669 52.3251C270.64 52.9051 272.584 53.7152 274.022 54.1617L274.319 53.2067ZM270.181 51.4664L270.694 50.6078C269.845 50.1014 268.51 49.1947 267.755 48.6075L267.141 49.3971L266.528 50.1867C267.352 50.8274 268.755 51.7797 269.669 52.3251L270.181 51.4664ZM267.141 49.3971L267.753 48.6065C267.036 48.0507 265.897 46.892 265.268 46.0719L264.474 46.6803L263.681 47.2887C264.402 48.2303 265.661 49.5155 266.529 50.1877L267.141 49.3971ZM264.474 46.6803L265.269 46.0734C264.633 45.2412 263.731 43.7954 263.289 42.9002L262.392 43.3434L261.496 43.7866C261.998 44.8026 262.969 46.3576 263.679 47.2872L264.474 46.6803ZM262.392 43.3434L263.288 42.8992C262.847 42.0091 262.209 40.3247 261.889 39.2L260.927 39.4733L259.965 39.7466C260.313 40.9707 260.993 42.772 261.496 43.7876L262.392 43.3434ZM260.927 39.4733L261.889 39.201C261.342 37.2679 261.321 37.1828 261.241 20.1765L260.241 20.1813L259.241 20.186C259.32 36.9842 259.322 37.4718 259.965 39.7456L260.927 39.4733ZM260.241 20.1813L261.241 20.1766L261.18 7.10993L260.18 7.1146L259.18 7.11927L259.241 20.1859L260.241 20.1813ZM264.252 3.09658L264.234 4.09642L264.4 4.0994L264.418 3.09957L264.436 2.09973L264.27 2.09674L264.252 3.09658ZM133.335 4.4391L132.596 5.11278L158.952 34.0254L159.691 33.3517L160.43 32.6781L134.074 3.76542L133.335 4.4391ZM166.647 30.67L167.647 30.6733L167.724 7.02896L166.724 7.02571L165.724 7.02246L165.647 30.6668L166.647 30.67ZM170.724 3.0387V4.0387H171.023V3.0387V2.0387H170.724V3.0387ZM175.023 7.0387H174.023V50.034H175.023H176.023V7.0387H175.023ZM171.034 54.0339L171.031 53.0339L169.984 53.0368L169.987 54.0368L169.99 55.0368L171.037 55.0339L171.034 54.0339ZM167.021 52.7328L167.76 52.0588L141.439 23.2095L140.7 23.8835L139.962 24.5575L166.282 53.4068L167.021 52.7328ZM133.745 26.5653L132.745 26.5618L132.662 50.0337L133.662 50.0373L134.662 50.0408L134.745 26.5688L133.745 26.5653ZM129.662 54.0231V53.0231H129.374V54.0231V55.0231H129.662V54.0231ZM125.374 50.0217L126.374 50.022L126.381 28.5234L125.381 28.5231L124.381 28.5227L124.374 50.0213L125.374 50.0217ZM125.381 28.5231L126.381 28.5234L126.388 7.1111L125.388 7.11079L124.388 7.11049L124.381 28.5228L125.381 28.5231ZM129.476 3.11299L129.454 4.11274L130.445 4.13454L130.467 3.13479L130.489 2.13503L129.498 2.11323L129.476 3.11299ZM86.4116 3.0387V4.0387C88.3809 4.0387 89.29 4.04676 89.767 4.11258C89.9896 4.14328 89.9857 4.17238 89.9243 4.13112C89.8535 4.08349 89.8347 4.02584 89.9157 4.15907L90.77 3.63928L91.6243 3.11949C91.5293 2.96335 91.3593 2.68594 91.0403 2.47145C90.7308 2.26332 90.3818 2.17845 90.0404 2.13134C89.3895 2.04155 88.2955 2.0387 86.4116 2.0387V3.0387ZM90.77 3.63928L89.9144 4.15681C89.9087 4.14745 89.9272 4.18012 89.9899 4.2981C90.0443 4.4005 90.1201 4.54459 90.2166 4.72911C90.4096 5.09779 90.6826 5.62263 91.027 6.28688C91.7158 7.61511 92.6885 9.49742 93.8738 11.7954C96.2442 16.3912 99.4639 22.6478 102.961 29.4555L103.85 28.9987L104.74 28.5418C101.243 21.7333 98.0224 15.4757 95.6513 10.8786C93.2986 6.31722 91.7491 3.32584 91.6257 3.12175L90.77 3.63928ZM103.85 28.9987L102.961 29.4555C106.457 36.2631 109.635 42.4667 111.939 46.9773C113.091 49.2328 114.024 51.0644 114.669 52.3364C114.992 52.9726 115.241 53.4675 115.41 53.8051C115.495 53.9743 115.558 54.1014 115.599 54.1861C115.62 54.2293 115.633 54.2567 115.64 54.2716C115.644 54.2803 115.643 54.2773 115.639 54.268C115.637 54.2647 115.63 54.2479 115.622 54.2246C115.618 54.2136 115.609 54.1883 115.6 54.1551C115.598 54.1494 115.564 54.0365 115.564 53.8903H116.564H117.564C117.564 53.7435 117.53 53.6296 117.528 53.6226C117.518 53.5881 117.509 53.5613 117.504 53.5484C117.494 53.5211 117.485 53.4991 117.481 53.4893C117.471 53.4668 117.462 53.4454 117.455 53.4302C117.439 53.3975 117.42 53.3562 117.397 53.3099C117.351 53.2157 117.284 53.0811 117.199 52.9104C117.028 52.5679 116.776 52.0691 116.453 51.432C115.807 50.1573 114.872 48.3237 113.72 46.0676C111.415 41.5552 108.237 35.3503 104.74 28.5418L103.85 28.9987ZM116.564 53.8903L115.568 53.7998C115.611 53.3305 115.944 53.1039 116.011 53.0602C116.115 52.9916 116.206 52.961 116.234 52.9519C116.273 52.9392 116.302 52.9326 116.314 52.9301C116.328 52.9271 116.337 52.9258 116.337 52.9257C116.339 52.9255 116.328 52.9271 116.302 52.9297C116.276 52.9322 116.242 52.935 116.196 52.9381C116.012 52.9507 115.705 52.9632 115.24 52.9745C114.314 52.997 112.807 53.0133 110.495 53.0199L110.497 54.0199L110.5 55.0198C112.816 55.0133 114.34 54.9969 115.288 54.9739C115.76 54.9625 116.102 54.9491 116.332 54.9335C116.443 54.9259 116.553 54.9163 116.645 54.9018C116.685 54.8956 116.767 54.882 116.857 54.8524C116.897 54.8394 116.997 54.8049 117.108 54.7323C117.18 54.6846 117.517 54.454 117.56 53.9807L116.564 53.8903ZM106.916 51.8116L107.811 51.3645L103.75 43.2397L102.855 43.6869L101.961 44.134L106.022 52.2587L106.916 51.8116ZM99.2769 41.4754L99.2769 40.4754L73.414 40.477L73.4141 41.477L73.4141 42.477L99.277 42.4754L99.2769 41.4754ZM69.8215 43.7188L68.9233 43.2792L64.9166 51.4665L65.8148 51.906L66.7131 52.3456L70.7197 44.1583L69.8215 43.7188ZM62.4219 54.0231V53.0231H62.0129V54.0231V55.0231H62.4219V54.0231ZM58.8745 48.8844L59.7644 49.3407C61.2143 46.5128 66.4546 36.2731 71.4113 26.584L70.521 26.1285L69.6307 25.6731C64.6739 35.3625 59.4341 45.6013 57.9847 48.4281L58.8745 48.8844ZM70.521 26.1285L71.4114 26.5838C76.3676 16.8902 81.0669 7.74004 81.8583 6.24219L80.9741 5.77502L80.09 5.30786C79.2905 6.82098 74.5828 15.9877 69.6306 25.6733L70.521 26.1285ZM80.9741 5.77502L81.8582 6.24232L82.1783 5.63682L81.2942 5.16952L80.4101 4.70223L80.09 5.30773L80.9741 5.77502ZM84.8306 3.0387V4.0387H86.4116V3.0387V2.0387H84.8306V3.0387ZM207.276 3.11682L207.267 4.11679C219.693 4.22141 222.44 4.31817 224.214 4.66378L224.405 3.68225L224.596 2.70072C222.59 2.3097 219.586 2.22043 207.284 2.11686L207.276 3.11682ZM224.405 3.68225L224.214 4.66379C225.426 4.90007 227.436 5.39959 228.654 5.76669L228.943 4.8092L229.231 3.85172C227.951 3.46607 225.877 2.95025 224.596 2.70071L224.405 3.68225ZM228.943 4.8092L228.654 5.76652C229.86 6.13061 231.738 6.83764 232.795 7.32622L233.214 6.41858L233.634 5.51094C232.486 4.97984 230.519 4.24055 229.232 3.85189L228.943 4.8092ZM233.214 6.41858L232.796 7.32665C233.839 7.80813 235.656 8.84342 236.794 9.6066L237.351 8.776L237.908 7.94541C236.698 7.13388 234.789 6.04352 233.633 5.51051L233.214 6.41858ZM237.351 8.776L236.794 9.6066C237.911 10.3556 239.618 11.7768 240.547 12.7284L241.262 12.0299L241.978 11.3314C240.953 10.281 239.14 8.77131 237.908 7.94541L237.351 8.776ZM241.262 12.0299L240.547 12.7283C241.485 13.6896 242.797 15.3011 243.439 16.2706L244.273 15.7184L245.107 15.1662C244.388 14.0805 242.994 12.3722 241.978 11.3315L241.262 12.0299ZM244.273 15.7184L243.439 16.2706C244.08 17.2376 244.959 18.945 245.367 20.0132L246.301 19.6559L247.235 19.2985C246.774 18.0925 245.828 16.2545 245.107 15.1662L244.273 15.7184ZM246.301 19.6559L245.367 20.0132C245.777 21.083 246.311 23.0624 246.539 24.3662L247.524 24.194L248.509 24.0217C248.262 22.6082 247.696 20.503 247.235 19.2985L246.301 19.6559ZM247.524 24.194L246.539 24.3667C246.838 26.0732 246.913 27.5427 246.808 29.8201L247.807 29.8658L248.806 29.9116C248.915 27.5287 248.84 25.9073 248.509 24.0213L247.524 24.194ZM247.807 29.8658L246.808 29.8189C246.727 31.5571 246.463 33.702 246.245 34.5573L247.214 34.8043L248.183 35.0513C248.451 34.0008 248.722 31.6981 248.806 29.9128L247.807 29.8658ZM247.214 34.8043L246.246 34.5554C246.021 35.4286 245.339 37.2272 244.732 38.5161L245.637 38.942L246.542 39.3679C247.179 38.0144 247.916 36.0914 248.183 35.0533L247.214 34.8043ZM245.637 38.942L244.732 38.5161C244.132 39.7927 243.11 41.5321 242.499 42.3451L243.298 42.9459L244.098 43.5467C244.811 42.5981 245.899 40.7339 246.542 39.3679L245.637 38.942ZM243.298 42.9459L242.5 42.3436C241.874 43.1736 240.667 44.4975 239.846 45.2477L240.52 45.986L241.195 46.7242C242.103 45.8943 243.394 44.4799 244.097 43.5483L243.298 42.9459ZM240.52 45.986L239.843 45.2498C239.014 46.012 237.627 47.1149 236.791 47.6799L237.351 48.5084L237.911 49.337C238.837 48.7114 240.301 47.5455 241.197 46.7221L240.52 45.986ZM237.351 48.5084L236.793 47.6787C235.965 48.2355 234.211 49.2096 232.921 49.8165L233.347 50.7213L233.773 51.6261C235.126 50.9891 236.975 49.9666 237.909 49.3382L237.351 48.5084ZM233.347 50.7213L232.92 49.8172C231.644 50.4201 229.532 51.2231 228.263 51.5922L228.542 52.5524L228.822 53.5126C230.196 53.1129 232.407 52.2717 233.775 51.6254L233.347 50.7213ZM228.542 52.5524L228.263 51.5922C226.986 51.9637 224.805 52.4406 223.453 52.6479L223.604 53.6364L223.755 54.6248C225.19 54.405 227.456 53.9098 228.822 53.5126L228.542 52.5524ZM223.604 53.6364L223.454 52.6477C222.599 52.7774 221.331 52.8711 217.489 52.9309C213.663 52.9903 207.332 53.0161 196.388 53.0219L196.388 54.0219L196.389 55.0219C207.33 55.0161 213.676 54.9904 217.521 54.9306C221.35 54.8711 222.747 54.7778 223.754 54.625L223.604 53.6364ZM192.377 50.0194L193.377 50.0202L193.394 28.5082L192.394 28.5074L191.394 28.5066L191.377 50.0186L192.377 50.0194ZM192.394 28.5074L193.394 28.5084L193.415 7.02414L192.415 7.02318L191.415 7.02223L191.394 28.5065L192.394 28.5074ZM196.448 3.02714L196.439 4.02711L207.268 4.11679L207.276 3.11682L207.284 2.11686L196.456 2.02718L196.448 3.02714ZM21.8032 7.12561L21.8141 6.12567C17.6502 6.08044 15.3638 6.0638 13.992 6.12029C12.5777 6.17853 12.0116 6.31875 11.3325 6.63123L11.7505 7.53967L12.1685 8.44811C12.5277 8.28282 12.8106 8.17063 14.0743 8.1186C15.3806 8.06481 17.6015 8.08003 21.7924 8.12555L21.8032 7.12561ZM11.7505 7.53967L11.3337 6.63067C10.9306 6.81547 10.5116 7.09532 10.1531 7.38584C9.79869 7.6731 9.44046 8.02184 9.19494 8.37384L10.0151 8.94592L10.8353 9.51801C10.9342 9.37621 11.1381 9.16194 11.4124 8.93959C11.6828 8.72049 11.9591 8.54411 12.1673 8.44868L11.7505 7.53967ZM10.0151 8.94592L9.19393 8.37529C9.0375 8.60041 8.85575 8.86504 8.7206 9.23086C8.58851 9.58838 8.51943 9.98799 8.47646 10.4958C8.39262 11.4866 8.39111 13.1623 8.39111 16.3004H9.39111H10.3911C10.3911 13.1068 10.3946 11.5471 10.4693 10.6644C10.5056 10.2356 10.5542 10.0389 10.5967 9.92398C10.6361 9.81732 10.6858 9.73321 10.8363 9.51655L10.0151 8.94592ZM9.39111 16.3004H8.39111C8.39111 19.3289 8.39766 21.0016 8.47371 21.9999C8.51215 22.5045 8.57218 22.9039 8.68482 23.2488C8.80641 23.6212 8.97184 23.8761 9.13336 24.0972L9.94092 23.5074L10.7485 22.9177C10.6497 22.7825 10.6163 22.7207 10.586 22.628C10.5468 22.5078 10.5019 22.2936 10.4679 21.848C10.3992 20.9458 10.3911 19.3713 10.3911 16.3004H9.39111ZM9.94092 23.5074L9.13538 24.1C9.5426 24.6536 10.3315 25.2955 10.9577 25.6119L11.4087 24.7194L11.8597 23.8268C11.4823 23.6361 10.9479 23.1887 10.7465 22.9149L9.94092 23.5074ZM11.4087 24.7194L10.9596 25.6128C11.3428 25.8055 11.9537 25.964 12.5435 26.0846C13.1692 26.2126 13.8945 26.3215 14.5767 26.3824L14.6655 25.3864L14.7544 24.3903C14.1499 24.3364 13.499 24.2386 12.9441 24.1252C12.3533 24.0044 11.9791 23.8869 11.8578 23.8259L11.4087 24.7194ZM14.6655 25.3864L14.5765 26.3824C15.1926 26.4375 15.7378 26.5152 16.1149 26.592C16.3094 26.6316 16.4267 26.6645 16.4789 26.6832C16.5115 26.6949 16.4746 26.6855 16.4114 26.6448C16.3803 26.6248 16.3003 26.5705 16.2187 26.4721C16.1367 26.3732 16.0005 26.1639 16.0005 25.8619H17.0005H18.0005C18.0005 25.5416 17.8561 25.3134 17.7581 25.1953C17.6604 25.0775 17.5566 25.0034 17.4943 24.9633C17.3685 24.8823 17.2394 24.8312 17.1535 24.8005C16.9684 24.7341 16.7428 24.6788 16.514 24.6323C16.0446 24.5366 15.4223 24.45 14.7546 24.3903L14.6655 25.3864ZM17.0005 25.8619L16.0005 25.8612C16.0007 25.5868 16.1146 25.3949 16.1764 25.3087C16.2412 25.2184 16.3051 25.1648 16.3307 25.1443C16.3823 25.1031 16.4115 25.0921 16.381 25.1073C16.3302 25.1325 16.219 25.1786 16.0365 25.2394C15.6817 25.3577 15.1689 25.4954 14.5895 25.618L14.7964 26.5963L15.0033 27.5747C15.6356 27.441 16.2247 27.2849 16.6691 27.1368C16.8861 27.0644 17.0987 26.9841 17.2719 26.8979C17.3534 26.8573 17.4696 26.7944 17.5802 26.706C17.6353 26.6619 17.7217 26.5858 17.8016 26.4744C17.8786 26.3671 18.0003 26.1555 18.0005 25.8627L17.0005 25.8619ZM14.7964 26.5963L14.5877 25.6183C13.924 25.7599 13.2226 25.9613 12.6086 26.1783C12.0169 26.3874 11.4279 26.638 11.0379 26.8985L11.5933 27.7301L12.1486 28.5617C12.3221 28.4458 12.7155 28.2617 13.275 28.064C13.8121 27.8742 14.4305 27.6969 15.0051 27.5743L14.7964 26.5963ZM11.5933 27.7301L11.0367 26.8993C10.3418 27.3648 9.51209 28.3016 9.10818 29.0635L9.9917 29.5319L10.8752 30.0003C11.1335 29.513 11.7452 28.8319 12.1498 28.5609L11.5933 27.7301ZM9.9917 29.5319L9.10776 29.0643C8.95483 29.3534 8.80168 29.6543 8.68781 30.0637C8.57746 30.4604 8.51475 30.9176 8.47432 31.5364C8.39452 32.7574 8.39111 34.8222 8.39111 38.7203H9.39111H10.3911C10.3911 34.7813 10.3957 32.8045 10.4701 31.6668C10.5067 31.1062 10.5576 30.8048 10.6147 30.5997C10.6682 30.4072 10.7363 30.2629 10.8756 29.9995L9.9917 29.5319ZM9.39111 38.7203H8.39111V45.1778H9.39111H10.3911V38.7203H9.39111ZM10.5648 47.8514L9.95939 48.6473C10.4711 49.0365 10.9372 49.284 11.3764 49.4137L11.6597 48.4547L11.9429 47.4957C11.7975 47.4527 11.5468 47.3419 11.1702 47.0555L10.5648 47.8514ZM11.6597 48.4547L11.3766 49.4138C11.5484 49.4645 11.7568 49.4919 11.939 49.5108C12.1414 49.5318 12.3899 49.5496 12.6781 49.5648C13.2559 49.5952 14.0286 49.6173 14.9813 49.6312C16.8886 49.6592 19.5497 49.6551 22.8818 49.6177L22.8706 48.6178L22.8594 47.6179C19.5343 47.6552 16.8929 47.659 15.0106 47.6315C14.0684 47.6177 13.3245 47.5961 12.7835 47.5675C12.5125 47.5532 12.3011 47.5376 12.1456 47.5215C11.9699 47.5032 11.9224 47.4896 11.9427 47.4956L11.6597 48.4547ZM22.8706 48.6178L22.8815 49.6177C32.1197 49.517 33.4445 49.4627 35.4128 48.9264L35.1499 47.9615L34.887 46.9967C33.2304 47.4481 32.2321 47.5157 22.8597 47.6179L22.8706 48.6178ZM35.1499 47.9615L35.4144 48.9259C36.5531 48.6136 38.1222 48.0485 38.9327 47.6447L38.4868 46.7496L38.0409 45.8546C37.3834 46.1821 35.9462 46.7062 34.8854 46.9972L35.1499 47.9615ZM38.4868 46.7496L38.9354 47.6434C39.7715 47.2237 40.896 46.3855 41.5037 45.7218L40.7661 45.0465L40.0285 44.3713C39.5953 44.8445 38.6702 45.5387 38.0382 45.8559L38.4868 46.7496ZM40.7661 45.0465L41.5037 45.7218C42.0972 45.0735 42.8995 43.8691 43.3369 42.9916L42.4419 42.5455L41.5469 42.0994C41.178 42.8395 40.4759 43.8826 40.0285 44.3713L40.7661 45.0465ZM42.4419 42.5455L43.3381 42.9892C43.7798 42.097 44.2396 40.6773 44.3739 39.7527L43.3843 39.609L42.3947 39.4653C42.294 40.1583 41.9048 41.3765 41.5457 42.1019L42.4419 42.5455ZM43.3843 39.609L44.3739 39.7527C44.5065 38.8397 44.5006 37.2786 44.3721 36.2191L43.3794 36.3395L42.3867 36.4598C42.4983 37.381 42.4969 38.7609 42.3947 39.4653L43.3843 39.609ZM43.3794 36.3395L44.3718 36.2164C44.2383 35.14 43.8192 33.5936 43.4075 32.7121L42.5015 33.1354L41.5954 33.5586C41.9044 34.2201 42.2749 35.5583 42.387 36.4625L43.3794 36.3395ZM42.5015 33.1354L43.4075 32.7121C43.0019 31.8439 42.1859 30.6536 41.5496 29.9989L40.8325 30.6959L40.1154 31.3929C40.5895 31.8806 41.2803 32.884 41.5955 33.5586L42.5015 33.1354ZM40.8325 30.6959L41.5496 29.9989C40.9508 29.3829 39.9818 28.5757 39.3506 28.1804L38.8198 29.028L38.2891 29.8755C38.7575 30.1688 39.6037 30.8665 40.1155 31.3929L40.8325 30.6959ZM38.8198 29.028L39.3535 28.1823C38.7393 27.7947 37.5998 27.2338 36.7844 26.9122L36.4175 27.8424L36.0505 28.7726C36.778 29.0596 37.8005 29.5672 38.2862 29.8736L38.8198 29.028ZM36.4175 27.8424L36.786 26.9128C36.2271 26.6912 35.3867 26.4948 34.3559 26.3138C33.3057 26.1294 31.9937 25.9506 30.4547 25.781L30.3452 26.775L30.2357 27.769C31.75 27.9358 33.0164 28.1092 34.01 28.2836C35.0231 28.4615 35.6922 28.6306 36.049 28.772L36.4175 27.8424ZM30.3452 26.775L30.4546 25.781C29.1684 25.6395 27.9764 25.5104 27.0916 25.4167C26.6494 25.3698 26.2828 25.3317 26.0191 25.3052C25.8875 25.292 25.7795 25.2814 25.6998 25.2741C25.652 25.2697 25.5452 25.2594 25.4731 25.2594V26.2594V27.2594C25.4285 27.2594 25.4141 27.2563 25.5172 27.2658C25.5883 27.2723 25.6896 27.2821 25.8191 27.2952C26.0775 27.3211 26.4401 27.3588 26.8809 27.4055C27.7622 27.4989 28.9514 27.6276 30.2358 27.769L30.3452 26.775ZM25.4731 26.2594L25.4513 25.2596C25.721 25.2537 25.9232 25.3661 26.0388 25.4633C26.1479 25.5548 26.2021 25.648 26.2254 25.6942C26.272 25.7868 26.2729 25.8465 26.2729 25.8619L25.2729 25.8619L24.2729 25.862C24.273 26.0961 24.3194 26.3557 24.4387 26.593C24.5238 26.7621 24.8388 27.2735 25.495 27.2592L25.4731 26.2594ZM25.2729 25.8619H26.2729C26.2729 25.9668 26.2495 26.0966 26.1801 26.2259C26.1127 26.3513 26.0274 26.4289 25.9703 26.4702C25.8815 26.5343 25.8458 26.5216 25.9968 26.4876C26.2802 26.4238 26.818 26.3665 27.8056 26.3043L27.7427 25.3063L27.6798 24.3083C26.7188 24.3688 26.0216 24.4319 25.5574 24.5365C25.3345 24.5867 25.0467 24.6702 24.7994 24.8488C24.4849 25.0759 24.2729 25.4323 24.2729 25.8619H25.2729ZM27.7427 25.3063L27.8054 26.3043C29.1815 26.2178 31.1556 26.0321 32.2109 25.8923L32.0796 24.901L31.9483 23.9097C30.9481 24.0421 29.0209 24.2239 27.6799 24.3082L27.7427 25.3063ZM32.0796 24.901L32.2109 25.8923C33.2805 25.7507 34.7826 25.4332 35.5874 25.1757L35.2827 24.2233L34.978 23.2708C34.3144 23.4831 32.9336 23.7791 31.9483 23.9097L32.0796 24.901ZM35.2827 24.2233L35.5906 25.1747C36.3869 24.917 37.4535 24.4196 38.0066 24.0174L37.4185 23.2086L36.8303 22.3998C36.5024 22.6383 35.6466 23.0544 34.9748 23.2719L35.2827 24.2233ZM37.4185 23.2086L38.0098 24.015C38.3426 23.771 38.6853 23.3898 38.9714 23.0192C39.2685 22.6344 39.5615 22.1865 39.779 21.7577L38.8872 21.3053L37.9954 20.8528C37.8446 21.1502 37.6234 21.4924 37.3883 21.7971C37.1422 22.1158 36.9347 22.3233 36.8271 22.4022L37.4185 23.2086ZM38.8872 21.3053L39.7792 21.7573C40.1069 21.1105 40.3251 20.5947 40.4378 19.8086C40.541 19.0887 40.5542 18.147 40.5542 16.653L39.5542 16.653L38.5542 16.653C38.5542 18.1882 38.5368 18.9748 38.458 19.5248C38.3886 20.0087 38.2733 20.3044 37.9952 20.8533L38.8872 21.3053ZM39.5542 16.653H40.5542C40.5542 15.2207 40.537 14.2853 40.4469 13.5864C40.3492 12.8279 40.1646 12.3341 39.8683 11.7782L38.9858 12.2487L38.1034 12.7191C38.3007 13.0893 38.4003 13.3524 38.4633 13.8419C38.5341 14.391 38.5542 15.1947 38.5542 16.653H39.5542ZM38.9858 12.2487L39.8687 11.7791C39.4883 11.0637 38.6255 10.021 37.9196 9.3854L37.2505 10.1285L36.5814 10.8717C37.1621 11.3946 37.8588 12.2591 38.1029 12.7182L38.9858 12.2487ZM37.2505 10.1285L37.9211 9.38676C37.2255 8.75782 36.1293 8.00468 35.4161 7.69345L35.0161 8.60999L34.6162 9.52652C35.0773 9.72776 35.9942 10.3408 36.5798 10.8703L37.2505 10.1285ZM35.0161 8.60999L35.4195 7.69497C34.7762 7.41136 33.5284 6.98091 32.6211 6.72247L32.3472 7.6842L32.0732 8.64594C32.9275 8.88932 34.0815 9.29082 34.6127 9.525L35.0161 8.60999ZM32.3472 7.6842L32.6221 6.72275C31.1235 6.29415 29.1827 6.20757 21.8143 6.12567L21.8032 7.12561L21.7921 8.12555C29.313 8.20915 30.9015 8.31083 32.0722 8.64566L32.3472 7.6842ZM204.652 47.8798L204.654 48.8798C214.407 48.8589 218.47 48.7511 219.833 48.6148L219.734 47.6198L219.634 46.6247C218.392 46.7489 214.45 46.8588 204.65 46.8798L204.652 47.8798ZM219.734 47.6198L219.833 48.6148C221.34 48.4641 223.55 48.097 224.779 47.7926L224.539 46.8219L224.298 45.8512C223.178 46.1287 221.064 46.4818 219.634 46.6247L219.734 47.6198ZM224.539 46.8219L224.781 47.792C226.047 47.4756 228.337 46.5819 229.919 45.8018L229.477 44.9049L229.035 44.008C227.531 44.7494 225.379 45.581 224.296 45.8518L224.539 46.8219ZM229.477 44.9049L229.919 45.8018C231.114 45.2127 231.958 44.7541 232.741 44.1938C233.525 43.6325 234.217 42.9915 235.131 42.0698L234.42 41.3658L233.71 40.6619C232.82 41.5604 232.222 42.1057 231.577 42.5673C230.931 43.0299 230.205 43.4308 229.035 44.0081L229.477 44.9049ZM234.42 41.3658L235.13 42.0709C236.584 40.6086 237.724 39.1539 238.432 37.8053L237.546 37.3405L236.661 36.8756C236.077 37.988 235.081 39.2831 233.711 40.6607L234.42 41.3658ZM237.546 37.3405L238.432 37.8051C239.009 36.7059 239.724 34.8304 240.044 33.5843L239.076 33.3356L238.107 33.0868C237.824 34.1897 237.163 35.9196 236.661 36.8758L237.546 37.3405ZM239.076 33.3356L240.044 33.5845C240.43 32.0827 240.626 30.4361 240.624 28.7294L239.624 28.7311L238.624 28.7327C238.626 30.2876 238.447 31.7645 238.107 33.0866L239.076 33.3356ZM239.624 28.7311L240.624 28.7311C240.624 27.3149 240.423 25.2612 240.173 24.1137L239.196 24.3268L238.219 24.5398C238.433 25.5222 238.624 27.4299 238.624 28.7311L239.624 28.7311ZM239.196 24.3268L240.172 24.1114C239.92 22.9683 239.299 21.1837 238.77 20.0881L237.87 20.5231L236.969 20.9581C237.433 21.9176 238.002 23.5551 238.219 24.5422L239.196 24.3268ZM237.87 20.5231L238.771 20.09C238.241 18.9874 237.213 17.4043 236.447 16.519L235.691 17.1735L234.935 17.8279C235.578 18.5709 236.51 20.0033 236.968 20.9562L237.87 20.5231ZM235.691 17.1735L236.449 16.5216C235.714 15.6663 234.499 14.4654 233.714 13.8233L233.081 14.5973L232.447 15.3712C233.131 15.9303 234.264 17.047 234.933 17.8253L235.691 17.1735ZM233.081 14.5973L233.714 13.8233C232.925 13.1781 231.492 12.2282 230.49 11.682L230.011 12.5602L229.533 13.4384C230.441 13.9332 231.768 14.8153 232.447 15.3713L233.081 14.5973ZM230.011 12.5602L230.49 11.682C229.48 11.1319 227.744 10.3807 226.594 9.99254L226.274 10.9401L225.954 11.8876C227.003 12.2415 228.632 12.9475 229.533 13.4384L230.011 12.5602ZM226.274 10.9401L226.593 9.9923C225.424 9.59874 223.264 9.09927 221.753 8.86852L221.602 9.85706L221.451 10.8456C222.876 11.0633 224.919 11.5393 225.955 11.8878L226.274 10.9401ZM221.602 9.85706L221.754 8.86861C219.662 8.54787 216.625 8.44788 209.791 8.44788V9.44788V10.4479C216.665 10.4479 219.539 10.5524 221.451 10.8455L221.602 9.85706ZM209.791 9.44788L209.791 8.44788L204.649 8.44678L204.649 9.44678L204.649 10.4468L209.79 10.4479L209.791 9.44788ZM200.648 13.4468H199.648V43.8843H200.648H201.648V13.4468H200.648ZM20.4019 34.2809L20.6509 35.2494C21.059 35.1444 22.051 35.078 22.7949 35.1345L22.8706 34.1373L22.9463 33.1402C22.0729 33.0739 20.8446 33.1345 20.1528 33.3124L20.4019 34.2809ZM22.8706 34.1373L22.7916 35.1342C23.5119 35.1913 24.7474 35.4525 25.4797 35.7062L25.8071 34.7614L26.1346 33.8165C25.2493 33.5097 23.847 33.2115 22.9496 33.1404L22.8706 34.1373ZM25.8071 34.7614L25.4797 35.7062C26.3481 36.0071 29.2225 36.7477 31.8552 37.354L32.0796 36.3795L32.304 35.405C29.6518 34.7942 26.884 34.0762 26.1345 33.8165L25.8071 34.7614ZM32.0796 36.3795L31.8542 37.3538C34.5101 37.9681 37.2266 38.6494 37.9113 38.871L38.2192 37.9196L38.5271 36.9681C37.7436 36.7146 34.9342 36.0134 32.305 35.4052L32.0796 36.3795ZM38.2192 37.9196L37.9145 38.872C38.6126 39.0954 39.6148 39.4932 40.108 39.7398L40.5552 38.8453L41.0024 37.9509C40.3958 37.6476 39.294 37.2135 38.524 36.9671L38.2192 37.9196ZM40.5552 38.8453L40.1096 39.7406C40.3391 39.8548 40.4973 39.9712 40.5809 40.0522C40.6227 40.0928 40.6258 40.1051 40.6133 40.0834C40.6039 40.0673 40.5452 39.9625 40.5485 39.79L41.5483 39.8092L42.5482 39.8284C42.5593 39.2491 42.1869 38.8236 41.973 38.6163C41.7076 38.3589 41.3665 38.1321 41.0008 37.9501L40.5552 38.8453ZM41.5483 39.8092L40.5486 39.7883C40.5507 39.6867 40.5723 39.6642 40.5272 39.8011C40.4941 39.9013 40.4414 40.0395 40.3693 40.2089C40.2258 40.5461 40.0246 40.9625 39.8026 41.3689L40.6802 41.8483L41.5578 42.3277C41.8082 41.8693 42.0384 41.3943 42.2095 40.9921C42.2948 40.7919 42.3701 40.5985 42.4265 40.4276C42.4708 40.2932 42.5433 40.0598 42.5481 39.8301L41.5483 39.8092ZM40.6802 41.8483L39.8026 41.3688C39.3724 42.1564 38.5721 43.191 38.0882 43.6221L38.7534 44.3688L39.4186 45.1154C40.1092 44.5002 41.0431 43.2699 41.5578 42.3277L40.6802 41.8483ZM38.7534 44.3688L38.0901 43.6204C37.5896 44.064 36.4734 44.7781 35.6584 45.1609L36.0835 46.066L36.5086 46.9712C37.4552 46.5266 38.7426 45.7146 39.4167 45.1171L38.7534 44.3688ZM36.0835 46.066L35.6607 45.1598C34.8545 45.536 33.4996 45.9637 32.716 46.0943L32.8804 47.0807L33.0448 48.0671C34.0226 47.9041 35.5507 47.4181 36.5063 46.9722L36.0835 46.066ZM32.8804 47.0807L32.7162 46.0943C32.3622 46.1532 31.0212 46.2202 29.0384 46.2693C27.1006 46.3174 24.6433 46.3473 22.1362 46.3473V47.3473V48.3473C24.6574 48.3473 27.1314 48.3173 29.088 48.2687C30.9998 48.2213 32.5166 48.155 33.0446 48.0671L32.8804 47.0807ZM22.1362 47.3473L22.1358 46.3473C18.75 46.3486 16.435 46.3279 14.9066 46.2764C14.1408 46.2506 13.5898 46.2177 13.2079 46.1783C12.7712 46.1333 12.6914 46.0905 12.7477 46.1181L12.3081 47.0162L11.8685 47.9144C12.1784 48.0661 12.6074 48.127 13.0029 48.1678C13.4532 48.2142 14.0579 48.249 14.8393 48.2753C16.4052 48.328 18.7507 48.3486 22.1366 48.3473L22.1362 47.3473ZM12.3081 47.0162L12.7478 46.1181C12.7134 46.1013 12.6311 46.0435 12.5467 45.9427C12.5083 45.8968 12.4794 45.8538 12.4606 45.8195C12.4406 45.783 12.4404 45.7722 12.4444 45.7894L11.4702 46.0153L10.4961 46.2411C10.5856 46.6274 10.7989 46.9707 11.0135 47.2269C11.2325 47.4884 11.5264 47.747 11.8685 47.9144L12.3081 47.0162ZM11.4702 46.0153L12.444 45.7879C12.4446 45.7904 12.4403 45.7714 12.4343 45.7222C12.4287 45.6761 12.423 45.6158 12.4179 45.5411C12.4077 45.3913 12.401 45.2025 12.3989 44.9857C12.3947 44.5524 12.4092 44.0364 12.4434 43.5491L11.4458 43.4791L10.4483 43.4092C10.4104 43.9495 10.3943 44.5187 10.399 45.005C10.4033 45.4533 10.425 45.9369 10.4964 46.2426L11.4702 46.0153ZM11.4458 43.4791L12.4434 43.5479C12.4758 43.0778 12.5537 42.5563 12.6544 42.0948C12.76 41.6112 12.8729 41.2764 12.946 41.1345L12.0571 40.6764L11.1682 40.2183C10.9718 40.5995 10.8151 41.1429 10.7004 41.6683C10.5809 42.2159 10.4879 42.8342 10.4482 43.4104L11.4458 43.4791ZM12.0571 40.6764L12.945 41.1366C13.0281 40.9761 13.2753 40.6198 13.6577 40.1439C14.0233 39.6888 14.4658 39.1818 14.8928 38.7371L14.1714 38.0446L13.45 37.352C12.9802 37.8414 12.4991 38.3928 12.0986 38.8912C11.7148 39.3689 11.3532 39.8614 11.1693 40.2162L12.0571 40.6764ZM14.1714 38.0446L14.8931 38.7368C15.8923 37.6949 16.9831 36.8717 18.0488 36.3352L17.5991 35.442L17.1495 34.5488C15.8502 35.2028 14.5805 36.1734 13.4497 37.3523L14.1714 38.0446ZM17.5991 35.442L18.0473 36.336C19.0221 35.8473 20.2076 35.3634 20.651 35.2493L20.4019 34.2809L20.1527 33.3124C19.4965 33.4813 18.1567 34.0439 17.151 34.5481L17.5991 35.442ZM86.3872 10.775L86.2052 9.79173C85.9674 9.83575 85.813 9.95441 85.7743 9.98425C85.7138 10.0308 85.6713 10.0747 85.6501 10.0973C85.6065 10.144 85.5754 10.1861 85.5619 10.2048C85.5312 10.247 85.5048 10.289 85.4875 10.317C85.4498 10.3783 85.4053 10.4561 85.3577 10.5415C85.2606 10.7158 85.127 10.9647 84.963 11.2758C84.6339 11.9001 84.1706 12.7973 83.6077 13.8993C82.4814 16.1044 80.9507 19.1408 79.2862 22.4792L80.1812 22.9254L81.0761 23.3716C82.7386 20.0372 84.2662 17.0068 85.3888 14.809C85.9504 13.7096 86.4091 12.8214 86.7322 12.2085C86.8943 11.901 87.0193 11.6685 87.1049 11.5149C87.1486 11.4363 87.1765 11.3886 87.1911 11.3648C87.2 11.3503 87.1948 11.3598 87.1801 11.38C87.1746 11.3876 87.1502 11.4213 87.1119 11.4623C87.0935 11.482 87.0533 11.5236 86.9949 11.5686C86.9583 11.5968 86.8056 11.7146 86.5692 11.7583L86.3872 10.775ZM80.1812 22.9254L79.2864 22.4789C77.6185 25.8214 76.1022 28.8907 75.0025 31.1438C74.4528 32.2698 74.006 33.1944 73.696 33.8481C73.5414 34.1741 73.4186 34.4374 73.3335 34.6261C73.2915 34.7193 73.2552 34.8022 73.228 34.8685C73.2149 34.9003 73.1992 34.9396 73.1853 34.9796C73.1786 34.9988 73.1679 35.0306 73.1577 35.0686C73.1546 35.0801 73.1216 35.194 73.1216 35.3385H74.1216H75.1216C75.1216 35.4784 75.0899 35.585 75.0894 35.5867C75.0819 35.6148 75.0752 35.6341 75.0737 35.6383C75.0703 35.6481 75.0704 35.6469 75.0781 35.6281C75.0924 35.5932 75.1179 35.5345 75.1569 35.4479C75.2339 35.277 75.3501 35.0277 75.5031 34.7051C75.8083 34.0615 76.2513 33.1447 76.7998 32.0211C77.8963 29.7746 79.4099 26.7107 81.0759 23.3719L80.1812 22.9254ZM74.1216 35.3385L73.1225 35.3813C73.1456 35.9201 73.5513 36.1696 73.6107 36.2062C73.7274 36.278 73.8355 36.3127 73.8827 36.327C73.9905 36.3597 74.1009 36.378 74.1809 36.3895C74.3548 36.4145 74.5858 36.4343 74.8554 36.4513C75.403 36.4857 76.2042 36.514 77.2419 36.5365C79.3217 36.5818 82.3983 36.6051 86.4009 36.6051V35.6051V34.6051C82.4024 34.6051 79.3431 34.5818 77.2854 34.537C76.2543 34.5146 75.4863 34.487 74.981 34.4552C74.7241 34.439 74.5577 34.4231 74.4654 34.4099C74.4123 34.4022 74.4224 34.4008 74.4629 34.4131C74.4764 34.4171 74.5592 34.4415 74.6588 34.5028C74.7012 34.5289 75.0981 34.7677 75.1207 35.2957L74.1216 35.3385ZM86.4009 35.6051V36.6051C89.7799 36.6051 92.8536 36.5824 95.0852 36.5459C96.2 36.5277 97.1101 36.5059 97.7448 36.4816C98.06 36.4695 98.3186 36.4564 98.5038 36.4418C98.5923 36.4349 98.6866 36.4259 98.7685 36.413C98.8028 36.4076 98.8772 36.3952 98.9598 36.3693C98.9945 36.3585 99.0912 36.3272 99.1991 36.2604C99.2433 36.2331 99.6542 35.9866 99.6764 35.446L98.6772 35.4049L97.6781 35.3638C97.7002 34.8267 98.1082 34.5835 98.1469 34.5596C98.2493 34.4962 98.3379 34.4683 98.3617 34.4609C98.3976 34.4496 98.4246 34.4437 98.4353 34.4415C98.448 34.4388 98.4559 34.4376 98.4571 34.4374C98.4589 34.4371 98.451 34.4383 98.4295 34.4406C98.4092 34.4427 98.3819 34.4452 98.3469 34.448C98.2029 34.4593 97.9767 34.4712 97.6682 34.4831C97.0554 34.5065 96.1625 34.528 95.0525 34.5462C92.8348 34.5824 89.7725 34.6051 86.4009 34.6051V35.6051ZM98.6772 35.4049L99.6769 35.3805C99.6744 35.2774 99.6561 35.198 99.6508 35.1752C99.6428 35.1409 99.6345 35.1133 99.6295 35.0972C99.6193 35.0645 99.6091 35.0371 99.603 35.0214C99.5902 34.9879 99.5758 34.9537 99.5633 34.9248C99.5373 34.8645 99.502 34.7865 99.4602 34.696C99.3756 34.5131 99.2532 34.2545 99.0982 33.9311C98.7877 33.2831 98.34 32.3614 97.7892 31.2351C96.6872 28.9818 95.1686 25.9028 93.4996 22.5421L92.604 22.9869L91.7084 23.4317C93.3761 26.7898 94.8928 29.8651 95.9926 32.1137C96.5426 33.2384 96.9875 34.1546 97.2946 34.7954C97.4484 35.1164 97.5661 35.365 97.6446 35.5349C97.6843 35.6209 97.7113 35.6808 97.7272 35.7177C97.7357 35.7374 97.7372 35.7416 97.7351 35.7361C97.7344 35.7343 97.7282 35.7183 97.7208 35.6944C97.7171 35.6826 97.7098 35.6587 97.7026 35.6274C97.698 35.6077 97.68 35.5307 97.6775 35.4293L98.6772 35.4049ZM92.604 22.9869L93.4996 22.542C91.8289 19.1794 90.2932 16.122 89.1646 13.9049C88.6005 12.7968 88.1367 11.8957 87.8079 11.2704C87.6441 10.9588 87.5108 10.7098 87.4141 10.5362C87.3669 10.4514 87.3222 10.3733 87.2843 10.3118C87.2673 10.2843 87.2393 10.24 87.206 10.1951C87.1921 10.1764 87.1554 10.1274 87.1023 10.074C87.0775 10.049 87.0211 9.99424 86.9384 9.93996C86.8874 9.90649 86.6559 9.75489 86.3207 9.77724L86.3872 10.775L86.4537 11.7728C86.1198 11.7951 85.8898 11.6441 85.8408 11.6119C85.76 11.5588 85.7058 11.506 85.6835 11.4836C85.6356 11.4353 85.6053 11.3942 85.5992 11.386C85.5814 11.3619 85.5741 11.349 85.5828 11.3631C85.5962 11.3848 85.6231 11.4308 85.6666 11.5089C85.7513 11.6611 85.8757 11.8931 86.0376 12.201C86.3603 12.8147 86.8195 13.7067 87.3822 14.8122C88.5071 17.0219 90.0398 20.0732 91.7084 23.4319L92.604 22.9869ZM26.6079 15.1237L26.5532 16.1222C27.7033 16.1852 28.512 16.4037 30.0525 17.1282L30.478 16.2233L30.9036 15.3183C29.2091 14.5214 28.1443 14.2063 26.6626 14.1252L26.6079 15.1237ZM30.478 16.2233L30.0523 17.1281C31.1822 17.6597 32.8095 18.5991 33.632 19.1898L34.2153 18.3776L34.7987 17.5653C33.8594 16.8908 32.1228 15.8919 30.9037 15.3184L30.478 16.2233ZM34.2153 18.3776L33.632 19.1898C34.0535 19.4925 34.4883 19.8293 34.8456 20.1252C35.2275 20.4413 35.4536 20.656 35.5136 20.7284L36.2837 20.0905L37.0538 19.4525C36.857 19.215 36.4892 18.8894 36.1211 18.5847C35.7286 18.2597 35.2576 17.8949 34.7987 17.5653L34.2153 18.3776ZM36.2837 20.0905L35.5124 20.7269C35.5693 20.7958 35.6073 20.8428 35.6356 20.8799C35.665 20.9185 35.667 20.9249 35.6591 20.9108C35.6515 20.8972 35.6137 20.8284 35.5941 20.718C35.5719 20.5922 35.5799 20.4497 35.6298 20.3121C35.6749 20.1874 35.7381 20.112 35.7627 20.0852C35.7862 20.0595 35.7944 20.0567 35.7637 20.0798C35.7351 20.1014 35.69 20.1326 35.6186 20.1788C35.5481 20.2243 35.4636 20.2769 35.3582 20.342L35.8833 21.193L36.4085 22.044C36.6083 21.9207 36.8103 21.7955 36.9674 21.6771C37.0978 21.5788 37.3776 21.3593 37.5102 20.9933C37.6767 20.5337 37.5215 20.1429 37.4033 19.9322C37.301 19.7498 37.152 19.5716 37.055 19.454L36.2837 20.0905ZM35.8833 21.193L35.3563 20.3431C34.9545 20.5923 34.2334 20.9102 33.8167 21.0246L34.0815 21.9889L34.3464 22.9532C34.9599 22.7847 35.8565 22.3862 36.4103 22.0429L35.8833 21.193ZM34.0815 21.9889L33.817 21.0245C33.6328 21.0751 33.0474 21.1771 32.1827 21.2999C31.3481 21.4184 30.3205 21.5471 29.3035 21.6568L29.4106 22.651L29.5178 23.6452C30.5557 23.5334 31.6056 23.4018 32.4638 23.28C33.2918 23.1625 34.0145 23.0442 34.3461 22.9533L34.0815 21.9889ZM29.4106 22.651L29.3034 21.6568C26.2166 21.9898 25.1977 22.1687 24.1158 22.8934L24.6724 23.7242L25.2289 24.5551C25.8287 24.1533 26.3211 23.9902 29.5179 23.6452L29.4106 22.651ZM24.6724 23.7242L24.1157 22.8935C23.7402 23.1451 23.3203 23.5482 22.9494 23.9577C22.5686 24.378 22.1855 24.8652 21.8929 25.3254L22.7368 25.8619L23.5807 26.3985C23.8005 26.0527 24.1102 25.6553 24.4317 25.3004C24.763 24.9346 25.0546 24.6719 25.2291 24.555L24.6724 23.7242ZM22.7368 25.8619L21.8931 25.3252C21.6395 25.7237 21.3981 26.0335 21.21 26.2298C21.1144 26.3296 21.0535 26.3779 21.0303 26.3937C21.0196 26.4011 21.0349 26.389 21.0742 26.3729C21.1098 26.3583 21.2061 26.3235 21.3451 26.3249L21.3354 27.3248L21.3258 28.3248C21.7107 28.3285 22.0112 28.1456 22.1566 28.0465C22.3354 27.9246 22.5035 27.7707 22.654 27.6136C22.9584 27.2959 23.2789 26.8729 23.5806 26.3987L22.7368 25.8619ZM21.3354 27.3248L21.3476 26.3249C21.4792 26.3265 21.5692 26.3597 21.6004 26.3724C21.6361 26.3869 21.65 26.3975 21.64 26.3909C21.6187 26.3769 21.5634 26.3345 21.4787 26.2498C21.3118 26.0829 21.1057 25.8271 20.9128 25.5224L20.0679 26.0573L19.2229 26.5921C19.4809 26.9996 19.7764 27.376 20.0645 27.664C20.2072 27.8067 20.3678 27.9476 20.5385 28.0602C20.6762 28.1511 20.9611 28.3203 21.3233 28.3248L21.3354 27.3248ZM20.0679 26.0573L20.9123 25.5216C20.284 24.5311 19.5025 23.7952 18.5061 23.3068L18.0659 24.2047L17.6258 25.1026C18.2521 25.4097 18.7681 25.8751 19.2234 26.5929L20.0679 26.0573ZM18.0659 24.2047L18.5088 23.3081C17.7065 22.9119 16.0785 22.508 14.8553 22.3524L14.729 23.3444L14.6027 24.3364C15.7285 24.4796 17.1067 24.8462 17.6231 25.1013L18.0659 24.2047ZM14.729 23.3444L14.8532 22.3521C14.1673 22.2662 13.6513 22.1677 13.2869 22.0635C12.8816 21.9477 12.8036 21.8626 12.8395 21.8991L12.1265 22.6002L11.4134 23.3013C11.7625 23.6564 12.2749 23.8544 12.7372 23.9865C13.2404 24.1303 13.869 24.2445 14.6048 24.3366L14.729 23.3444ZM12.1265 22.6002L12.8372 21.8967C12.8951 21.9552 12.8626 21.9536 12.7879 21.7508C12.7193 21.5647 12.637 21.2701 12.5494 20.8211L11.5679 21.0126L10.5864 21.2041C10.6852 21.7103 10.792 22.1185 10.9111 22.4418C11.024 22.7485 11.1776 23.0631 11.4157 23.3037L12.1265 22.6002ZM12.895 19.2926L12.9981 20.2873C14.103 20.1728 16.0331 19.5665 17.9138 18.789L17.5317 17.8649L17.1497 16.9407C15.2989 17.7059 13.5928 18.2149 12.7919 18.2979L12.895 19.2926ZM17.5317 17.8649L17.9129 18.7894C19.5957 18.0955 21.9239 17.1771 23.0823 16.7505L22.7368 15.8121L22.3913 14.8737C21.2004 15.3122 18.8467 16.241 17.1505 16.9404L17.5317 17.8649ZM22.7368 15.8121L23.0831 16.7503C23.9412 16.4336 24.487 16.2669 24.9694 16.1812C25.4376 16.0981 25.8851 16.0844 26.5515 16.1221L26.6079 15.1237L26.6643 14.1252C25.9133 14.0828 25.2968 14.0918 24.6196 14.212C23.9566 14.3298 23.2755 14.5474 22.3906 14.874L22.7368 15.8121ZM204.652 47.8798L204.65 46.8798C202.994 46.8834 201.648 45.5399 201.648 43.8843H200.648H199.648C199.648 46.6463 201.893 48.8857 204.654 48.8798L204.652 47.8798ZM11.5679 21.0126L12.5494 20.8211C12.5065 20.6012 12.6683 20.3216 12.9986 20.2872L12.895 19.2926L12.7915 18.298C11.4016 18.4427 10.2981 19.7265 10.5864 21.2041L11.5679 21.0126ZM192.415 7.02318L193.415 7.02414C193.416 5.3587 194.774 4.01332 196.439 4.02711L196.448 3.02714L196.456 2.02718C193.68 2.00419 191.417 4.24649 191.415 7.02223L192.415 7.02318ZM196.388 54.0219L196.388 53.0219C194.727 53.0227 193.375 51.6747 193.377 50.0202L192.377 50.0194L191.377 50.0186C191.375 52.7853 193.629 55.0233 196.389 55.0219L196.388 54.0219ZM62.0129 54.0231V53.0231C60.1222 53.0231 58.9007 51.0232 59.7642 49.3411L58.8745 48.8844L57.9849 48.4277C56.4383 51.4408 58.6261 55.0231 62.0129 55.0231V54.0231ZM65.8148 51.906L64.9166 51.4665C64.4504 52.4191 63.4824 53.0231 62.4219 53.0231V54.0231V55.0231C64.2461 55.0231 65.9112 53.9842 66.7131 52.3456L65.8148 51.906ZM73.4141 41.477L73.414 40.477C71.5049 40.4771 69.7625 41.5644 68.9233 43.2792L69.8215 43.7188L70.7197 44.1583C71.2232 43.1294 72.2687 42.4771 73.4141 42.477L73.4141 41.477ZM102.855 43.6869L103.75 43.2397C102.903 41.5455 101.171 40.4753 99.2769 40.4754L99.2769 41.4754L99.277 42.4754C100.413 42.4753 101.452 43.1174 101.961 44.134L102.855 43.6869ZM110.497 54.0199L110.495 53.0199C109.36 53.0231 108.319 52.3808 107.811 51.3645L106.916 51.8116L106.022 52.2587C106.869 53.953 108.604 55.0252 110.5 55.0198L110.497 54.0199ZM9.39111 45.1778H8.39111C8.39111 46.4065 8.82066 47.7811 9.95939 48.6473L10.5648 47.8514L11.1702 47.0555C10.6785 46.6814 10.3911 45.9976 10.3911 45.1778H9.39111ZM125.388 7.11079L126.388 7.1111C126.388 5.42878 127.772 4.07574 129.454 4.11274L129.476 3.11299L129.498 2.11323C126.695 2.05155 124.389 4.30661 124.388 7.11049L125.388 7.11079ZM129.374 54.0231V53.0231C127.717 53.0231 126.373 51.6793 126.374 50.022L125.374 50.0217L124.374 50.0213C124.373 52.7834 126.612 55.0231 129.374 55.0231V54.0231ZM133.662 50.0373L132.662 50.0337C132.656 51.6864 131.315 53.0231 129.662 53.0231V54.0231V55.0231C132.417 55.0231 134.652 52.7953 134.662 50.0408L133.662 50.0373ZM140.7 23.8835L141.439 23.2095C138.368 19.843 132.762 22.0047 132.745 26.5618L133.745 26.5653L134.745 26.5688C134.755 23.8346 138.119 22.5376 139.962 24.5575L140.7 23.8835ZM204.649 9.44678L204.649 8.44678C201.887 8.44619 199.648 10.6849 199.648 13.4468H200.648H201.648C201.648 11.7897 202.991 10.4464 204.649 10.4468L204.649 9.44678ZM169.987 54.0368L169.984 53.0368C169.138 53.0391 168.33 52.6839 167.76 52.0588L167.021 52.7328L166.282 53.4068C167.233 54.4487 168.579 55.0406 169.99 55.0368L169.987 54.0368ZM5.0091 54.8228L5.00857 53.8228C3.34403 53.8237 1.99253 52.4696 2 50.8104L1.00001 50.8059L1.80602e-05 50.8014C-0.0124559 53.5744 2.24183 55.8243 5.00962 55.8228L5.0091 54.8228ZM305.019 3.03674V4.03674C306.676 4.03674 308.019 5.38049 308.019 7.03773L309.019 7.03806L310.019 7.03838C310.02 4.27632 307.781 2.03674 305.019 2.03674V3.03674ZM175.023 50.034H174.023C174.023 51.6876 172.685 53.0294 171.031 53.0339L171.034 54.0339L171.037 55.0339C173.793 55.0264 176.023 52.7901 176.023 50.034H175.023ZM159.691 33.3517L158.952 34.0254C162.023 37.3945 167.632 35.2321 167.647 30.6733L166.647 30.67L165.647 30.6668C165.638 33.4021 162.273 34.6995 160.43 32.6781L159.691 33.3517ZM260.18 7.1146L261.18 7.10993C261.172 5.42652 262.55 4.06617 264.234 4.09642L264.252 3.09658L264.27 2.09674C261.464 2.04633 259.167 4.31357 259.18 7.11927L260.18 7.1146ZM300.909 7.05024L301.909 7.05219C301.912 5.39064 303.261 4.03674 304.909 4.03674V3.03674V2.03674C302.144 2.03674 299.914 4.29747 299.909 7.04828L300.909 7.05024ZM171.023 3.0387V4.0387C172.68 4.0387 174.023 5.38184 174.023 7.0387H175.023H176.023C176.023 4.27727 173.784 2.0387 171.023 2.0387V3.0387ZM166.724 7.02571L167.724 7.02896C167.729 5.37591 169.071 4.0387 170.724 4.0387V3.0387V2.0387C167.969 2.0387 165.733 4.26739 165.724 7.02246L166.724 7.02571ZM81.2942 5.16952L82.1783 5.63682C82.6979 4.65374 83.7186 4.0387 84.8306 4.0387V3.0387V2.0387C82.9773 2.0387 81.2761 3.06376 80.4101 4.70223L81.2942 5.16952ZM133.335 4.4391L134.074 3.76542C133.152 2.75436 131.856 2.16512 130.489 2.13503L130.467 3.13479L130.445 4.13454C131.265 4.1526 132.043 4.50614 132.596 5.11278L133.335 4.4391ZM268.346 7.06524L269.346 7.05682C269.323 4.34688 267.145 2.14841 264.436 2.09973L264.418 3.09957L264.4 4.0994C266.026 4.12862 267.332 5.44769 267.346 7.07366L268.346 7.06524Z"
        fill="url(#paint1_linear_53_976)" />
    <defs>
        <linearGradient id="paint0_linear_53_976" x1="4.54928" y1="6.89503" x2="20.5921"
            y2="98.7075" gradientUnits="userSpaceOnUse">
            <stop stop-color="white" />
            <stop offset="1" stop-color="white" stop-opacity="0.6" />
        </linearGradient>
        <linearGradient id="paint1_linear_53_976" x1="4.54958" y1="6.89483" x2="20.5921"
            y2="98.7104" gradientUnits="userSpaceOnUse">
            <stop stop-color="white" stop-opacity="0.6" />
            <stop offset="0.4927" stop-color="white" stop-opacity="0" />
            <stop offset="0.9971" stop-color="white" stop-opacity="0.3" />
        </linearGradient>
    </defs>
</svg>
