<svg width="20" height="20" viewBox="0 0 20 20" fill="none" xmlns="http://www.w3.org/2000/svg">
<g clip-path="url(#clip0_438_9126)">
<path d="M19.1846 18.262C19.1718 18.1752 19.1514 18.0934 19.1233 18.0142C18.9215 17.2378 18.4592 15.8228 18.2498 15.1894C18.2268 15.0795 18.191 14.9723 18.145 14.8727C18.145 14.8701 18.145 14.8701 18.145 14.8701C18.0173 14.5943 17.8079 14.3644 17.55 14.2111C17.5346 14.2009 17.5014 14.183 17.458 14.1601C17.4401 14.1524 17.4223 14.1422 17.4043 14.1345C16.8961 13.8944 15.3355 13.2712 15.3355 13.2712C14.5539 12.9341 13.7468 12.6454 12.9218 12.3517C12.7737 12.9647 11.3766 17.0335 11.1544 17.5979L10.9781 13.8178C11.0369 13.7284 11.0778 13.6262 11.1238 13.5292L11.7061 12.3772C11.2949 12.7195 10.6793 12.9366 9.99225 12.9366C9.32051 12.9366 8.71776 12.7297 8.30652 12.4002L8.87865 13.5291C8.92462 13.6262 8.96549 13.7284 9.02423 13.8177L8.848 17.5979C8.62323 17.0334 7.22357 12.9621 7.07798 12.3491C6.253 12.6428 5.44589 12.9315 4.66432 13.2686C4.66432 13.2686 3.10375 13.8944 2.59547 14.1319C2.5776 14.1396 2.55972 14.1473 2.54184 14.1574C2.49842 14.1779 2.46521 14.1958 2.44989 14.2085C2.19192 14.3644 1.98248 14.5942 1.85478 14.8701V14.8726C1.8088 14.9722 1.77304 15.0795 1.75006 15.1893C1.54062 15.8227 1.07832 17.2352 0.876541 18.0142C0.848446 18.0934 0.828013 18.1777 0.815242 18.2619C0.802472 18.336 0.797363 18.4152 0.797363 18.4918C0.797363 19.3245 1.47165 19.9988 2.3043 19.9988H3.74228C5.80091 19.9988 7.85955 20.0013 9.91818 19.9988C9.94627 19.9988 9.97182 19.9988 9.99991 19.9988C10.028 19.9988 10.0535 19.9988 10.0816 19.9988C12.1403 19.9988 14.1989 19.9988 16.2576 19.9988H17.6955C18.5282 19.9988 19.2025 19.3245 19.2025 18.4918C19.2025 18.4152 19.1948 18.3361 19.1846 18.262Z" fill="#A7AAA7"/>
<path d="M13.9333 5.35091C13.9333 5.08528 13.9844 4.11982 13.9844 3.89761C13.987 1.74447 12.2399 0 10.0867 0C10.0842 0 10.0817 0 10.0791 0C10.0766 0 10.074 0 10.0714 0C10.0459 0 10.0229 0 9.99735 0C9.97181 0 9.94885 0 9.92331 0C9.92073 0 9.9182 0 9.91562 0C9.91306 0 9.91054 0 9.90796 0C7.75482 0 6.00779 1.74703 6.00779 3.90016C6.00779 4.12237 6.05887 5.08528 6.05887 5.35347C5.96437 5.35857 5.09086 5.14914 5.18536 6.19378C5.38458 8.41077 6.23 7.98167 6.25554 7.98167C6.67187 9.31748 7.31806 10.1706 7.95149 10.7146C8.93994 11.5626 9.89774 11.6545 9.91559 11.6545C9.94371 11.6545 9.96926 11.6571 9.99733 11.6571C10.0229 11.6571 10.051 11.6571 10.0791 11.6545C10.0944 11.6545 11.0471 11.5626 12.0304 10.7248C12.6664 10.1834 13.3177 9.32773 13.7366 7.9817C13.7621 7.9817 14.6075 8.41079 14.8068 6.1938C14.9013 5.14658 14.0278 5.35602 13.9333 5.35091Z" fill="#A7AAA7"/>
</g>
<defs>
<clipPath id="clip0_438_9126">
<rect width="20" height="20" fill="white"/>
</clipPath>
</defs>
</svg>
