<svg width="32" height="32" viewBox="0 0 32 32" fill="none" xmlns="http://www.w3.org/2000/svg">
<path d="M22.7304 4.85189C20.6508 4.98327 18.9835 6.65058 18.852 8.7302C18.6939 11.2321 20.7596 13.3057 23.2685 13.1467C25.3481 13.0153 27.0154 11.348 27.1468 9.26839C27.305 6.76695 25.2399 4.69295 22.7304 4.85189ZM26.2113 9.20927C26.1096 10.8189 24.8191 12.1094 23.2094 12.2111C21.257 12.3333 19.6654 10.7233 19.7876 8.78933C19.8893 7.17964 21.1798 5.88914 22.7895 5.78739C24.7315 5.66527 26.3341 7.26589 26.2113 9.20927Z" fill="black"/>
<path d="M30.1552 6.79125C29.4797 6.78869 29.1453 5.97581 29.6229 5.49813C29.9705 5.15063 30.1618 4.68856 30.1618 4.19706C30.1618 3.70556 29.9705 3.24356 29.6229 2.89606L29.0813 2.3545C28.3664 1.63956 27.2316 1.64981 26.498 2.37788C26.0185 2.85369 25.2073 2.51544 25.2073 1.83987C25.2072 0.825375 24.3818 0 23.3673 0H22.6312C21.6166 0 20.7912 0.825375 20.7912 1.83994C20.7912 2.51612 19.9777 2.85512 19.4981 2.37556C19.1506 2.028 18.6885 1.83662 18.1971 1.83662C17.7056 1.83662 17.2436 2.028 16.8961 2.37556L16.3756 2.89606C16.2327 3.039 16.1162 3.20237 16.0285 3.3795C15.3543 2.96562 14.5618 2.7265 13.7145 2.7265H9.62216C8.69653 2.7265 7.86966 3.31344 7.56453 4.18706C7.54335 4.24775 7.4836 4.28856 7.41578 4.28856C6.20647 4.28856 5.2226 5.27244 5.2226 6.48175C5.2226 6.74062 5.43247 6.95044 5.69128 6.95044C5.95016 6.95044 6.15997 6.74056 6.15997 6.48175C6.15997 5.78931 6.72328 5.226 7.41572 5.226C7.88153 5.226 8.29697 4.93275 8.44947 4.49619C8.62335 3.99838 9.09453 3.66394 9.6221 3.66394H13.7144C15.644 3.66394 17.2138 5.23375 17.2138 7.16325V9.6985C16.4879 9.90244 16.391 10.1744 15.8369 10.2035V8.08062C15.8369 7.00275 14.96 6.12581 13.8821 6.12581H13.8642C13.0616 6.12581 12.7338 6.45975 11.7788 6.45975H11.5952C10.6501 6.45975 10.306 6.12581 9.50972 6.12581H9.49185C8.41397 6.12581 7.53703 7.00275 7.53703 8.08062V9.90794C7.09328 9.72019 6.55147 9.64919 6.16016 9.62306V8.69938C6.16016 8.4405 5.95028 8.23069 5.69147 8.23069C5.4326 8.23069 5.22278 8.44056 5.22278 8.69938V9.83037C4.90422 10.0951 4.71503 10.4885 4.71503 10.9136V11.9578C4.71503 12.7076 5.30303 13.3227 6.04216 13.3663C6.18266 14.7247 6.81585 15.9693 7.81866 16.8328C7.97053 16.9636 8.12597 17.085 8.28435 17.1986V19.1701C8.28435 19.3558 8.14522 19.5139 7.96066 19.5379C7.9606 19.5379 7.9606 19.5379 7.96053 19.5379C6.58772 19.7161 4.07922 20.1064 2.70291 20.7192C1.06166 21.45 0.00122071 23.083 0.00122071 24.8796V29.5402C0.00109571 30.8966 1.10453 32 2.46085 32H20.9128C22.2691 32 23.3725 30.8966 23.3725 29.5403V27.9574C23.3725 27.6985 23.1627 27.4887 22.9038 27.4887C22.645 27.4887 22.4352 27.6986 22.4352 27.9574V29.5403C22.4352 30.3797 21.7522 31.0626 20.9128 31.0626H19.7085V28.5066C19.7085 28.2477 19.4987 28.0379 19.2398 28.0379C18.981 28.0379 18.7712 28.2478 18.7712 28.5066V31.0626H13.8988L13.0339 24.6696L13.4728 24.0531C13.5868 24.084 13.7036 24.1004 13.8205 24.1004C14.1306 24.1004 14.4397 23.9919 14.6895 23.7774L16.7966 21.9689C17.15 21.6656 17.3146 21.2189 17.249 20.7696C18.3298 20.9651 19.5282 21.2366 20.2897 21.5756C21.5931 22.1559 22.4353 23.4528 22.4353 24.8796V25.767C22.4353 26.0259 22.6452 26.2357 22.904 26.2357C23.1628 26.2357 23.3727 26.0258 23.3727 25.767V24.8796C23.3727 23.083 22.3122 21.45 20.671 20.7192C19.2947 20.1065 16.7862 19.7161 15.4133 19.5379H15.4133C15.2287 19.5139 15.0896 19.3559 15.0896 19.1701V17.1986C15.248 17.085 15.4034 16.9636 15.5553 16.8328C16.0178 16.4346 16.4005 15.9546 16.6937 15.4204L16.8961 15.6229C17.6152 16.3419 18.779 16.3421 19.4982 15.6229C19.9763 15.1447 20.7913 15.4803 20.7913 16.1585C20.7913 17.1731 21.6167 17.9984 22.6312 17.9984H23.3673C24.3819 17.9984 25.2073 17.1731 25.2073 16.1585C25.2073 15.482 26.0212 15.1436 26.5004 15.6229C26.8479 15.9704 27.31 16.1618 27.8015 16.1618C28.293 16.1618 28.755 15.9704 29.1025 15.6229L29.623 15.1024C30.3403 14.385 30.3403 13.2177 29.623 12.5004C29.1453 12.0227 29.4798 11.2098 30.1553 11.2072C31.1889 11.2034 31.9985 10.4082 31.9985 9.39713V8.60144C31.9985 7.59031 31.1888 6.79519 30.1552 6.79125ZM12.3028 24.08H11.0709L10.7117 23.5754L11.6869 22.8733L12.6621 23.5754L12.3028 24.08ZM9.78566 23.0871C9.63635 23.1947 9.43453 23.1861 9.29485 23.0662L7.18772 21.2576C7.00791 21.1033 7.04841 20.9034 7.0651 20.8459C7.08166 20.7887 7.15341 20.6013 7.38297 20.5644C7.57953 20.5355 7.75928 20.5104 7.91503 20.4896L10.8467 22.3232L9.78566 23.0871ZM0.938533 29.5403V24.8796C0.938533 23.4529 1.78072 22.1561 3.0841 21.5757C3.84566 21.2366 5.04403 20.9651 6.12478 20.7697C6.05916 21.219 6.22385 21.6656 6.57716 21.9689L8.68428 23.7775C8.9341 23.9919 9.24316 24.1004 9.55328 24.1004C9.6701 24.1004 9.78691 24.0841 9.90097 24.0531L10.3398 24.6696L9.47491 31.0626H4.6026V28.5067C4.6026 28.2478 4.39272 28.038 4.13391 28.038C3.8751 28.038 3.66522 28.2479 3.66522 28.5067V31.0626H2.46085C1.62147 31.0626 0.938533 30.3796 0.938533 29.5403ZM10.4208 31.0626L11.2387 25.0174H12.1349L12.9528 31.0626H10.4208ZM16.3086 20.8458C16.3253 20.9034 16.3657 21.1033 16.1859 21.2576L14.0788 23.0661C13.9392 23.1859 13.7373 23.1946 13.5881 23.0871L12.527 22.3231L15.4587 20.4894C15.6144 20.5103 15.7942 20.5354 15.9908 20.5643C16.2203 20.6013 16.292 20.7887 16.3086 20.8458ZM14.4592 20.0089L11.6868 21.7429L8.91447 20.0089C9.10628 19.7802 9.2216 19.4869 9.2216 19.1701V17.7523C10.7946 18.4979 12.5788 18.4979 14.1521 17.7523V19.1701C14.1521 19.4869 14.2674 19.7803 14.4592 20.0089ZM14.9436 16.1225C13.0082 17.789 10.3659 17.7893 8.43016 16.1225C7.51722 15.3364 6.97803 14.1582 6.95078 12.89C6.94535 12.6351 6.73716 12.4314 6.48222 12.4314H6.12585C5.86472 12.4314 5.65228 12.2189 5.65228 11.9578V10.9137C5.65228 10.7692 5.71835 10.6363 5.82822 10.5473C6.36741 10.5594 7.1541 10.6682 7.38716 10.8981C7.57141 11.0798 7.84447 11.1327 8.08291 11.033C8.32072 10.9335 8.47441 10.7025 8.47441 10.4445V8.08069C8.47441 7.51969 8.93078 7.06331 9.49178 7.06331C10.3537 7.12663 10.5551 7.39725 11.5951 7.39725H11.7787C12.8546 7.39725 13.2613 7.06331 13.8642 7.06331H13.882C14.443 7.06331 14.8994 7.51969 14.8994 8.08069V10.2733C14.8994 10.7528 15.2895 11.1428 15.7706 11.1428C16.6577 11.1428 16.8972 10.7307 17.5765 10.5738C17.6678 10.6617 17.7215 10.7832 17.7215 10.9137V11.9579C17.7215 12.219 17.509 12.4314 17.2479 12.4314H16.8915C16.6366 12.4314 16.4284 12.6352 16.423 12.8901C16.3957 14.1582 15.8565 15.3364 14.9436 16.1225ZM31.061 9.39713C31.061 9.88456 30.6616 10.2679 30.1517 10.2699C28.6437 10.2756 27.8947 12.098 28.96 13.1633C29.3119 13.5152 29.3119 14.0878 28.96 14.4397L28.4395 14.9602C28.2691 15.1306 28.0425 15.2246 27.8013 15.2246C27.5603 15.2246 27.3337 15.1307 27.1632 14.9602C26.0958 13.8928 24.2698 14.6469 24.2698 16.1587C24.2698 16.6563 23.8649 17.0612 23.3673 17.0612H22.6312C22.1335 17.0612 21.7287 16.6563 21.7287 16.1587C21.7287 14.6488 19.904 13.8914 18.8352 14.9602C18.4825 15.3129 17.9117 15.3129 17.5589 14.9602L17.0928 14.4942C17.2102 14.1315 17.2917 13.7539 17.3317 13.3664C18.0708 13.3229 18.6588 12.7078 18.6588 11.9579V10.9138C18.6588 10.4888 18.4697 10.0953 18.1511 9.83056V7.16344C18.1511 5.91625 17.633 4.78837 16.8017 3.9815C16.8404 3.82237 16.9209 3.67644 17.0383 3.55906L17.5588 3.03856C17.7293 2.86812 17.9559 2.77419 18.197 2.77419C18.438 2.77419 18.6647 2.86806 18.8352 3.03856C19.9026 4.10594 21.7285 3.35181 21.7285 1.84006C21.7285 1.34244 22.1334 0.937563 22.631 0.937563H23.3672C23.8648 0.937563 24.2697 1.34244 24.2697 1.84006C24.2697 3.34856 26.0893 4.10419 27.1582 3.04338C27.5202 2.68425 28.0737 2.67281 28.4183 3.01744L28.9598 3.55906C29.1303 3.7295 29.2242 3.95613 29.2242 4.19719C29.2242 4.43825 29.1303 4.66494 28.9598 4.83537C27.8931 5.90206 28.6455 7.72306 30.1515 7.72875C30.6614 7.73069 31.0608 8.11406 31.0608 8.6015V9.39713H31.061Z" fill="black"/>
</svg>
