<svg width="20" height="20" viewBox="0 0 20 20" fill="none" xmlns="http://www.w3.org/2000/svg">
<path d="M15.3034 3.86346C16.6803 5.24024 17.4678 7.09856 17.4994 9.04547C17.531 10.9924 16.8041 12.8753 15.4725 14.296L15.3034 14.471L11.7675 18.006C11.3189 18.4543 10.7166 18.7154 10.0827 18.7363C9.44874 18.7572 8.83057 18.5363 8.35338 18.1185L8.23338 18.006L4.69671 14.4701C3.29018 13.0636 2.5 11.1559 2.5 9.16679C2.5 7.17766 3.29018 5.26999 4.69671 3.86346C6.10324 2.45693 8.01091 1.66675 10 1.66675C11.9892 1.66675 13.8968 2.45693 15.3034 3.86346ZM10 6.66679C9.67174 6.66679 9.34665 6.73146 9.04334 6.85709C8.74002 6.98273 8.46443 7.16688 8.23228 7.39903C8.00013 7.63117 7.81598 7.90677 7.69035 8.21009C7.56471 8.5134 7.50005 8.83849 7.50005 9.16679C7.50005 9.4951 7.56471 9.82019 7.69035 10.1235C7.81598 10.4268 8.00013 10.7024 8.23228 10.9346C8.46443 11.1667 8.74002 11.3509 9.04334 11.4765C9.34665 11.6021 9.67174 11.6668 10 11.6668C10.6631 11.6668 11.299 11.4034 11.7678 10.9346C12.2367 10.4657 12.5 9.82983 12.5 9.16679C12.5 8.50375 12.2367 7.86787 11.7678 7.39903C11.299 6.93019 10.6631 6.66679 10 6.66679Z" fill="#FD3A3D"/>
</svg>
