<svg width="20" height="20" viewBox="0 0 20 20" fill="none" xmlns="http://www.w3.org/2000/svg">
<path d="M14.9998 4.1665H3.33317C2.4127 4.1665 1.6665 4.9127 1.6665 5.83317V12.4998M6.6665 15.8332H16.6665C17.587 15.8332 18.3332 15.087 18.3332 14.1665V9.1665C18.3332 8.24603 17.587 7.49984 16.6665 7.49984H6.6665C5.74603 7.49984 4.99984 8.24603 4.99984 9.1665V14.1665C4.99984 15.087 5.74603 15.8332 6.6665 15.8332ZM13.3332 11.6665C13.3332 12.587 12.587 13.3332 11.6665 13.3332C10.746 13.3332 9.99984 12.587 9.99984 11.6665C9.99984 10.746 10.746 9.99984 11.6665 9.99984C12.587 9.99984 13.3332 10.746 13.3332 11.6665Z" stroke="#090B09" stroke-width="1.66667" stroke-linecap="round" stroke-linejoin="round"/>
</svg>
