<svg width="200" height="200" viewBox="0 0 200 200" fill="none" xmlns="http://www.w3.org/2000/svg">
    <path
        d="M99.2195 149.027C99.5148 148.537 99.7496 148.012 99.9187 147.465C100.094 146.914 100.231 146.351 100.329 145.781C100.511 144.641 100.572 143.485 100.512 142.332C100.455 141.184 100.313 140.041 100.087 138.914C99.9656 138.348 99.825 137.789 99.6961 137.231L99.2195 135.574L99.1961 135.445C99.1435 135.124 99.2186 134.794 99.4054 134.527C99.5922 134.26 99.8759 134.077 100.196 134.016C102.188 133.662 104.156 133.187 106.091 132.594C108.038 132.007 109.947 131.297 111.805 130.469C113.686 129.644 115.512 128.702 117.274 127.649C119.054 126.608 120.752 125.433 122.352 124.133C122.393 124.101 122.445 124.086 122.496 124.092C122.548 124.097 122.596 124.121 122.63 124.16C122.662 124.196 122.68 124.243 122.68 124.291C122.68 124.339 122.662 124.386 122.63 124.422C121.129 125.879 119.518 127.218 117.813 128.43C116.114 129.659 114.341 130.782 112.505 131.793C110.663 132.824 108.759 133.738 106.802 134.527C104.836 135.325 102.823 136.001 100.774 136.551L101.751 134.988L102.005 136.832C102.052 137.453 102.11 138.07 102.145 138.688C102.204 139.927 102.169 141.169 102.04 142.402C101.916 143.634 101.664 144.849 101.286 146.027C101.089 146.612 100.851 147.183 100.575 147.735C100.307 148.296 99.9679 148.821 99.5672 149.297C99.5507 149.317 99.5305 149.333 99.5077 149.344C99.4849 149.356 99.46 149.363 99.4346 149.364C99.4091 149.366 99.3835 149.363 99.3593 149.355C99.3351 149.346 99.3128 149.334 99.2937 149.317C99.2586 149.286 99.2354 149.245 99.2282 149.199C99.2211 149.153 99.2305 149.106 99.2547 149.067L99.2195 149.027Z"
        fill="#020202" />
    <path
        d="M99.3404 152.168C86.3195 149.66 73.2987 147.219 60.2779 144.844C53.7623 143.672 47.2427 142.5 40.7193 141.403C37.4576 140.856 34.1919 140.32 30.9263 139.84C29.2935 139.594 27.6607 139.36 26.0318 139.149C25.2193 139.043 24.4029 138.945 23.5982 138.863C22.8198 138.778 22.0375 138.732 21.2544 138.727C21.0194 138.724 20.7904 138.652 20.5973 138.518C20.4042 138.383 20.2558 138.194 20.1716 137.975C20.0873 137.755 20.071 137.516 20.1248 137.287C20.1786 137.058 20.3 136.851 20.4732 136.692L20.4966 136.672C23.855 133.851 26.9106 130.688 29.6138 127.235C32.3458 123.771 34.8548 120.138 37.1255 116.356C41.6459 108.733 45.5905 100.784 48.9263 92.5744C52.3208 84.3713 55.2623 75.9845 57.8677 67.4963C60.4732 59.008 62.7388 50.4025 64.5083 41.7463C64.6006 41.2981 64.8325 40.8907 65.1708 40.5826C65.5091 40.2744 65.9363 40.0815 66.3912 40.0314H66.4263C73.0943 39.4455 79.7701 39.1799 86.4341 39.1291C93.0982 39.0783 99.7584 39.258 106.403 39.6134C113.047 39.9689 119.684 40.508 126.293 41.2658C129.598 41.6564 132.899 42.0822 136.196 42.6095C137.844 42.8791 139.489 43.1681 141.137 43.508C141.961 43.6799 142.786 43.8595 143.614 44.0705C144.47 44.2783 145.313 44.5392 146.137 44.8517C146.377 44.9456 146.61 45.0539 146.836 45.1759C146.984 45.2571 147.125 45.3499 147.258 45.4533C147.355 45.5287 147.445 45.6123 147.528 45.7033C147.58 45.7642 147.628 45.8281 147.672 45.8947L147.739 46.0002C148.004 46.4793 148.188 46.9995 148.282 47.5392C148.438 48.4239 148.517 49.3205 148.516 50.2189C148.514 51.9154 148.42 53.6106 148.235 55.297C147.895 58.6369 147.364 61.9377 146.77 65.2033C145.563 71.7463 144.059 78.215 142.36 84.633C140.661 91.0509 138.739 97.4103 136.501 103.656C135.368 106.781 134.157 109.871 132.731 112.879C132.028 114.389 131.246 115.862 130.387 117.289C129.951 118.004 129.475 118.694 128.961 119.356C128.45 120.033 127.85 120.637 127.176 121.153C127.156 121.168 127.132 121.179 127.107 121.185C127.082 121.191 127.056 121.192 127.031 121.188C127.005 121.184 126.981 121.175 126.959 121.161C126.937 121.148 126.918 121.13 126.903 121.11C126.873 121.068 126.86 121.017 126.868 120.967C126.875 120.917 126.902 120.871 126.942 120.84C127.571 120.33 128.128 119.737 128.598 119.078C129.085 118.42 129.534 117.734 129.942 117.024C130.756 115.594 131.493 114.122 132.149 112.613C133.481 109.598 134.614 106.496 135.665 103.363C137.751 97.1134 139.489 90.7189 141.036 84.2931C142.583 77.8674 143.903 71.4025 144.942 64.8869C145.45 61.633 145.891 58.3674 146.141 55.1213C146.278 53.5118 146.327 51.8962 146.29 50.2814C146.271 49.5245 146.189 48.7705 146.043 48.0275C145.991 47.7539 145.896 47.4903 145.762 47.2463V47.2228C145.778 47.2461 145.795 47.2683 145.813 47.2892C145.836 47.3205 145.856 47.3322 145.852 47.3283L145.751 47.2736C145.61 47.2033 145.465 47.142 145.317 47.09C144.585 46.8374 143.839 46.6286 143.083 46.465C142.301 46.2892 141.501 46.133 140.7 45.9884C139.098 45.6994 137.477 45.4533 135.848 45.2345C132.594 44.7931 129.321 44.4533 126.04 44.1525C119.477 43.5666 112.891 43.1994 106.301 43.008C99.7115 42.8166 93.1255 42.8166 86.5474 43.008C79.9693 43.1994 73.4107 43.6486 66.9029 44.3869L68.8208 42.6681C66.8287 51.4806 64.356 60.1213 61.5708 68.672C58.7857 77.2228 55.6294 85.6486 52.0279 93.8947C48.4741 102.18 44.3049 110.189 39.5552 117.852C37.154 121.678 34.5106 125.347 31.6412 128.836C28.762 132.367 25.5247 135.59 21.981 138.453L21.2271 136.395C22.1067 136.415 22.9844 136.486 23.856 136.606C24.6919 136.711 25.5201 136.832 26.3443 136.957C27.9966 137.211 29.6334 137.488 31.2701 137.774C34.5396 138.352 37.7974 138.969 41.0357 139.594C47.5461 140.857 54.0422 142.159 60.524 143.5C73.5005 146.185 86.4589 148.942 99.399 151.77C99.4242 151.775 99.448 151.786 99.4691 151.801C99.4902 151.815 99.5082 151.834 99.522 151.856C99.5358 151.878 99.5452 151.902 99.5495 151.927C99.5539 151.953 99.5532 151.979 99.5474 152.004C99.5397 152.052 99.5142 152.096 99.4758 152.126C99.4375 152.157 99.3892 152.172 99.3404 152.168Z"
        fill="#020202" />
    <path
        d="M55.634 143.258C55.634 143.258 31.1692 148.551 27.384 150C23.5989 151.449 26.302 151.262 36.5794 151.082C46.8567 150.902 99.3215 159.375 102.736 159.008C106.15 158.641 126.173 133.277 132.865 110.988C124.911 129.984 107.943 153.715 96.9583 151.48C85.9739 149.246 55.634 143.258 55.634 143.258Z"
        fill="#020202" />
    <path
        d="M127.203 122.59C127.203 122.59 119.148 136.652 104.727 138.547C105.539 145.035 101.031 149.152 101.031 149.152C101.031 149.152 109.957 147.961 120.051 135.004C123.93 130.078 127.203 122.59 127.203 122.59Z"
        fill="#020202" />
    <path
        d="M130.715 130.223L143.492 109.016C147.789 101.961 152.086 94.9062 156.492 87.9219C157.593 86.1719 158.707 84.4271 159.832 82.6875C160.402 81.8203 160.953 80.9492 161.562 80.082C162.172 79.2148 162.773 78.3516 163.437 77.5195C163.773 77.1055 164.105 76.6875 164.468 76.2891C164.644 76.0898 164.82 75.8984 165.004 75.6875L165.57 75.1016C166.342 74.3004 167.192 73.5769 168.105 72.9414C169.075 72.2615 170.157 71.7565 171.3 71.4492C172.494 71.1523 173.739 71.1256 174.945 71.3711C176.212 71.5844 177.393 72.1488 178.355 73C178.476 73.1211 178.605 73.2344 178.722 73.3594L179.039 73.7734C179.245 74.0504 179.421 74.349 179.562 74.6641C179.836 75.2645 180.011 75.9058 180.078 76.5625C180.167 77.7678 180.034 78.9791 179.687 80.1367C179.621 80.4219 179.511 80.6797 179.425 80.9492C179.34 81.2187 179.25 81.4883 179.144 81.7305C178.918 82.2344 178.715 82.7578 178.472 83.2461C178.23 83.7344 177.976 84.2187 177.691 84.6875L176.863 86.0781C176.285 86.9648 175.691 87.8789 175.109 88.6953C173.965 90.3828 172.84 92.1094 171.718 93.8359C167.242 100.754 162.875 107.766 158.437 114.719L151.761 125.16C149.519 128.637 147.281 132.105 144.937 135.555C144.343 136.418 143.765 137.27 143.086 138.152L142.816 138.492C142.769 138.551 142.734 138.598 142.672 138.668L142.48 138.879L142.285 139.086L142.152 139.215L141.89 139.465C141.535 139.809 141.175 140.172 140.816 140.535L136.484 144.945C135.031 146.417 133.558 147.875 132.066 149.32C131.32 150.047 130.554 150.754 129.789 151.465C129.023 152.176 128.226 152.875 127.402 153.555C126.984 153.895 126.558 154.23 126.066 154.566C125.941 154.648 125.82 154.734 125.675 154.82L125.453 154.949L125.144 155.094L125.062 155.125L124.953 155.164C124.845 155.194 124.735 155.217 124.625 155.234L124.461 155.254C124.367 155.264 124.273 155.264 124.179 155.254C124.046 155.235 123.915 155.201 123.789 155.152C123.673 155.1 123.565 155.035 123.465 154.957C123.378 154.896 123.301 154.824 123.234 154.742C123.179 154.676 123.125 154.602 123.078 154.531C123.019 154.429 122.968 154.321 122.925 154.211C122.899 154.133 122.876 154.053 122.859 153.973C122.841 153.909 122.828 153.843 122.82 153.777C122.781 153.426 122.781 153.071 122.82 152.719C122.847 152.418 122.883 152.137 122.925 151.863C123.011 151.312 123.117 150.789 123.23 150.27C123.703 148.195 124.3 146.207 124.914 144.219C125.527 142.23 126.23 140.273 126.949 138.324C127.316 137.355 127.695 136.371 128.09 135.426C128.289 134.945 128.5 134.469 128.715 133.992C128.927 133.508 129.169 133.037 129.437 132.582L129.781 132.77C129.433 133.699 129.175 134.723 128.914 135.703C128.652 136.684 128.398 137.699 128.16 138.699C127.664 140.699 127.207 142.707 126.769 144.711C126.332 146.715 125.914 148.73 125.597 150.715C125.519 151.207 125.453 151.703 125.41 152.176C125.386 152.414 125.371 152.648 125.367 152.863C125.356 153.024 125.364 153.185 125.39 153.344C125.39 153.344 125.39 153.344 125.39 153.293C125.372 153.242 125.348 153.194 125.32 153.148C125.292 153.101 125.259 153.057 125.222 153.016C125.172 152.961 125.119 152.91 125.062 152.863C124.987 152.805 124.904 152.758 124.816 152.723C124.726 152.681 124.63 152.654 124.531 152.641H124.343H124.273C124.225 152.642 124.178 152.651 124.133 152.668C124.143 152.657 124.157 152.648 124.172 152.645L124.281 152.566C124.363 152.512 124.443 152.453 124.519 152.391C124.863 152.125 125.234 151.797 125.597 151.465C127.054 150.113 128.496 148.641 129.918 147.168L134.187 142.715C135.605 141.219 137.027 139.727 138.484 138.238C138.851 137.848 139.215 137.492 139.601 137.113L139.894 136.828C139.941 136.781 140.008 136.723 140.039 136.688L140.105 136.609L140.175 136.535C140.199 136.512 140.242 136.453 140.277 136.41L140.488 136.145C141.07 135.383 141.66 134.543 142.238 133.703C144.55 130.332 146.8 126.867 149.047 123.414L155.754 113.008C157.98 109.531 160.218 106.061 162.468 102.598C164.718 99.1341 166.981 95.6745 169.258 92.2187C170.402 90.4922 171.55 88.7734 172.742 87.0586C173.363 86.1836 173.914 85.3828 174.465 84.5508L175.246 83.2852C175.492 82.8594 175.711 82.4258 175.945 81.9961C176.179 81.5664 176.336 81.1289 176.554 80.6914C176.652 80.4727 176.718 80.2539 176.8 80.0352C176.883 79.8164 176.976 79.5937 177.027 79.375C177.289 78.5566 177.404 77.6983 177.367 76.8398C177.338 76.1253 177.039 75.4482 176.531 74.9453C175.94 74.4195 175.213 74.0715 174.433 73.9414C173.613 73.7539 172.761 73.7539 171.941 73.9414C171.083 74.1604 170.27 74.5279 169.539 75.0273C167.976 76.0391 166.617 77.5039 165.34 79.0273C164.062 80.5508 162.914 82.2344 161.746 83.9336C160.578 85.6328 159.433 87.3398 158.297 89.0586C156.008 92.4883 153.758 95.9492 151.488 99.3984L144.679 109.766L137.89 120.129L134.484 125.301C133.332 127.027 132.222 128.734 131.023 130.465L130.715 130.223Z"
        fill="#020202" />
    <path
        d="M139.18 132.941L146.246 121.758C148.605 118.031 150.949 114.294 153.277 110.547C155.594 106.793 157.965 103.082 160.457 99.4414C161.699 97.6185 162.975 95.819 164.285 94.043C165.598 92.2695 166.945 90.5273 168.391 88.8281L168.715 89.0469C167.727 91.0352 166.641 92.9531 165.52 94.8594C164.398 96.7656 163.238 98.6367 162.047 100.492C159.66 104.199 157.172 107.84 154.625 111.43C152.078 115.02 149.547 118.652 147.047 122.277L139.508 133.148L139.18 132.941Z"
        fill="#020202" />
    <path
        d="M138.211 126.637L138.367 126.348L138.539 126.051L138.91 125.41L139.664 124.137L141.199 121.605C141.711 120.762 142.234 119.922 142.762 119.086C143.289 118.25 143.812 117.414 144.344 116.586C146.461 113.254 148.641 109.977 150.844 106.691C153.047 103.406 155.254 100.145 157.484 96.8906C159.715 93.6367 161.992 90.4102 164.305 87.207L164.629 87.4219C162.595 90.8073 160.521 94.1667 158.406 97.5C156.292 100.833 154.156 104.152 152 107.457C149.836 110.758 147.68 114.062 145.438 117.309C144.883 118.124 144.32 118.935 143.75 119.742C143.184 120.551 142.617 121.359 142.039 122.156C141.461 122.953 140.867 123.758 140.293 124.555L139.402 125.727L138.949 126.316L138.703 126.629L138.434 126.949L138.211 126.637Z"
        fill="#020202" />
    <path
        d="M126.954 140.555C126.918 140.672 132.602 137.531 135.938 143.223C128.375 150.809 125.391 154.984 124.379 153.961C123.368 152.937 125.383 146.219 125.442 145.992C125.5 145.766 126.954 140.555 126.954 140.555Z"
        fill="#020202" />
    <path d="M161.156 68.3242L166.746 58.4102" stroke="#020202" stroke-width="1.79688"
        stroke-miterlimit="10" />
    <path d="M155.207 63.3672V52.457" stroke="#020202" stroke-width="2.16406"
        stroke-miterlimit="10" />
    <path d="M130.012 155.703C130.469 155.469 139.703 147.457 150.781 146.953L130.012 155.703Z"
        fill="#020202" />
    <path d="M130.012 155.703C130.469 155.469 139.703 147.457 150.781 146.953" stroke="#020202"
        stroke-width="0.390625" stroke-miterlimit="10" />
    <path d="M134.055 155.703C134.414 155.824 143.789 151.258 152.203 152.457L134.055 155.703Z"
        fill="#020202" />
    <path d="M134.055 155.703C134.414 155.824 143.789 151.258 152.203 152.457" stroke="#020202"
        stroke-width="0.390625" stroke-miterlimit="10" />
    <path
        d="M78.9466 78.0602C80.2671 75.1906 82.5809 72.8954 85.461 71.5981C88.4291 70.2861 91.732 69.931 94.9111 70.5821C96.4865 70.8926 98.0144 71.4076 99.4562 72.1141C100.952 72.8326 102.331 73.7716 103.548 74.8995C104.861 76.108 105.906 77.5789 106.615 79.2169C107.343 80.9328 107.652 82.7969 107.517 84.6557C107.398 86.4963 106.861 88.2854 105.945 89.8866C105.065 91.3996 103.931 92.75 102.593 93.8787C101.379 94.8907 100.063 95.7739 98.6662 96.5139C97.3245 97.242 96.0254 97.8411 94.7363 98.4105L92.8264 99.2258C92.2404 99.4831 91.6494 99.7387 91.0833 100.019C89.9449 100.558 88.8419 101.169 87.781 101.848C85.6599 103.166 83.8479 104.926 82.4684 107.008L82.4536 107.052C82.3054 107.287 82.0802 107.463 81.8165 107.55C81.5527 107.637 81.2669 107.63 81.0081 107.529C80.7493 107.429 80.5335 107.241 80.3978 106.999C80.2621 106.756 80.2149 106.474 80.2643 106.201C80.5444 104.662 81.1017 103.187 81.9091 101.847C82.7125 100.508 83.6856 99.2782 84.8044 98.1884C85.9042 97.1295 87.0978 96.1725 88.3705 95.3292C89.0007 94.905 89.636 94.5154 90.2829 94.1406L92.1444 93.1058C94.5506 91.8054 96.8331 90.5797 98.5285 89.1156C99.3235 88.4625 100.004 87.6816 100.543 86.8049C101.025 85.9967 101.324 85.0926 101.419 84.1562C101.517 83.2392 101.408 82.3121 101.101 81.4423C100.749 80.5114 100.215 79.6595 99.5316 78.9359C97.9296 77.2755 95.9339 76.0469 93.7299 75.3644C91.4877 74.6385 89.085 74.5667 86.8034 75.1574C85.641 75.4649 84.5365 75.96 83.5334 76.6232C82.4913 77.3217 81.5601 78.173 80.7713 79.1485C80.6184 79.3899 80.376 79.5606 80.0972 79.6231C79.8185 79.6857 79.5263 79.635 79.285 79.4821C79.0437 79.3292 78.873 79.0868 78.8104 78.808C78.7479 78.5293 78.7986 78.2371 78.9515 77.9958L78.9466 78.0602Z"
        fill="black" />
    <path
        d="M80.2734 115.984C80.4956 116.311 80.6467 116.682 80.7168 117.072C80.7699 117.382 80.7655 117.7 80.7039 118.008C80.6598 118.314 80.5198 118.597 80.3041 118.817C79.9878 119.122 79.5835 119.319 79.1487 119.381C78.52 119.502 77.8709 119.46 77.2631 119.258C76.6554 119.057 76.1093 118.704 75.6767 118.232C75.3647 117.923 75.1581 117.523 75.0861 117.09C75.0444 116.784 75.1011 116.474 75.2478 116.202C75.3805 115.917 75.5667 115.659 75.7964 115.443C76.0852 115.172 76.4275 114.965 76.8013 114.834C77.4248 114.606 78.1073 114.595 78.7377 114.804C79.3681 115.013 79.9093 115.428 80.2734 115.984Z"
        fill="black" />
</svg>
