<svg width="24" height="24" viewBox="0 0 24 24" fill="none" xmlns="http://www.w3.org/2000/svg">
<path d="M4 4C2.34315 4 1 5.34315 1 7V15C1 15.5523 1.44772 16 2 16C2.55228 16 3 15.5523 3 15V7C3 6.44772 3.44772 6 4 6H18C18.5523 6 19 5.55228 19 5C19 4.44772 18.5523 4 18 4H4Z" fill="url(#paint0_linear_302_3169)"/>
<path d="M13 14C13 13.4477 13.4477 13 14 13C14.5523 13 15 13.4477 15 14C15 14.5523 14.5523 15 14 15C13.4477 15 13 14.5523 13 14Z" fill="url(#paint1_linear_302_3169)"/>
<path fill-rule="evenodd" clip-rule="evenodd" d="M8 8C6.34315 8 5 9.34315 5 11V17C5 18.6569 6.34315 20 8 20H20C21.6569 20 23 18.6569 23 17V11C23 9.34315 21.6569 8 20 8H8ZM14 11C12.3431 11 11 12.3431 11 14C11 15.6569 12.3431 17 14 17C15.6569 17 17 15.6569 17 14C17 12.3431 15.6569 11 14 11Z" fill="url(#paint2_linear_302_3169)"/>
<defs>
<linearGradient id="paint0_linear_302_3169" x1="19.6673" y1="-3.9031" x2="-10.1725" y2="14.4361" gradientUnits="userSpaceOnUse">
<stop stop-color="#FFC400"/>
<stop offset="1" stop-color="#8E6D00"/>
</linearGradient>
<linearGradient id="paint1_linear_302_3169" x1="19.6673" y1="-3.9031" x2="-10.1725" y2="14.4361" gradientUnits="userSpaceOnUse">
<stop stop-color="#FFC400"/>
<stop offset="1" stop-color="#8E6D00"/>
</linearGradient>
<linearGradient id="paint2_linear_302_3169" x1="19.6673" y1="-3.9031" x2="-10.1725" y2="14.4361" gradientUnits="userSpaceOnUse">
<stop stop-color="#FFC400"/>
<stop offset="1" stop-color="#8E6D00"/>
</linearGradient>
</defs>
</svg>
