<svg width="16" height="16" viewBox="0 0 16 16" fill="none" xmlns="http://www.w3.org/2000/svg">
    <path
        d="M2 11.0002C1.44772 11.0002 1 11.4479 1 12.0002C1 12.5524 1.44772 13.0002 2 13.0002V12.0002V11.0002ZM14 13.0002C14.5523 13.0002 15 12.5524 15 12.0002C15 11.4479 14.5523 11.0002 14 11.0002V12.0002V13.0002ZM10.018 14.5019C10.2951 14.0242 10.1325 13.4123 9.65479 13.1352C9.17707 12.858 8.56514 13.0207 8.28802 13.4984L9.15302 14.0002L10.018 14.5019ZM7.71135 13.4984C7.43423 13.0207 6.82231 12.858 6.34458 13.1352C5.86686 13.4123 5.70423 14.0242 5.98135 14.5019L6.84635 14.0002L7.71135 13.4984ZM2 12.0002V13.0002H14V12.0002V11.0002H2V12.0002ZM9.15302 14.0002L8.28802 13.4984C8.25872 13.5489 8.21666 13.5908 8.16606 13.62L8.66517 14.4865L9.16428 15.3531C9.5185 15.149 9.81291 14.8555 10.018 14.5019L9.15302 14.0002ZM8.66517 14.4865L8.16606 13.62C8.11546 13.6491 8.05808 13.6645 7.99969 13.6645V14.6645V15.6645C8.40846 15.6645 8.81006 15.5571 9.16428 15.3531L8.66517 14.4865ZM7.99969 14.6645V13.6645C7.94129 13.6645 7.88392 13.6491 7.83332 13.62L7.3342 14.4865L6.83509 15.3531C7.18931 15.5571 7.59091 15.6645 7.99969 15.6645V14.6645ZM7.3342 14.4865L7.83332 13.62C7.78271 13.5908 7.74066 13.5489 7.71135 13.4984L6.84635 14.0002L5.98135 14.5019C6.18647 14.8555 6.48087 15.149 6.83509 15.3531L7.3342 14.4865ZM3.33333 6.00016H4.33333C4.33333 3.97512 5.97496 2.3335 8 2.3335V1.3335V0.333496C4.87039 0.333496 2.33333 2.87055 2.33333 6.00016H3.33333ZM8 1.3335V2.3335C10.025 2.3335 11.6667 3.97512 11.6667 6.00016H12.6667H13.6667C13.6667 2.87055 11.1296 0.333496 8 0.333496V1.3335ZM3.33333 6.00016H2.33333V12.0002H3.33333H4.33333V6.00016H3.33333ZM12.6667 6.00016H11.6667V12.0002H12.6667H13.6667V6.00016H12.6667Z"
        fill="#090B09" />
</svg>
