<svg width="16" height="16" viewBox="0 0 16 16" fill="none" xmlns="http://www.w3.org/2000/svg">
    <path d="M2 10.9997C1.44772 10.9997 1 11.4474 1 11.9997C1 12.552 1.44772 12.9997 2 12.9997V11.9997V10.9997ZM14 12.9997C14.5523 12.9997 15 12.552 15 11.9997C15 11.4474 14.5523 10.9997 14 10.9997V11.9997V12.9997ZM10.018 14.5014C10.2951 14.0237 10.1325 13.4118 9.65479 13.1347C9.17707 12.8576 8.56514 13.0202 8.28802 13.4979L9.15302 13.9997L10.018 14.5014ZM7.71135 13.4979C7.43423 13.0202 6.82231 12.8576 6.34458 13.1347C5.86686 13.4118 5.70423 14.0237 5.98135 14.5014L6.84635 13.9997L7.71135 13.4979ZM2 11.9997V12.9997H14V11.9997V10.9997H2V11.9997ZM9.15302 13.9997L8.28802 13.4979C8.25872 13.5484 8.21666 13.5903 8.16606 13.6195L8.66517 14.486L9.16428 15.3526C9.5185 15.1485 9.81291 14.855 10.018 14.5014L9.15302 13.9997ZM8.66517 14.486L8.16606 13.6195C8.11546 13.6486 8.05808 13.664 7.99969 13.664V14.664V15.664C8.40846 15.664 8.81006 15.5566 9.16428 15.3526L8.66517 14.486ZM7.99969 14.664V13.664C7.94129 13.664 7.88392 13.6486 7.83332 13.6195L7.3342 14.486L6.83509 15.3526C7.18931 15.5566 7.59091 15.664 7.99969 15.664V14.664ZM7.3342 14.486L7.83332 13.6195C7.78271 13.5903 7.74066 13.5484 7.71135 13.4979L6.84635 13.9997L5.98135 14.5014C6.18647 14.855 6.48087 15.1485 6.83509 15.3526L7.3342 14.486ZM3.33333 5.99967H4.33333C4.33333 3.97463 5.97496 2.33301 8 2.33301V1.33301V0.333008C4.87039 0.333008 2.33333 2.87006 2.33333 5.99967H3.33333ZM8 1.33301V2.33301C10.025 2.33301 11.6667 3.97463 11.6667 5.99967H12.6667H13.6667C13.6667 2.87006 11.1296 0.333008 8 0.333008V1.33301ZM3.33333 5.99967H2.33333V11.9997H3.33333H4.33333V5.99967H3.33333ZM12.6667 5.99967H11.6667V11.9997H12.6667H13.6667V5.99967H12.6667Z" fill="#090B09"/>
</svg>
