<svg width="32" height="32" viewBox="0 0 32 32" fill="none" xmlns="http://www.w3.org/2000/svg">
<g clip-path="url(#clip0_871_36031)">
<path d="M30.6732 22.5762H27.2281V20.7424C27.2281 19.9845 27.0322 19.2569 26.6793 18.6191C26.7292 15.6964 26.5162 13.5281 27.0314 10.1519C27.1599 9.31031 27.2554 8.45318 27.3154 7.60425C27.3337 7.346 27.1392 7.12187 26.8809 7.10356C26.6214 7.08506 26.3985 7.27981 26.3803 7.53812C26.322 8.36193 26.2292 9.19375 26.1047 10.0104C25.5973 13.3349 25.7812 15.558 25.7418 17.4522C24.3446 16.2188 21.4508 15.8429 19.5768 15.5997C19.4118 15.5783 19.283 15.4381 19.283 15.2659V13.0366C20.3037 12.2325 20.8441 11.1297 20.9795 9.81637H21.1774C21.9002 9.81637 22.4883 9.22831 22.4883 8.50543V7.57218C22.4883 7.09662 22.2252 6.66587 21.8274 6.43631L21.8269 3.92318C21.8268 3.4055 21.7248 2.91137 21.5413 2.45868H23.5482C25.1521 2.45868 26.4569 3.76356 26.4569 5.36743C26.4569 5.62631 26.6667 5.83618 26.9257 5.83618C27.1846 5.83618 27.3944 5.62631 27.3944 5.36743C27.3944 3.24662 25.6691 1.52118 23.5482 1.52118H20.9991C20.2824 0.60287 19.1663 0.0106201 17.914 0.0106201H14.0851C12.8326 0.0106201 11.7165 0.60287 10.9999 1.52131H8.45187C6.33106 1.52131 4.60563 3.24675 4.60563 5.36756C4.60563 6.964 4.72775 8.57368 4.96856 10.1519C5.48388 13.5296 5.27081 15.6986 5.32075 18.6191C4.96775 19.2568 4.77187 19.9845 4.77187 20.7424V22.5762H1.32681C0.595187 22.5762 0 23.1714 0 23.9029V24.7509C0 25.3179 0.358063 25.8015 0.859375 25.9911V30.7084C0.859375 31.4147 1.434 31.9893 2.14025 31.9893H29.8598C30.5661 31.9893 31.1406 31.4147 31.1406 30.7084V25.9911C31.6419 25.8014 32 25.3178 32 24.7509V23.9029C32 23.1714 31.4048 22.5762 30.6732 22.5762ZM26.2906 20.7424V22.5762H24.1922V17.5686C25.5044 18.1329 26.2906 19.3994 26.2906 20.7424ZM18.3751 22.5762L20.7597 16.7204C21.5457 16.8491 22.4705 17.0262 23.2547 17.2476V22.5762H18.3751ZM12.9071 16.4262L15.1274 18.1524C13.2313 19.1027 13.3098 19.0848 13.2208 19.0982L12.1939 16.5764C12.5519 16.5267 12.6916 16.5241 12.9071 16.4262ZM18.4233 19.972L17.5837 22.0339L17.2324 20.6355L17.7069 19.6236C18.2621 19.8998 18.2844 19.9242 18.4233 19.972ZM15.5608 20.1189L15.1304 19.2011L16 18.7622L16.8696 19.2011L16.4392 20.1189H15.5608ZM14.2931 19.6237L14.7676 20.6355L14.4163 22.0339L13.5767 19.972C13.7165 19.9239 13.7434 19.8971 14.2931 19.6237ZM15.6284 21.0564H16.3715L16.7532 22.5762H15.2467L15.6284 21.0564ZM19.8061 16.5764L18.7791 19.0982C18.7119 19.0881 18.8421 19.1464 16.8726 18.1524L19.0929 16.4262C19.3081 16.5239 19.4346 16.5249 19.8061 16.5764ZM18.4411 15.7456L16 17.6434L13.5589 15.7456C13.6206 15.5942 13.6545 15.4315 13.6545 15.2659V13.6366C14.3757 14.0012 15.1584 14.1909 15.9948 14.2002H16C16 14.2002 16.0035 14.2002 16.0052 14.2002C16.8416 14.1909 17.6243 14.0012 18.3455 13.6366V15.2659C18.3455 15.4316 18.3794 15.5942 18.4411 15.7456ZM18.8783 12.1561C18.0663 12.8554 17.1018 13.2492 16 13.2627C14.9044 13.2492 13.9389 12.8597 13.1217 12.1561C12.1848 11.3494 11.956 10.1888 11.9319 9.34268C11.9319 9.34012 11.9321 9.33762 11.9321 9.33506C11.9281 6.23206 11.9296 7.36406 11.9292 7.10668C12.3966 6.86943 12.7019 6.38362 12.7019 5.85306V4.063C12.7019 3.82362 12.8967 3.62887 13.1361 3.62887H13.3306C14.0778 3.62887 14.5398 4.09643 16.0446 4.09643C17.5214 4.09643 18.0271 3.62887 18.7586 3.62887H18.8639C19.1032 3.62887 19.298 3.82362 19.298 4.063V5.85306C19.298 6.38437 19.6042 6.87087 20.0727 7.10768V9.31381C20.0727 9.342 20.0721 9.34193 20.0721 9.35006C20.0469 10.1937 19.8161 11.3487 18.8783 12.1561ZM10.4492 7.57225C10.4492 7.39843 10.5722 7.24525 10.7419 7.208C10.7696 7.20193 10.7968 7.19881 10.8226 7.19881H10.9918L10.9931 8.87887H10.8226C10.6167 8.87887 10.4492 8.71137 10.4492 8.50543V7.57225ZM21.5508 8.5055C21.5508 8.71137 21.3832 8.87893 21.1773 8.87893H21.0101V7.19887H21.1773C21.2031 7.19887 21.2303 7.20193 21.2581 7.20806C21.4276 7.24537 21.5507 7.3985 21.5507 7.57231V8.5055H21.5508ZM14.0851 0.94812H17.914C19.5543 0.94812 20.8891 2.28281 20.8894 3.92343L20.8898 6.26137H20.4753C20.3295 6.17918 20.2355 6.02281 20.2355 5.85306V4.063C20.2355 3.30668 19.6202 2.69137 18.8639 2.69137H18.7586C17.7467 2.69137 17.459 3.15893 16.0446 3.15893C14.6476 3.15893 14.336 2.69137 13.3306 2.69137H13.1361C12.3797 2.69137 11.7644 3.30668 11.7644 4.063V5.85306C11.7644 6.02281 11.6704 6.17918 11.5247 6.26137C11.5129 6.26137 11.0878 6.26137 11.1101 6.26137V3.92312C11.1101 2.28268 12.4446 0.94812 14.0851 0.94812ZM8.45187 2.45881H10.4579C10.2746 2.91143 10.1726 3.40543 10.1726 3.92312V6.4365C9.77481 6.66606 9.51169 7.09675 9.51169 7.57231V8.50556C9.51169 9.22837 10.0998 9.8165 10.8226 9.8165H11.0238C11.1653 11.2397 11.7552 12.279 12.7169 13.0367V15.2659C12.7169 15.4397 12.5861 15.5787 12.4231 15.5998C10.5677 15.8406 7.65819 16.2164 6.25819 17.4523C6.21862 15.5539 6.40494 13.3503 5.89525 10.0105C5.66156 8.47887 5.54306 6.91675 5.54306 5.36756C5.54313 3.76362 6.848 2.45881 8.45187 2.45881ZM5.70937 20.7424C5.70937 19.3965 6.4985 18.1299 7.81219 17.5667V18.876C7.81219 19.1349 8.02206 19.3447 8.28094 19.3447C8.53981 19.3447 8.74969 19.1349 8.74969 18.876V17.2463C9.533 17.0256 10.4557 16.8488 11.2404 16.7204C11.5176 17.4012 13.3668 21.9422 13.6249 22.5762H8.74969V21.0674C8.74969 20.8086 8.53981 20.5987 8.28094 20.5987C8.02206 20.5987 7.81219 20.8086 7.81219 21.0674V22.5762H5.70937V20.7424ZM0.9375 23.9029C0.9375 23.6883 1.11213 23.5137 1.32681 23.5137H30.6733C30.8879 23.5137 31.0626 23.6883 31.0626 23.9029V24.7509C31.0626 24.9656 30.8879 25.1402 30.6733 25.1402H1.32681C1.11213 25.1402 0.9375 24.9656 0.9375 24.7509V23.9029ZM29.8598 31.0519H2.14025C1.95094 31.0519 1.79688 30.8978 1.79688 30.7085V26.0777H30.2031V30.7085C30.2031 30.8978 30.0491 31.0519 29.8598 31.0519Z" fill="black"/>
</g>
<defs>
<clipPath id="clip0_871_36031">
<rect width="32" height="32" fill="white"/>
</clipPath>
</defs>
</svg>
