<svg xmlns="http://www.w3.org/2000/svg" width="88" height="87" viewBox="0 0 88 87">
    <g>
        <path
            d="M 26.00 34.50 C26.00,36.68 24.35,36.34 22.56,33.78 C21.55,32.34 21.00,29.34 21.00,25.28 L 21.00 19.00 L 27.94 19.00 C33.98,19.00 35.09,19.29 36.44,21.22 C40.06,26.39 36.19,33.00 29.55,33.00 C27.06,33.00 26.00,33.45 26.00,34.50 ZM 53.79 34.34 L 53.50 40.45 L 47.30 40.70 C40.93,40.97 38.00,39.62 38.00,36.43 C38.00,33.76 41.85,31.00 45.57,31.00 C48.44,31.00 49.08,30.65 48.81,29.25 C48.38,26.98 44.19,26.34 43.39,28.43 C42.70,30.21 40.44,30.52 39.47,28.96 C38.16,26.84 41.22,25.00 46.05,25.00 C52.80,25.00 54.17,26.65 53.79,34.34 ZM 62.93 44.37 C60.32,47.68 56.00,48.01 56.00,44.89 C56.00,43.54 56.48,42.97 57.34,43.30 C60.72,44.60 60.87,42.35 57.95,34.02 C56.33,29.39 55.00,25.46 55.00,25.30 C55.00,25.13 55.88,25.00 56.96,25.00 C58.31,25.00 59.52,26.34 60.82,29.25 L 62.72 33.50 L 64.47 29.25 C65.66,26.36 66.82,25.00 68.11,25.00 C69.15,25.00 70.00,25.45 70.00,25.99 C70.00,28.32 65.90,37.49 63.79,39.86 C62.53,41.28 62.29,41.84 63.25,41.10 C65.64,39.26 65.46,41.15 62.93,44.37 ZM 26.00 26.06 C26.00,28.92 26.22,29.11 29.25,28.81 C31.96,28.55 32.55,28.04 32.82,25.75 C33.11,23.20 32.87,23.00 29.57,23.00 C26.25,23.00 26.00,23.22 26.00,26.06 ZM 25.66 39.45 C25.05,41.04 22.86,41.52 21.67,40.33 C20.75,39.42 20.82,34.99 21.75,35.03 C23.62,35.11 26.20,38.03 25.66,39.45 ZM 43.54 37.06 C44.54,38.68 48.44,37.72 48.81,35.75 C49.06,34.46 48.49,34.00 46.63,34.00 C43.90,34.00 42.50,35.38 43.54,37.06 Z"
            fill="rgb(44,45,45)" />
        <path
            d="M 63.67 64.48 L 59.34 69.00 L 41.42 68.98 C31.56,68.98 22.92,68.60 22.21,68.15 C21.27,67.55 21.00,64.58 21.21,56.92 L 21.50 46.50 L 38.75 46.23 C53.71,45.99 56.00,45.74 56.00,44.37 C56.00,43.67 56.34,43.24 56.85,43.21 C56.30,43.25 56.00,43.83 56.00,44.89 C56.00,48.00 60.32,47.68 62.92,44.37 L 60.86 46.99 L 64.43 51.35 C66.39,53.75 68.00,56.66 68.00,57.84 C68.00,59.01 66.05,62.00 63.67,64.48 ZM 24.16 57.62 C24.03,64.30 24.20,65.00 25.96,65.00 C27.59,65.00 27.94,64.17 28.20,59.75 C28.46,55.18 28.79,54.46 30.75,54.18 C32.85,53.88 33.00,54.23 33.00,59.43 C33.00,64.33 33.24,65.00 35.00,65.00 C36.73,65.00 37.00,64.33 37.00,60.12 C37.00,55.22 38.82,52.15 40.96,53.47 C41.53,53.83 42.00,56.57 42.00,59.56 C42.00,64.33 42.25,65.00 44.00,65.00 C45.79,65.00 46.00,64.33 46.00,58.70 C46.00,55.13 45.48,51.88 44.80,51.20 C43.27,49.67 39.75,49.65 38.24,51.16 C37.42,51.98 36.71,52.01 35.79,51.26 C35.08,50.68 32.20,50.21 29.40,50.22 L 24.30 50.23 ZM 50.04 62.81 C53.15,66.16 61.00,65.19 61.00,61.46 C61.00,59.81 58.44,59.47 57.50,61.00 C56.56,62.53 53.29,62.19 52.64,60.50 C52.17,59.29 53.03,59.00 57.03,59.00 C61.37,59.00 62.00,58.74 62.00,56.95 C62.00,54.38 57.71,50.00 55.18,50.00 C54.13,50.00 52.08,50.93 50.63,52.07 C47.35,54.66 47.07,59.63 50.04,62.81 ZM 57.36 54.50 C57.79,55.63 57.20,56.00 54.97,56.00 C51.79,56.00 50.98,54.61 53.58,53.61 C55.99,52.68 56.73,52.86 57.36,54.50 Z"
            fill="rgb(62,198,192)" />
        <path
            d="M 0.00 43.50 L 0.00 0.00 L 44.00 0.00 L 88.00 0.00 L 88.00 43.50 L 88.00 87.00 L 44.00 87.00 L 0.00 87.00 L 0.00 43.50 ZM 63.67 64.48 C66.05,62.00 68.00,59.01 68.00,57.84 C68.00,56.66 66.39,53.75 64.43,51.35 L 60.86 46.99 L 62.93 44.36 C65.46,41.15 65.64,39.26 63.25,41.10 C62.29,41.84 62.53,41.28 63.79,39.86 C65.90,37.49 70.00,28.32 70.00,25.99 C70.00,25.45 69.15,25.00 68.11,25.00 C66.82,25.00 65.66,26.36 64.47,29.25 L 62.72 33.50 L 60.82 29.25 C59.52,26.34 58.31,25.00 56.96,25.00 C55.88,25.00 55.00,25.13 55.00,25.30 C55.00,25.46 56.33,29.39 57.95,34.02 C60.87,42.35 60.72,44.60 57.34,43.30 C56.57,43.00 56.00,43.46 56.00,44.37 C56.00,45.74 53.71,45.99 38.75,46.23 L 21.50 46.50 L 21.21 56.92 C21.00,64.58 21.27,67.55 22.21,68.15 C22.92,68.60 31.56,68.98 41.42,68.98 L 59.34 69.00 L 63.67 64.48 ZM 25.66 39.45 C26.20,38.03 23.62,35.11 21.75,35.03 C20.82,34.99 20.75,39.42 21.67,40.33 C22.86,41.52 25.05,41.04 25.66,39.45 ZM 53.79 34.34 C54.17,26.65 52.80,25.00 46.05,25.00 C41.22,25.00 38.16,26.84 39.47,28.96 C40.44,30.52 42.70,30.21 43.39,28.43 C44.19,26.34 48.38,26.98 48.81,29.25 C49.08,30.65 48.44,31.00 45.57,31.00 C41.85,31.00 38.00,33.76 38.00,36.43 C38.00,39.62 40.93,40.97 47.30,40.70 L 53.50 40.45 L 53.79 34.34 ZM 26.00 34.50 C26.00,33.45 27.06,33.00 29.55,33.00 C36.19,33.00 40.06,26.39 36.44,21.22 C35.09,19.29 33.98,19.00 27.94,19.00 L 21.00 19.00 L 21.00 25.28 C21.00,29.34 21.55,32.34 22.56,33.78 C24.35,36.34 26.00,36.68 26.00,34.50 ZM 24.16 57.62 L 24.30 50.23 L 29.40 50.22 C32.20,50.21 35.08,50.68 35.79,51.26 C36.71,52.01 37.42,51.98 38.24,51.16 C39.75,49.65 43.27,49.67 44.80,51.20 C45.48,51.88 46.00,55.13 46.00,58.70 C46.00,64.33 45.79,65.00 44.00,65.00 C42.25,65.00 42.00,64.33 42.00,59.56 C42.00,56.57 41.53,53.83 40.96,53.47 C38.82,52.15 37.00,55.22 37.00,60.12 C37.00,64.33 36.73,65.00 35.00,65.00 C33.24,65.00 33.00,64.33 33.00,59.43 C33.00,54.23 32.85,53.88 30.75,54.18 C28.79,54.46 28.46,55.18 28.20,59.75 C27.94,64.17 27.59,65.00 25.96,65.00 C24.20,65.00 24.03,64.30 24.16,57.62 ZM 50.04 62.81 C47.07,59.63 47.35,54.66 50.63,52.07 C52.08,50.93 54.13,50.00 55.18,50.00 C57.71,50.00 62.00,54.38 62.00,56.95 C62.00,58.74 61.37,59.00 57.03,59.00 C53.03,59.00 52.17,59.29 52.64,60.50 C53.29,62.19 56.56,62.53 57.50,61.00 C58.44,59.47 61.00,59.81 61.00,61.46 C61.00,65.19 53.15,66.16 50.04,62.81 ZM 57.36 54.50 C56.73,52.86 55.99,52.68 53.58,53.61 C50.98,54.61 51.79,56.00 54.97,56.00 C57.20,56.00 57.79,55.63 57.36,54.50 ZM 43.54 37.06 C42.50,35.38 43.90,34.00 46.63,34.00 C48.49,34.00 49.06,34.46 48.81,35.75 C48.44,37.72 44.54,38.68 43.54,37.06 ZM 26.00 26.06 C26.00,23.22 26.25,23.00 29.57,23.00 C32.87,23.00 33.11,23.20 32.82,25.75 C32.55,28.04 31.96,28.55 29.25,28.81 C26.22,29.11 26.00,28.92 26.00,26.06 Z"
            fill="rgb(251,253,253)" />
    </g>
</svg>