<svg width="20" height="20" viewBox="0 0 20 20" fill="none" xmlns="http://www.w3.org/2000/svg">
<path d="M12.7632 14.3422L17.1054 10L11.9737 4.86844M13.6552 3.15968C13.8643 2.95054 14.1126 2.78464 14.3859 2.67145C14.6591 2.55826 14.952 2.5 15.2478 2.5C15.5436 2.5 15.8365 2.55826 16.1097 2.67145C16.383 2.78464 16.6313 2.95054 16.8404 3.15968C17.0496 3.36883 17.2155 3.61712 17.3287 3.89039C17.4418 4.16365 17.5001 4.45653 17.5001 4.75231C17.5001 5.04808 17.4418 5.34096 17.3287 5.61422C17.2155 5.88749 17.0496 6.13578 16.8404 6.34493L5.69549 17.5H2.5L2.5 14.3045L13.6552 3.15968Z" stroke="white" stroke-width="2" stroke-linecap="round" stroke-linejoin="round"/>
</svg>
