<svg width="20" height="20" viewBox="0 0 20 20" fill="none" xmlns="http://www.w3.org/2000/svg">
<path d="M4.26503 1.66675C3.57599 1.66675 2.91517 1.94047 2.42794 2.4277C1.94071 2.91492 1.66699 3.57574 1.66699 4.26479C1.66699 4.28165 1.6675 4.29851 1.66853 4.31534C1.89003 7.96032 3.43789 11.3982 6.02004 13.9804C8.60219 16.5625 12.0401 18.1104 15.6851 18.3319C15.7019 18.3329 15.7188 18.3334 15.7356 18.3334C16.4247 18.3334 17.0855 18.0597 17.5727 17.5725C18.0599 17.0852 18.3337 16.4244 18.3337 15.7354V13.3344C18.3337 12.3121 17.7113 11.3928 16.7621 11.0132L14.5456 10.1265C13.5045 9.71009 12.315 10.1108 11.7381 11.0723C11.5549 11.3776 11.245 11.3987 11.0784 11.2857C10.1479 10.6547 9.34567 9.85246 8.7147 8.92199C8.60173 8.7554 8.62283 8.44546 8.92809 8.26231C9.88962 7.68539 10.2903 6.49594 9.87387 5.45482L8.98725 3.23827C8.60759 2.28913 7.68832 1.66675 6.66605 1.66675H4.26503Z" fill="white"/>
</svg>
