<svg width="49" height="44" viewBox="0 0 49 44" fill="none" xmlns="http://www.w3.org/2000/svg">
<g clip-path="url(#clip0_927_11607)">
<path d="M28.7909 37.8308L26.6633 36.4191C26.5248 36.3267 26.4114 36.2015 26.3331 36.0546C26.2548 35.9077 26.2141 35.7437 26.2146 35.5772V23.0083H22.1813V35.5772C22.1813 35.7431 22.1403 35.9065 22.0621 36.0529C21.9838 36.1992 21.8706 36.324 21.7325 36.4161L19.605 37.8308C19.4669 37.9229 19.3537 38.0477 19.2754 38.194C19.1972 38.3404 19.1562 38.5038 19.1563 38.6697V39.1416C19.1563 39.4091 19.2625 39.6655 19.4516 39.8546C19.6407 40.0437 19.8972 40.15 20.1646 40.15H28.2312C28.4987 40.15 28.7552 40.0437 28.9443 39.8546C29.1333 39.6655 29.2396 39.4091 29.2396 39.1416V38.6728C29.2401 38.5063 29.1994 38.3423 29.1211 38.1954C29.0428 38.0484 28.9294 37.9232 28.7909 37.8308Z" fill="#FFDE70"/>
<path d="M37.3066 16.9585H10.0816C9.52469 16.9585 9.07324 17.4099 9.07324 17.9668V19.9835C9.07324 20.5404 9.52469 20.9918 10.0816 20.9918H37.3066C37.8635 20.9918 38.3149 20.5404 38.3149 19.9835V17.9668C38.3149 17.4099 37.8635 16.9585 37.3066 16.9585Z" fill="#FFF0BF"/>
<path d="M25.2074 6.92955V5.86676H26.2157C26.4831 5.86676 26.7396 5.76053 26.9287 5.57143C27.1178 5.38233 27.224 5.12586 27.224 4.85843C27.224 4.591 27.1178 4.33453 26.9287 4.14543C26.7396 3.95633 26.4831 3.8501 26.2157 3.8501H22.1824C21.915 3.8501 21.6585 3.95633 21.4694 4.14543C21.2803 4.33453 21.174 4.591 21.174 4.85843C21.174 5.12586 21.2803 5.38233 21.4694 5.57143C21.6585 5.76053 21.915 5.86676 22.1824 5.86676H23.1907V6.92955C21.0515 7.14693 19.0375 8.04117 17.4416 9.48218C15.8457 10.9232 14.7513 12.8358 14.3174 14.9418H34.0807C33.6468 12.8358 32.5524 10.9232 30.9565 9.48218C29.3606 8.04117 27.3466 7.14693 25.2074 6.92955ZM22.8882 11.0506C21.5003 11.3604 20.2649 12.1472 19.3974 13.274C19.2346 13.4863 18.9942 13.6253 18.729 13.6604C18.4638 13.6955 18.1955 13.6238 17.9832 13.461C17.7708 13.2983 17.6318 13.0579 17.5968 12.7927C17.5617 12.5275 17.6334 12.2592 17.7961 12.0468C18.9531 10.544 20.6005 9.49453 22.4516 9.08133C22.5809 9.05266 22.7146 9.04974 22.845 9.07274C22.9755 9.09574 23.1001 9.1442 23.2118 9.21536C23.3235 9.28652 23.4201 9.37899 23.4961 9.48748C23.572 9.59597 23.6259 9.71836 23.6545 9.84766C23.6832 9.97697 23.6861 10.1107 23.6631 10.2411C23.6401 10.3715 23.5917 10.4961 23.5205 10.6078C23.4494 10.7196 23.3569 10.8161 23.2484 10.8921C23.1399 10.9681 23.0175 11.0219 22.8882 11.0506Z" fill="#FFDE70"/>
<path d="M47.8938 14.6178C47.705 14.4025 47.4724 14.2301 47.2115 14.112C46.9507 13.994 46.6676 13.933 46.3813 13.9331H45.2933C44.8514 13.9354 44.4225 14.0828 44.0726 14.3526C43.7226 14.6224 43.471 14.9997 43.3563 15.4264L40.7477 25.169H34.5273C33.8581 25.1696 33.2082 25.3929 32.6798 25.8037C32.1515 26.2145 31.7749 26.7893 31.6092 27.4377L31.3219 28.5539C31.2449 28.8518 31.2372 29.1634 31.2992 29.4647C31.3612 29.766 31.4914 30.0492 31.6797 30.2925C31.868 30.5358 32.1095 30.7327 32.3856 30.8683C32.6618 31.0039 32.9653 31.0745 33.273 31.0748H33.3426L31.3955 38.8974C31.3635 39.026 31.3572 39.1596 31.3769 39.2906C31.3965 39.4217 31.4419 39.5475 31.5102 39.661C31.5786 39.7745 31.6686 39.8734 31.7753 39.9521C31.8819 40.0308 32.0029 40.0877 32.1315 40.1195C32.2113 40.1399 32.2933 40.1501 32.3756 40.1498C32.6005 40.1497 32.8189 40.0744 32.9962 39.936C33.1734 39.7975 33.2992 39.6037 33.3536 39.3855L35.4177 31.0748H42.6505L44.4917 39.3602C44.5414 39.5838 44.6657 39.7838 44.8442 39.9273C45.0227 40.0708 45.2448 40.1493 45.4738 40.1498C45.5477 40.1496 45.6214 40.1415 45.6936 40.1256C45.8229 40.0969 45.9454 40.0431 46.0539 39.9671C46.1624 39.8912 46.2548 39.7946 46.326 39.6829C46.3972 39.5712 46.4456 39.4465 46.4686 39.3161C46.4916 39.1856 46.4887 39.0519 46.46 38.9226L44.6813 30.9205C45.2252 30.7472 45.709 30.4236 46.0767 29.9869C46.4444 29.5503 46.6811 29.0186 46.7594 28.4531L48.3808 16.22C48.4188 15.9336 48.395 15.6425 48.311 15.3661C48.227 15.0897 48.0847 14.8345 47.8938 14.6178Z" fill="#FFF0BF"/>
<path d="M16.7157 30.2953C16.9053 30.0521 17.0364 29.7686 17.0988 29.4666C17.1612 29.1646 17.1533 28.8524 17.0757 28.5539L16.7873 27.4387C16.622 26.7903 16.2456 26.2154 15.7174 25.8046C15.1892 25.3938 14.5393 25.1705 13.8702 25.17H7.65382L5.04526 15.4264C4.93037 14.9989 4.67796 14.621 4.32698 14.3511C3.976 14.0812 3.54596 13.9343 3.10321 13.9331H2.00816C1.7214 13.934 1.43813 13.9961 1.17726 14.1152C0.916394 14.2343 0.683921 14.4076 0.495356 14.6237C0.306791 14.8397 0.16647 15.0935 0.0837571 15.3681C0.00104396 15.6427 -0.0221595 15.9317 0.0156949 16.216L1.6371 28.4531C1.71435 29.0188 1.95012 29.5511 2.31716 29.9884C2.6842 30.4258 3.16752 30.7503 3.71124 30.9245L1.93254 38.9226C1.87451 39.1838 1.92259 39.4573 2.06621 39.683C2.20983 39.9087 2.43722 40.068 2.69837 40.1261C2.95951 40.1841 3.23301 40.136 3.4587 39.9924C3.68439 39.8488 3.84378 39.6214 3.90181 39.3602L5.74505 31.0748H12.9808L15.0489 39.3855C15.1035 39.6042 15.2298 39.7983 15.4076 39.9369C15.5855 40.0754 15.8046 40.1504 16.03 40.1498C16.1123 40.1501 16.1943 40.1399 16.2741 40.1195C16.4026 40.0876 16.5235 40.0306 16.63 39.9519C16.7365 39.8731 16.8265 39.7742 16.8947 39.6607C16.963 39.5473 17.0082 39.4214 17.0279 39.2905C17.0475 39.1595 17.0411 39.0259 17.0091 38.8974L15.057 31.0748H15.1276C15.4344 31.0755 15.7372 31.0056 16.0126 30.8705C16.2881 30.7353 16.5286 30.5385 16.7157 30.2953Z" fill="#FFF0BF"/>
</g>
<defs>
<clipPath id="clip0_927_11607">
<rect width="48.4" height="44" fill="white"/>
</clipPath>
</defs>
</svg>
