<svg width="18" height="18" viewBox="0 0 18 18" fill="none" xmlns="http://www.w3.org/2000/svg">
<path d="M0.5 4.5C0.5 5.05228 0.947715 5.5 1.5 5.5C2.05228 5.5 2.5 5.05228 2.5 4.5H1.5H0.5ZM1.5 1.5V0.5C0.947715 0.5 0.5 0.947715 0.5 1.5L1.5 1.5ZM4.5 2.5C5.05228 2.5 5.5 2.05228 5.5 1.5C5.5 0.947715 5.05228 0.5 4.5 0.5V1.5V2.5ZM2.5 13.5C2.5 12.9477 2.05228 12.5 1.5 12.5C0.947715 12.5 0.5 12.9477 0.5 13.5H1.5H2.5ZM1.5 16.5H0.5C0.5 17.0523 0.947715 17.5 1.5 17.5L1.5 16.5ZM4.5 17.5C5.05228 17.5 5.5 17.0523 5.5 16.5C5.5 15.9477 5.05228 15.5 4.5 15.5V16.5V17.5ZM15.5 4.5C15.5 5.05228 15.9477 5.5 16.5 5.5C17.0523 5.5 17.5 5.05228 17.5 4.5H16.5H15.5ZM16.5 1.5H17.5C17.5 0.947715 17.0523 0.5 16.5 0.5V1.5ZM13.5 0.5C12.9477 0.5 12.5 0.947715 12.5 1.5C12.5 2.05228 12.9477 2.5 13.5 2.5V1.5V0.5ZM17.5 13.5C17.5 12.9477 17.0523 12.5 16.5 12.5C15.9477 12.5 15.5 12.9477 15.5 13.5H16.5H17.5ZM16.5 16.5V17.5C17.0523 17.5 17.5 17.0523 17.5 16.5H16.5ZM13.5 15.5C12.9477 15.5 12.5 15.9477 12.5 16.5C12.5 17.0523 12.9477 17.5 13.5 17.5V16.5V15.5ZM12.5 11.25C12.5 11.8023 12.9477 12.25 13.5 12.25C14.0523 12.25 14.5 11.8023 14.5 11.25H13.5H12.5ZM14.5 10.5C14.5 9.94771 14.0523 9.5 13.5 9.5C12.9477 9.5 12.5 9.94771 12.5 10.5H13.5H14.5ZM13.5 14.5C14.0523 14.5 14.5 14.0523 14.5 13.5C14.5 12.9477 14.0523 12.5 13.5 12.5V13.5V14.5ZM10.5 12.5C9.94771 12.5 9.5 12.9477 9.5 13.5C9.5 14.0523 9.94771 14.5 10.5 14.5V13.5V12.5ZM10.5 9.5C9.94771 9.5 9.5 9.94771 9.5 10.5C9.5 11.0523 9.94771 11.5 10.5 11.5V10.5V9.5ZM11.25 11.5C11.8023 11.5 12.25 11.0523 12.25 10.5C12.25 9.94771 11.8023 9.5 11.25 9.5V10.5V11.5ZM1.5 4.5H2.5V1.5H1.5H0.5V4.5H1.5ZM1.5 1.5V2.5H4.5V1.5V0.5H1.5V1.5ZM1.5 13.5H0.5V16.5H1.5H2.5V13.5H1.5ZM1.5 16.5V17.5H4.5V16.5V15.5H1.5V16.5ZM16.5 4.5H17.5V1.5H16.5H15.5V4.5H16.5ZM16.5 1.5V0.5H13.5V1.5V2.5H16.5V1.5ZM16.5 13.5H15.5V16.5H16.5H17.5V13.5H16.5ZM16.5 16.5V15.5H13.5V16.5V17.5H16.5V16.5ZM5.25 4.5V5.5H6.75V4.5V3.5H5.25V4.5ZM7.5 5.25H6.5V6.75H7.5H8.5V5.25H7.5ZM6.75 7.5V6.5H5.25V7.5V8.5H6.75V7.5ZM4.5 6.75H5.5V5.25H4.5H3.5V6.75H4.5ZM5.25 7.5V6.5C5.38807 6.5 5.5 6.61193 5.5 6.75H4.5H3.5C3.5 7.7165 4.2835 8.5 5.25 8.5V7.5ZM7.5 6.75H6.5C6.5 6.61193 6.61193 6.5 6.75 6.5V7.5V8.5C7.7165 8.5 8.5 7.7165 8.5 6.75H7.5ZM6.75 4.5V5.5C6.61193 5.5 6.5 5.38807 6.5 5.25H7.5H8.5C8.5 4.2835 7.7165 3.5 6.75 3.5V4.5ZM5.25 4.5V3.5C4.2835 3.5 3.5 4.2835 3.5 5.25H4.5H5.5C5.5 5.38807 5.38807 5.5 5.25 5.5V4.5ZM5.25 10.5V11.5H6.75V10.5V9.5H5.25V10.5ZM7.5 11.25H6.5V12.75H7.5H8.5V11.25H7.5ZM6.75 13.5V12.5H5.25V13.5V14.5H6.75V13.5ZM4.5 12.75H5.5V11.25H4.5H3.5V12.75H4.5ZM5.25 13.5V12.5C5.38807 12.5 5.5 12.6119 5.5 12.75H4.5H3.5C3.5 13.7165 4.2835 14.5 5.25 14.5V13.5ZM7.5 12.75H6.5C6.5 12.6119 6.61193 12.5 6.75 12.5V13.5V14.5C7.7165 14.5 8.5 13.7165 8.5 12.75H7.5ZM6.75 10.5V11.5C6.61193 11.5 6.5 11.3881 6.5 11.25H7.5H8.5C8.5 10.2835 7.7165 9.5 6.75 9.5V10.5ZM5.25 10.5V9.5C4.2835 9.5 3.5 10.2835 3.5 11.25H4.5H5.5C5.5 11.3881 5.38807 11.5 5.25 11.5V10.5ZM11.25 4.5V5.5H12.75V4.5V3.5H11.25V4.5ZM13.5 5.25H12.5V6.75H13.5H14.5V5.25H13.5ZM12.75 7.5V6.5H11.25V7.5V8.5H12.75V7.5ZM10.5 6.75H11.5V5.25H10.5H9.5V6.75H10.5ZM11.25 7.5V6.5C11.3881 6.5 11.5 6.61193 11.5 6.75H10.5H9.5C9.5 7.7165 10.2835 8.5 11.25 8.5V7.5ZM13.5 6.75H12.5C12.5 6.61193 12.6119 6.5 12.75 6.5V7.5V8.5C13.7165 8.5 14.5 7.7165 14.5 6.75H13.5ZM12.75 4.5V5.5C12.6119 5.5 12.5 5.38807 12.5 5.25H13.5H14.5C14.5 4.2835 13.7165 3.5 12.75 3.5V4.5ZM11.25 4.5V3.5C10.2835 3.5 9.5 4.2835 9.5 5.25H10.5H11.5C11.5 5.38807 11.3881 5.5 11.25 5.5V4.5ZM13.5 11.25H14.5V10.5H13.5H12.5V11.25H13.5ZM13.5 13.5V12.5H10.5V13.5V14.5H13.5V13.5ZM10.5 10.5V11.5H11.25V10.5V9.5H10.5V10.5Z" fill="#090B09"/>
</svg>
