<svg width="200" height="200" viewBox="0 0 200 200" fill="none" xmlns="http://www.w3.org/2000/svg">
    <path
        d="M106.832 95.3124C102.379 98.828 97.0663 101.512 91.2538 102.504C89.7893 102.741 88.3076 102.854 86.8241 102.844C86.4335 102.844 86.078 102.812 85.703 102.801C85.3238 102.791 84.9455 102.758 84.5702 102.703L83.4257 102.539C83.035 102.484 82.6757 102.359 82.3007 102.269L81.7382 102.121L81.4569 102.043L81.1835 101.941L80.0897 101.523L79.8163 101.418L79.5585 101.285L79.035 101.019C78.6807 100.853 78.3375 100.664 78.0077 100.453L77.0311 99.8046C76.6991 99.5937 76.4179 99.3202 76.1093 99.0819C75.505 98.5856 74.9347 98.0492 74.4022 97.4765C74.1327 97.1913 73.8983 96.8788 73.6522 96.5819L73.2616 96.1249C73.1405 95.9726 73.0429 95.8085 72.9296 95.6483L72.2811 94.6796C72.0819 94.3437 71.8905 94.0038 71.7108 93.664L71.4335 93.1523C71.3475 92.9765 71.2733 92.8007 71.1952 92.6249L70.7225 91.5624L70.3319 90.4687L70.1444 89.9179L69.996 89.3593L69.7108 88.2343L69.5311 87.1093L69.4335 86.539C69.4061 86.3476 69.3944 86.1483 69.3749 85.9608L69.2694 84.789C69.2499 84.3983 69.2694 84.0077 69.2694 83.6171C69.2694 83.2265 69.2694 82.8358 69.289 82.4452C69.3293 81.6735 69.4088 80.9042 69.5272 80.1405C70.0229 77.1059 71.0828 74.191 72.6522 71.5468C74.1848 68.9442 76.0845 66.576 78.2929 64.5155C80.4683 62.4692 82.8892 60.7005 85.4999 59.2499C88.1089 57.7803 90.9015 56.6638 93.8046 55.9296C95.2637 55.5726 96.7467 55.3219 98.2421 55.1796C99.7383 55.0461 101.242 55.02 102.742 55.1015C104.258 55.2116 105.761 55.4547 107.234 55.828C108.731 56.2286 110.174 56.8083 111.531 57.5546C112.899 58.3456 114.135 59.3445 115.195 60.5155C115.699 61.1286 116.153 61.7818 116.551 62.4687C116.95 63.1306 117.293 63.8243 117.578 64.5429C118.139 65.9475 118.526 67.4154 118.73 68.914C118.935 70.3825 118.99 71.868 118.894 73.3476C118.722 76.2594 118.099 79.1268 117.047 81.8476C116.068 84.5664 114.573 87.0706 112.644 89.2226L112.344 88.9765C113.933 86.6887 115.109 84.1396 115.816 81.4452C116.565 78.7988 116.928 76.0584 116.894 73.3085C116.82 70.6054 116.363 67.914 115.223 65.5663C114.951 64.9856 114.631 64.4289 114.266 63.9023C113.915 63.3835 113.523 62.8937 113.094 62.4374C112.205 61.5547 111.19 60.8095 110.082 60.2265C108.931 59.6648 107.719 59.2413 106.469 58.9648C105.182 58.7019 103.875 58.5516 102.562 58.5155C99.9115 58.454 97.2659 58.7831 94.7108 59.4921C92.1431 60.2154 89.6789 61.2657 87.3788 62.6171C85.063 63.948 82.9172 65.5548 80.9882 67.4023C80.0286 68.3166 79.1283 69.2913 78.2929 70.3202C77.475 71.3487 76.7284 72.432 76.0585 73.5624C74.728 75.7878 73.8084 78.2343 73.3436 80.7851C72.4686 85.8046 73.6913 91.3007 76.9257 95.2382C78.5483 97.1988 80.6898 98.6634 83.1054 99.4648C83.41 99.5546 83.703 99.6835 84.0194 99.746L84.9647 99.9491C85.2838 100.025 85.6074 100.079 85.9335 100.113C86.2655 100.148 86.5897 100.215 86.9257 100.226C88.2658 100.338 89.6129 100.338 90.953 100.226C92.3188 100.106 93.6757 99.9003 95.0155 99.6093C96.3612 99.3047 97.6888 98.9252 98.9921 98.4726C101.634 97.5444 104.185 96.3755 106.613 94.9804L106.832 95.3124Z"
        fill="#020202" />
    <path
        d="M66.3791 95.3632C65.5957 93.5766 64.9988 91.7138 64.5978 89.8046C64.2102 87.8895 64.0308 85.9381 64.0627 83.9843C64.1177 80.0726 64.8937 76.2045 66.3518 72.5742C67.7967 68.9336 69.7912 65.5361 72.2658 62.5C74.7487 59.435 77.6647 56.7479 80.9221 54.5234C84.1859 52.2739 87.7119 50.4308 91.4221 49.0351C95.1943 47.5801 99.1734 46.7324 103.211 46.5234C107.416 46.2902 111.616 47.0545 115.469 48.7539C117.417 49.6482 119.245 50.7834 120.91 52.1328C122.576 53.4661 124.09 54.9777 125.426 56.6406C128.185 60.0436 130.077 64.0647 130.942 68.3593C131.767 72.6975 131.555 77.1692 130.324 81.4101C129.753 83.4718 128.996 85.4774 128.063 87.4023C127.153 89.2977 126.109 91.1253 124.938 92.8711C123.792 94.611 122.532 96.2723 121.164 97.8437C119.799 99.4211 118.327 100.902 116.758 102.277C113.633 105.049 110.132 107.364 106.36 109.156C104.461 110.057 102.489 110.792 100.465 111.355C99.9533 111.484 99.4494 111.629 98.9338 111.746C98.4182 111.863 97.9064 111.977 97.3713 112.066C96.8361 112.156 96.3283 112.234 95.8088 112.297C95.2893 112.359 94.758 112.418 94.2463 112.453C92.1351 112.611 90.0126 112.522 87.9221 112.187C85.852 111.851 83.8332 111.252 81.9143 110.406C78.1749 108.78 74.9382 106.184 72.5393 102.887L72.8166 102.613C75.8376 104.864 79.2978 106.454 82.9729 107.281C86.4625 108.035 90.073 108.035 93.5627 107.281C93.9924 107.191 94.4221 107.078 94.8479 106.977C95.2736 106.875 95.6994 106.734 96.1213 106.613C96.5432 106.492 96.9611 106.34 97.3791 106.203C97.7971 106.066 98.2072 105.894 98.6213 105.738C100.269 105.071 101.866 104.288 103.403 103.394C106.493 101.596 109.36 99.4388 111.946 96.9687C113.237 95.7331 114.462 94.4292 115.613 93.0625C115.899 92.7187 116.184 92.3789 116.453 92.0234C116.723 91.6679 116.996 91.3242 117.262 90.9609C117.804 90.2421 118.324 89.5104 118.824 88.7656C119.801 87.2962 120.689 85.7701 121.485 84.1953C122.261 82.6461 122.914 81.0383 123.438 79.3867C123.943 77.776 124.29 76.1196 124.473 74.4414C124.644 72.7909 124.623 71.1261 124.41 69.4804C123.944 66.1082 122.719 62.8856 120.828 60.0547C119.866 58.6054 118.752 57.2632 117.504 56.0507C116.271 54.8288 114.89 53.7647 113.395 52.8828C110.282 51.1411 106.802 50.1574 103.238 50.0117C99.5044 49.8615 95.7711 50.3261 92.1877 51.3867C88.5476 52.4363 85.0638 53.9668 81.8283 55.9375C75.2412 59.9015 70.0423 65.8071 66.9455 72.8437C66.1853 74.6093 65.5852 76.4395 65.1525 78.3125C64.7269 80.1853 64.4874 82.0956 64.4377 84.0156C64.3489 87.8725 65.1286 91.7 66.7189 95.2148L66.3791 95.3632Z"
        fill="#020202" />
    <path
        d="M116.316 97.4453C116.336 97.3672 116.484 97.3125 116.488 97.2969C116.522 97.2716 116.557 97.2482 116.594 97.2266C116.637 97.1797 116.711 97.1406 116.75 97.0977L117.016 96.9023C117.195 96.7656 117.328 96.7031 117.484 96.5977C117.732 96.45 117.994 96.327 118.266 96.2305C118.597 96.0853 118.97 96.07 119.312 96.1875C119.781 96.4648 120.207 96.7734 120.644 97.0664C121.512 97.6602 122.363 98.2383 123.207 98.8555L125.719 100.668L126.91 101.539L128.168 102.426C131.514 104.801 134.829 107.201 138.113 109.625L143.062 113.223C144.715 114.395 146.308 115.547 147.957 116.523C149.507 117.489 151.18 118.245 152.93 118.77C153.692 118.986 154.481 119.094 155.273 119.09C155.961 119.083 156.638 118.922 157.254 118.617C157.887 118.282 158.44 117.812 158.875 117.242C159.36 116.637 159.733 115.951 159.976 115.215C160.43 113.692 160.301 112.054 159.613 110.621C158.875 109.031 157.756 107.648 156.355 106.594C156.18 106.457 155.996 106.328 155.812 106.203C155.723 106.141 155.625 106.086 155.535 106.023L155.23 105.84L153.906 105.078C153.027 104.566 152.152 104.055 151.262 103.562C147.746 101.555 144.07 99.7852 140.351 98.0508L134.766 95.4141C132.904 94.5391 131.053 93.6276 129.215 92.6797L129.371 92.3203L135.207 94.3164C137.16 94.9766 139.113 95.6055 141.066 96.2695C144.973 97.6094 148.855 99.0898 152.641 100.824C153.59 101.258 154.527 101.707 155.461 102.164L156.859 102.855C156.973 102.91 157.094 102.973 157.226 103.047C157.359 103.121 157.484 103.184 157.617 103.262C157.871 103.406 158.121 103.559 158.363 103.723C160.353 105.024 161.975 106.814 163.074 108.922C163.645 110.031 164.029 111.227 164.211 112.461C164.393 113.745 164.32 115.053 163.996 116.309C163.667 117.551 163.12 118.724 162.379 119.773C161.622 120.883 160.635 121.815 159.484 122.508C158.291 123.205 156.956 123.625 155.578 123.734C154.318 123.831 153.051 123.744 151.816 123.477C149.586 122.965 147.435 122.158 145.418 121.078C143.52 120.085 141.675 118.993 139.891 117.809C138.148 116.686 136.424 115.542 134.719 114.375C131.293 112.062 127.957 109.637 124.664 107.172L123.437 106.281L122.176 105.289L119.785 103.375L117.402 101.48C117.012 101.164 116.621 100.871 116.23 100.559C116.037 100.296 115.956 99.9672 116.004 99.6445C116.019 99.3811 116.058 99.1195 116.121 98.8633C116.168 98.6953 116.191 98.5703 116.254 98.3711C116.285 98.2773 116.308 98.1953 116.348 98.0937C116.387 97.9922 116.398 97.9922 116.41 97.9336C116.422 97.875 116.461 97.8867 116.473 97.8555C116.484 97.8242 116.594 97.7891 116.598 97.7188L116.316 97.4453Z"
        fill="#020202" />
    <path
        d="M143 115.594C143 115.594 146.965 103.543 157.664 105.828C163.43 112.469 159.34 119.246 156.941 120.629C154.543 122.012 143 115.594 143 115.594Z"
        fill="#020202" />
    <path
        d="M80.0781 74.1758C80.2021 75.2092 80.4204 76.2291 80.7304 77.2227C80.8432 77.5516 81.0366 77.847 81.2929 78.082C81.5459 78.2675 81.847 78.376 82.1601 78.3945C82.6069 78.4301 83.0564 78.4038 83.496 78.3164C84.0028 78.2323 84.5048 78.1215 84.9999 77.9844C86.0273 77.707 87.0781 77.3594 88.2031 77.0859L88.4023 77.4219C87.5973 78.27 86.6689 78.9917 85.6484 79.5625C85.3879 79.7081 85.1192 79.8386 84.8437 79.9531C84.5638 80.0823 84.2754 80.1919 83.9804 80.2813C83.6744 80.3778 83.3626 80.4547 83.0468 80.5117C82.7032 80.5652 82.3552 80.5848 82.0078 80.5703C81.207 80.5717 80.4346 80.2735 79.8426 79.7342C79.2505 79.1949 78.8817 78.4537 78.8085 77.6563C78.7301 77.0128 78.7765 76.3602 78.9453 75.7344C79.094 75.1375 79.3494 74.5724 79.6992 74.0664L80.0781 74.1758Z"
        fill="#020202" />
    <path
        d="M96.3204 78.4609C96.8026 79.7747 97.3986 81.0438 98.1016 82.2539C98.3837 82.7079 98.748 83.1054 99.1758 83.4258C99.5708 83.7078 100.033 83.8815 100.516 83.9297C101.107 83.9793 101.702 83.9491 102.285 83.8398C102.947 83.706 103.599 83.5299 104.238 83.3125C105.574 82.8711 106.934 82.3008 108.383 81.7852L108.609 82.1016C107.629 83.3171 106.454 84.3625 105.133 85.1953C104.961 85.2969 104.797 85.4102 104.617 85.5039L104.078 85.7813C103.706 85.9628 103.324 86.1232 102.934 86.2617C102.083 86.5527 101.187 86.6851 100.289 86.6523C99.278 86.6075 98.3048 86.2545 97.5 85.6406C96.7425 85.0448 96.1684 84.2473 95.8438 83.3398C95.5585 82.5355 95.4261 81.685 95.4532 80.832C95.4628 80.0139 95.6286 79.2052 95.9414 78.4492L96.3204 78.4609Z"
        fill="#020202" />
    <path
        d="M131.539 116.375L120.508 116.543L109.477 116.68C102.125 116.766 94.7695 116.883 87.418 116.937L43.2969 117.328L32.2656 117.387L26.75 117.414H23.9922C23.2267 117.405 22.4642 117.512 21.7305 117.73C21.1473 117.908 20.6454 118.286 20.3125 118.797C19.9574 119.408 19.7463 120.092 19.6953 120.797C19.6068 121.651 19.5729 122.509 19.5937 123.367V126.125L19.6484 137.152L19.6758 142.668V145.426V146.785C19.6758 146.977 19.6758 147.176 19.707 147.344C19.707 147.426 19.707 147.519 19.7344 147.594C19.7529 147.658 19.7672 147.723 19.7773 147.789C19.7773 147.867 19.8125 147.875 19.8242 147.926C19.8231 147.945 19.8231 147.965 19.8242 147.984V148.004C19.8259 148.013 19.8259 148.022 19.8242 148.031C19.8242 148.031 19.8242 148.055 19.8555 148.059C19.8867 148.062 19.8555 148.086 19.9219 148.102C19.9665 148.117 20.0097 148.137 20.0508 148.16L20.25 148.215L20.3516 148.246L20.4766 148.269C21.288 148.396 22.1084 148.458 22.9297 148.453C24.7148 148.477 26.5742 148.453 28.3984 148.453L50.457 148.394L94.5977 148.316C109.305 148.316 124.012 148.285 138.738 148.336L160.797 148.383L171.828 148.418H174.586H175.965C176.207 148.418 176.387 148.418 176.594 148.418C176.801 148.418 176.984 148.418 177.195 148.394C177.874 148.357 178.539 148.183 179.148 147.883L179.32 147.789C179.362 147.747 179.406 147.708 179.453 147.672C179.542 147.599 179.621 147.515 179.688 147.422C179.728 147.379 179.76 147.329 179.781 147.273L179.875 147.117C179.895 147.051 179.918 146.986 179.945 146.922C179.976 146.856 179.998 146.786 180.012 146.715C180.171 145.962 180.23 145.191 180.188 144.422V143.727V141.633L180.215 136.117L180.266 125.09L180.289 119.582C180.293 119.256 180.256 118.93 180.18 118.613C180.15 118.419 180.056 118.241 179.914 118.105C179.734 117.867 179.016 117.656 178.223 117.57C176.59 117.394 174.707 117.496 172.867 117.406C171.001 117.342 169.148 117.052 167.352 116.543C167.28 116.523 167.212 116.488 167.154 116.442C167.095 116.396 167.046 116.338 167.01 116.273C166.973 116.207 166.95 116.135 166.942 116.061C166.934 115.987 166.94 115.912 166.961 115.84C166.988 115.747 167.038 115.663 167.107 115.595C167.175 115.527 167.259 115.477 167.352 115.449C169.149 114.943 171.001 114.654 172.867 114.59C173.789 114.539 174.703 114.547 175.637 114.547C176.57 114.547 177.516 114.547 178.535 114.652C179.087 114.705 179.632 114.81 180.164 114.965C180.471 115.056 180.769 115.175 181.055 115.32C181.378 115.489 181.677 115.702 181.941 115.953C182.218 116.21 182.454 116.508 182.641 116.836C182.723 116.996 182.801 117.156 182.875 117.32C182.937 117.476 182.989 117.635 183.031 117.797C183.183 118.37 183.26 118.961 183.262 119.555L183.289 125.078L183.34 136.105L183.363 141.621V143V143.664V144.352C183.424 145.42 183.337 146.491 183.105 147.535C183.024 147.843 182.921 148.144 182.797 148.437C182.727 148.586 182.641 148.734 182.559 148.883C182.482 149.035 182.391 149.179 182.285 149.312C182.087 149.601 181.853 149.863 181.59 150.094L181.199 150.426L180.781 150.684C179.76 151.243 178.63 151.576 177.469 151.66C177.207 151.687 176.953 151.687 176.688 151.703C176.422 151.719 176.156 151.73 175.941 151.727H174.562H171.805L160.773 151.758L138.715 151.809C124.008 151.859 109.301 151.832 94.5742 151.828L50.4531 151.746L28.5156 151.719C26.6719 151.719 24.8516 151.719 22.9609 151.676C21.943 151.67 20.9275 151.575 19.9258 151.394L19.7148 151.352L19.4883 151.289C19.332 151.238 19.1836 151.195 19.0273 151.141C18.8711 151.086 18.6914 150.992 18.5273 150.91C18.3491 150.814 18.1792 150.703 18.0195 150.578C17.8464 150.45 17.6891 150.302 17.5508 150.137C17.4805 150.055 17.4023 149.973 17.3398 149.887L17.1875 149.609L17.0352 149.332C16.995 149.246 16.9597 149.157 16.9297 149.066C16.8614 148.899 16.8065 148.727 16.7656 148.551L16.668 148.07C16.6445 147.914 16.6367 147.781 16.6211 147.633C16.5859 147.336 16.5898 147.086 16.582 146.82V145.418V142.66L16.6094 137.144L16.6641 126.117V123.359C16.6542 122.378 16.7064 121.397 16.8203 120.422C16.9327 119.289 17.3043 118.197 17.9062 117.23L18.168 116.84L18.4883 116.488C18.7023 116.257 18.9392 116.047 19.1953 115.863C19.3171 115.765 19.4479 115.679 19.5859 115.605L19.9766 115.379C20.2437 115.252 20.5176 115.14 20.7969 115.043C21.8249 114.732 22.895 114.583 23.9688 114.602H26.7266L32.2422 114.629L43.2734 114.684L87.4141 115.074C94.7656 115.129 102.121 115.246 109.473 115.328L120.504 115.465L131.535 115.633C131.625 115.642 131.707 115.684 131.767 115.751C131.828 115.818 131.861 115.904 131.861 115.994C131.861 116.084 131.828 116.171 131.767 116.237C131.707 116.304 131.625 116.346 131.535 116.355L131.539 116.375Z"
        fill="#020202" />
    <path
        d="M100 170.551C141.389 170.551 174.941 168.452 174.941 165.863C174.941 163.274 141.389 161.176 100 161.176C58.611 161.176 25.0586 163.274 25.0586 165.863C25.0586 168.452 58.611 170.551 100 170.551Z"
        fill="#020202" />
    <path
        d="M144.02 150.09C144.02 150.09 148.648 149.43 148.648 142.996V145.941C148.648 148.406 153.574 150.09 153.574 150.09H144.02Z"
        fill="#020202" />
    <path
        d="M143.824 150.102C143.827 150.038 143.855 149.977 143.902 149.934C143.953 149.875 144.055 149.859 144.039 149.855L144.086 149.812L144.184 149.73L144.371 149.574C144.492 149.465 144.613 149.367 144.727 149.258C144.953 149.055 145.168 148.867 145.367 148.652C145.753 148.261 146.115 147.846 146.449 147.41C146.605 147.187 146.785 146.98 146.938 146.738C147.09 146.496 147.262 146.266 147.43 146.016C147.782 145.493 148.055 144.922 148.242 144.32C148.408 143.695 148.48 143.049 148.457 142.402C148.457 141.746 148.477 141.094 148.457 140.449C148.457 139.141 148.422 137.836 148.375 136.543C148.281 133.93 148.137 131.316 148.105 128.703C148.027 126.084 148.138 123.463 148.437 120.859H148.828C149.047 123.512 149.164 126.168 149.27 128.824C149.375 131.48 149.418 134.137 149.449 136.793L149.473 140.777C149.473 142.105 149.473 143.434 149.406 144.762L149.379 145.758V145.988C149.375 146.04 149.375 146.093 149.379 146.145C149.388 146.254 149.412 146.362 149.449 146.465C149.666 146.978 150.001 147.433 150.426 147.793C151.405 148.629 152.48 149.345 153.629 149.926L154.719 150.316H153.547C151.926 150.316 150.277 150.316 148.637 150.262L143.824 150.102ZM144.215 150.074L148.93 149.945C150.492 149.902 152.012 149.895 153.574 149.895L153.512 150.285C152.844 150.142 152.19 149.94 151.559 149.68C150.907 149.422 150.285 149.092 149.707 148.695C149.051 148.275 148.52 147.687 148.168 146.992C148.072 146.791 148.002 146.578 147.961 146.359C147.937 146.247 147.922 146.134 147.914 146.02C147.914 145.898 147.914 145.844 147.914 145.75L147.883 144.754C147.832 143.426 147.836 142.098 147.82 140.77L147.844 136.785C147.87 134.129 147.928 131.473 148.02 128.816C148.129 126.16 148.246 123.504 148.465 120.852H148.855C149.154 123.455 149.263 126.076 149.184 128.695C149.152 131.309 149.012 133.922 148.918 136.535C148.871 137.844 148.84 139.148 148.836 140.441C148.836 141.094 148.836 141.746 148.836 142.395V143.379C148.836 143.711 148.887 144.047 148.883 144.387C148.879 144.727 148.926 145.078 148.914 145.43L148.891 145.965V146.238L148.848 146.508C148.799 146.875 148.703 147.235 148.563 147.578C148.429 147.932 148.248 148.266 148.023 148.57C147.568 149.188 146.967 149.683 146.273 150.012C145.93 150.168 145.565 150.275 145.191 150.328C145.005 150.356 144.817 150.367 144.629 150.359L144.344 150.336L144.203 150.309H144.133C144.094 150.309 144.176 150.309 144.207 150.242C144.224 150.218 144.233 150.189 144.235 150.159C144.236 150.13 144.229 150.1 144.215 150.074Z"
        fill="#020202" />
    <path
        d="M170.578 132.449C170.556 133.356 170.425 134.257 170.188 135.133C169.925 136.032 169.451 136.856 168.805 137.535C167.489 138.957 165.663 139.8 163.727 139.879C162.724 139.92 161.723 139.759 160.784 139.406C159.844 139.052 158.986 138.513 158.259 137.82C157.533 137.128 156.953 136.296 156.555 135.374C156.157 134.453 155.948 133.461 155.942 132.457C155.932 131.433 156.129 130.417 156.522 129.472C156.915 128.526 157.495 127.669 158.227 126.953C159.274 125.948 160.597 125.279 162.026 125.029C163.456 124.78 164.928 124.962 166.253 125.553C167.579 126.143 168.698 127.115 169.469 128.345C170.239 129.575 170.625 131.007 170.578 132.457V132.449ZM169.989 132.449C169.954 131.637 169.756 130.84 169.407 130.105C169.057 129.388 168.561 128.752 167.95 128.238C166.776 127.252 165.259 126.771 163.731 126.902C162.303 127.027 160.97 127.666 159.977 128.699C159.493 129.2 159.106 129.787 158.836 130.43C158.437 131.408 158.323 132.48 158.507 133.52C158.692 134.561 159.167 135.527 159.879 136.309C160.874 137.4 162.257 138.056 163.731 138.137C164.493 138.174 165.254 138.061 165.972 137.804C166.69 137.546 167.35 137.15 167.914 136.637C168.484 136.093 168.974 135.471 169.368 134.789C169.79 134.083 170.005 133.272 169.989 132.449Z"
        fill="#020202" />
    <path
        d="M169.566 135.723C170.005 136.036 170.424 136.377 170.82 136.742C171.211 137.105 171.602 137.488 171.965 137.883C172.328 138.277 172.691 138.687 173.039 139.105C173.211 139.316 173.387 139.523 173.551 139.742L173.805 140.066L173.867 140.145C173.867 140.176 173.918 140.191 173.91 140.25C173.897 140.335 173.87 140.417 173.828 140.492C173.777 140.594 173.645 140.793 173.531 140.965L173.27 141.258C173.109 141.387 172.926 141.535 172.828 141.598C172.757 141.646 172.677 141.682 172.594 141.703C172.539 141.703 172.52 141.703 172.488 141.668L172.402 141.617L172.055 141.398C171.82 141.254 171.598 141.102 171.367 140.953C170.918 140.645 170.473 140.336 170.047 140.004C169.621 139.672 169.199 139.336 168.797 138.977C168.393 138.62 168.012 138.238 167.656 137.832L169.566 135.723Z"
        fill="#020202" />
    <path
        d="M117.867 40.8829C118.815 40.6224 119.767 40.362 120.723 40.1016C121.678 39.8412 122.633 39.6029 123.586 39.3868L125.02 39.0391H125.105C125.19 39.0228 125.277 39.015 125.363 39.0157C125.55 39.0188 125.732 39.0685 125.895 39.1602C126.056 39.2488 126.194 39.3743 126.298 39.5263C126.402 39.6783 126.468 39.8527 126.492 40.0352C126.519 40.2704 126.479 40.5084 126.379 40.7227L126.348 40.7852L126.309 40.8672L126.148 41.1993L124.879 43.8633C124.449 44.7461 123.988 45.6133 123.504 46.4649L123.316 46.7813L123.27 46.8594C123.312 46.7596 123.331 46.6513 123.324 46.543C123.316 46.384 123.25 46.2334 123.14 46.1187C123.029 46.004 122.881 45.9328 122.723 45.918H122.789C123.277 45.918 123.77 45.9688 124.258 46C126.236 46.1177 128.204 46.3788 130.145 46.7813V47.1719C128.203 47.5725 126.236 47.8336 124.258 47.9532C123.77 47.9844 123.277 48.0157 122.789 48.0352H122.656H122.492C122.263 48.0126 122.044 47.9348 121.852 47.8086C121.661 47.6827 121.503 47.5139 121.39 47.3158C121.277 47.1177 121.211 46.8959 121.199 46.668C121.189 46.4358 121.233 46.2042 121.328 45.9922L121.449 45.7579L121.617 45.4297C122.086 44.5704 122.578 43.7188 123.102 42.8868L124.691 40.4063L124.891 40.0938L124.941 40.0157C124.939 40.0299 124.939 40.0444 124.941 40.0586C124.926 40.1241 124.926 40.1924 124.941 40.2579C124.952 40.3187 124.976 40.3762 125.013 40.4258C125.049 40.4753 125.097 40.5155 125.152 40.543C125.208 40.5712 125.27 40.5847 125.332 40.5821H125.406H125.316L123.852 40.75C122.875 40.8672 121.898 40.9688 120.914 41.0625C119.93 41.1563 118.961 41.2461 117.973 41.3164L117.867 40.8829Z"
        fill="#020202" />
    <path
        d="M134.453 29.1952C135.848 29.1288 137.242 29.0741 138.637 29.039L140.73 28.9843L142.82 28.9569H143.863H144.387H144.648C144.724 28.9515 144.8 28.9515 144.875 28.9569C145.026 28.9747 145.173 29.0197 145.309 29.0898C145.588 29.2297 145.812 29.4607 145.942 29.7448C146.073 30.0288 146.103 30.3489 146.027 30.6523C145.989 30.8042 145.927 30.9492 145.844 31.0819C145.73 31.246 145.738 31.2265 145.707 31.2733L145.551 31.4843L144.922 32.2968L142.449 35.6679C141.618 36.7799 140.754 37.8684 139.855 38.9335L139.172 39.7148L139 39.914L138.914 40.0116C139.031 39.824 139.082 39.6026 139.059 39.3827C139.041 39.2224 138.983 39.0691 138.89 38.9372C138.797 38.8054 138.672 38.6993 138.527 38.6288C138.481 38.606 138.432 38.5864 138.383 38.5702H138.348H138.379L138.633 38.6444L139.129 38.7968L140.129 39.1093C142.807 39.9428 145.428 40.9489 147.977 42.121L147.852 42.6093C145.052 42.4275 142.267 42.0622 139.516 41.5155L138.492 41.3163L137.98 41.2108L137.723 41.1562H137.691L137.582 41.1249C137.491 41.0959 137.402 41.0606 137.316 41.0194C137.099 40.9085 136.907 40.7534 136.754 40.5641C136.6 40.3747 136.487 40.1553 136.423 39.9199C136.359 39.6845 136.345 39.4383 136.382 39.1971C136.419 38.9559 136.506 38.7251 136.637 38.5194C136.785 38.3085 136.773 38.3398 136.805 38.2929L136.887 38.1913L137.047 37.9843L137.691 37.164C138.566 36.0806 139.471 35.0247 140.406 33.996L143.246 30.9257L143.957 30.1444L144.133 29.9491C144.254 29.8124 144.094 29.9999 144.082 30.1288C144.051 30.2595 144.065 30.397 144.124 30.518C144.182 30.6391 144.281 30.7362 144.402 30.7929C144.461 30.8213 144.525 30.8397 144.59 30.8476C144.695 30.8476 144.59 30.8476 144.559 30.8476L144.297 30.8241L143.777 30.7694L142.738 30.6679L140.664 30.4687L138.586 30.2304C137.199 30.078 135.816 29.9023 134.434 29.7148L134.453 29.1952Z"
        fill="#020202" />
    <path
        d="M28.2306 122.293C28.5236 124.086 28.6916 125.879 28.84 127.672C28.9885 129.465 29.0627 131.258 29.1291 133.051C29.1824 134.844 29.1459 136.64 29.0197 138.43C28.9454 140.245 28.6836 142.047 28.2385 143.809C28.2317 143.835 28.2198 143.859 28.2035 143.88C28.1871 143.901 28.1667 143.919 28.1433 143.932C28.12 143.945 28.0943 143.953 28.0676 143.956C28.041 143.959 28.0141 143.957 27.9885 143.949C27.9549 143.94 27.9244 143.922 27.8997 143.897C27.8751 143.873 27.8572 143.842 27.8478 143.809C27.4008 142.048 27.1389 140.245 27.0666 138.43C26.939 136.64 26.9012 134.845 26.9533 133.051C27.0158 131.258 27.1017 129.465 27.2424 127.672C27.383 125.879 27.5588 124.086 27.8517 122.293C27.856 122.268 27.8652 122.243 27.8789 122.221C27.8927 122.2 27.9106 122.181 27.9316 122.166C27.9527 122.151 27.9765 122.14 28.0017 122.135C28.0268 122.129 28.0529 122.128 28.0783 122.133C28.1167 122.142 28.1516 122.161 28.1787 122.19C28.2058 122.218 28.2239 122.254 28.2306 122.293Z"
        fill="#020202" />
</svg>
