<svg width="24" height="24" viewBox="0 0 24 24" fill="none" xmlns="http://www.w3.org/2000/svg">
<path fill-rule="evenodd" clip-rule="evenodd" d="M12.5001 1.13397C12.1907 0.955342 11.8095 0.955342 11.5001 1.13397L2.83984 6.13397C2.53044 6.31261 2.33984 6.64273 2.33984 7V17C2.33984 17.3573 2.53044 17.6874 2.83984 17.866L11.5001 22.866C11.8095 23.0447 12.1907 23.0447 12.5001 22.866L21.1604 17.866C21.4698 17.6874 21.6604 17.3573 21.6604 17V7C21.6604 6.64273 21.4698 6.31261 21.1604 6.13397L12.5001 1.13397ZM12 15C13.6569 15 15 13.6569 15 12C15 10.3431 13.6569 9 12 9C10.3431 9 9 10.3431 9 12C9 13.6569 10.3431 15 12 15Z" fill="url(#paint0_linear_633_8012)"/>
<defs>
<linearGradient id="paint0_linear_633_8012" x1="18.7336" y1="-9.86676" x2="-12.5499" y2="2.41311" gradientUnits="userSpaceOnUse">
<stop stop-color="#FFC400"/>
<stop offset="1" stop-color="#8E6D00"/>
</linearGradient>
</defs>
</svg>
