<svg width="20" height="20" viewBox="0 0 20 20" fill="none" xmlns="http://www.w3.org/2000/svg">
<path d="M10 1.6665C11.9493 3.58 14.4935 4.57629 17.0935 4.44428C17.472 5.873 17.5878 7.37157 17.4341 8.85093C17.2803 10.3303 16.8601 11.7603 16.1984 13.0559C15.5367 14.3515 14.647 15.4863 13.5822 16.3929C12.5174 17.2994 11.2992 17.9593 10 18.3332C8.70082 17.9593 7.48264 17.2994 6.41784 16.3929C5.35303 15.4863 4.46335 14.3515 3.80164 13.0559C3.13993 11.7603 2.71971 10.3303 2.56594 8.85093C2.41217 7.37157 2.528 5.873 2.90653 4.44428C5.50652 4.57629 8.05069 3.58 10 1.6665Z" stroke="#090B09" stroke-width="1.66667" stroke-linecap="round" stroke-linejoin="round"/>
</svg>
