<svg width="20" height="20" viewBox="0 0 20 20" fill="none" xmlns="http://www.w3.org/2000/svg">
<path d="M3.33333 17.4997V8.53006M16.6667 17.4997V8.53006M2.5 17.5H17.5M2.5 6.66667C2.5 7.32971 2.76339 7.96559 3.23223 8.43443C3.70107 8.90327 4.33696 9.16667 5 9.16667C5.66304 9.16667 6.29893 8.90327 6.76777 8.43443C7.23661 7.96559 7.5 7.32971 7.5 6.66667C7.5 7.32971 7.76339 7.96559 8.23223 8.43443C8.70107 8.90327 9.33696 9.16667 10 9.16667C10.663 9.16667 11.2989 8.90327 11.7678 8.43443C12.2366 7.96559 12.5 7.32971 12.5 6.66667C12.5 7.32971 12.7634 7.96559 13.2322 8.43443C13.7011 8.90327 14.337 9.16667 15 9.16667C15.663 9.16667 16.2989 8.90327 16.7678 8.43443C17.2366 7.96559 17.5 7.32971 17.5 6.66667C17.5 6.11864 17.3724 5.57815 17.1273 5.08798L15.8333 2.5H4.16667L2.87268 5.08798C2.62759 5.57814 2.5 6.11864 2.5 6.66667Z" stroke="black" stroke-width="2" stroke-linecap="round" stroke-linejoin="round"/>
</svg>
