<svg width="200" height="200" viewBox="0 0 200 200" fill="none" xmlns="http://www.w3.org/2000/svg">
    <path
        d="M123.321 131.18C123.152 131.375 122.945 131.535 122.713 131.648C122.481 131.762 122.228 131.827 121.97 131.84C121.606 131.801 121.255 131.715 120.899 131.652L118.751 131.25L114.501 130.469C111.669 129.891 108.821 129.363 106.016 128.711C103.212 128.059 100.423 127.344 97.6571 126.562L95.5829 125.984C95.4969 125.984 95.4969 126.02 95.4696 126.047C95.4656 126.061 95.4656 126.076 95.4696 126.09V126.109L95.4461 126.133L95.3485 126.227L93.786 127.711L81.3094 139.609C79.2274 141.586 77.161 143.578 75.0594 145.531L74.2782 146.27L73.8875 146.637L73.7899 146.727L73.7352 146.777L73.6297 146.871C73.4813 146.996 73.3368 147.121 73.1844 147.242C71.8944 148.239 70.3526 148.857 68.7313 149.027C67.5156 149.152 66.2874 149.025 65.123 148.654C63.9585 148.283 62.8828 147.677 61.9628 146.873C61.0427 146.069 60.298 145.084 59.775 143.979C59.252 142.875 58.9619 141.674 58.9227 140.453L58.8797 138.137L58.8094 133.84C58.7625 130.973 58.704 128.102 58.6922 125.246L58.6297 116.652L58.5946 112.355V111.551V111.637C58.5988 111.793 58.6224 111.947 58.6649 112.098C58.7588 112.399 58.933 112.669 59.1688 112.879C59.1961 112.906 59.2313 112.93 59.2586 112.953L59.3094 112.992L59.2547 112.957L58.7977 112.672L57.8875 112.098L56.0711 110.937L52.4266 108.648L45.1415 104.07L37.8524 99.4765L34.2079 97.1875L34.0477 97.0859L33.7743 96.8984C33.5907 96.7734 33.411 96.6367 33.2352 96.5078C32.877 96.2229 32.5402 95.9122 32.2274 95.5781C31.5819 94.8973 31.0349 94.1294 30.6024 93.2968C29.7536 91.6428 29.3727 89.7883 29.5008 87.9336C29.6063 86.0825 30.3017 84.3139 31.4852 82.8867C32.653 81.5078 34.1896 80.4902 35.9149 79.9531L36.2157 79.8594C36.251 79.8453 36.2876 79.8348 36.325 79.8281H36.3915L36.661 79.7734C36.8388 79.741 37.0149 79.6993 37.1883 79.6484C37.5321 79.5547 37.8719 79.4375 38.2118 79.3203L40.2508 78.6328L48.411 75.875C53.8563 74.0547 59.2665 72.1445 64.6922 70.2695H64.7157H64.6844C64.661 70.2695 64.6454 70.3047 64.6258 70.3203C64.5934 70.3578 64.5646 70.3984 64.5399 70.4414C64.5191 70.4837 64.5034 70.5282 64.493 70.5742C64.493 70.5742 64.493 70.5976 64.493 70.6093C64.493 70.6093 64.493 70.5859 64.493 70.5703L64.5125 70.5039L64.6805 69.9922L66.0165 65.9179L68.6844 57.7148L71.3524 49.5117L72.6571 45.4531L73.3446 43.3476C73.7768 42.0178 74.574 40.8361 75.6454 39.9375C76.6988 39.0571 77.9723 38.4807 79.3289 38.2701C80.6855 38.0594 82.0738 38.2227 83.3446 38.7422C83.9762 39.003 84.568 39.3514 85.1024 39.7773C85.3661 39.9853 85.6142 40.2125 85.8446 40.457C85.9618 40.5781 86.0672 40.6992 86.1727 40.8242L86.3289 41.0156L86.411 41.1211L87.7118 42.8398L92.9149 49.7031L98.1141 56.5625L100.716 59.9961L102.016 61.7109L102.341 62.1406L102.384 62.1992L102.411 62.2383L102.473 62.3125C102.559 62.409 102.656 62.4944 102.763 62.5664C102.931 62.6747 103.12 62.7478 103.317 62.7812C103.352 62.7812 103.384 62.7812 103.419 62.7812H103.595H105.747L110.044 62.8203L118.657 62.8945C121.528 62.9375 124.399 62.9648 127.27 63.0351L129.427 63.0937H129.966C130.202 63.0941 130.438 63.1084 130.673 63.1367C131.212 63.2066 131.73 63.3903 132.192 63.6758C132.642 63.9514 133.03 64.3161 133.334 64.7473C133.638 65.1786 133.85 65.6673 133.958 66.1836C134.068 66.6986 134.068 67.2311 133.958 67.7461C133.844 68.2387 133.63 68.7027 133.329 69.1094L133.427 68.9219C133.098 69.6445 132.751 70.3594 132.403 71.0703C132.056 71.7812 131.692 72.4961 131.333 73.2031C130.973 73.9101 130.595 74.6172 130.2 75.3125C129.806 76.0078 129.419 76.707 128.993 77.3906C129.098 76.582 129.247 75.789 129.411 75.0039C129.575 74.2187 129.763 73.4414 129.958 72.6601C130.153 71.8789 130.348 71.0976 130.598 70.3593C130.848 69.6211 131.048 68.832 131.306 68.0859L131.427 67.8554C131.584 67.5286 131.609 67.1535 131.497 66.8086C131.444 66.6496 131.36 66.5028 131.25 66.3773C131.139 66.2517 131.004 66.15 130.852 66.0781C130.711 66.0161 130.558 65.9842 130.403 65.9844C130.329 65.9844 129.848 66.0195 129.516 66.039L127.368 66.1836C124.505 66.3554 121.638 66.4687 118.774 66.6015L110.181 66.9258L105.884 67.0898L103.735 67.1719H103.391C103.255 67.1719 103.122 67.1719 103.001 67.1719C102.732 67.1516 102.464 67.1138 102.2 67.0586C101.671 66.9437 101.16 66.7585 100.681 66.5078C100.201 66.2559 99.7576 65.9391 99.3641 65.5664C99.1699 65.3865 98.9885 65.1933 98.8211 64.9883L98.4813 64.5742L97.1102 62.914L94.3758 59.5937L88.9071 52.9531L83.4383 46.3125L82.0555 44.664L81.9696 44.5625L81.9266 44.5195C81.901 44.488 81.8722 44.4592 81.8407 44.4336C81.7858 44.381 81.7271 44.3327 81.6649 44.289C81.545 44.204 81.4134 44.1369 81.2743 44.0898C80.9954 43.9972 80.697 43.9801 80.4095 44.0405C80.1219 44.1009 79.8555 44.2366 79.6375 44.4336C79.438 44.6284 79.3019 44.8789 79.2469 45.1523L78.6961 47.1914L77.579 51.3515L75.3446 59.664L73.0477 68.0195L71.9305 72.1758L71.7899 72.6953L71.7508 72.8437L71.6805 73.0781C71.6297 73.2304 71.5711 73.3828 71.5126 73.5351C71.2672 74.142 70.9399 74.7123 70.5399 75.2304C69.9389 76.0149 69.1821 76.6665 68.3172 77.1445C68.1727 77.2265 68.0243 77.2969 67.8758 77.3711L67.4422 77.5547L51.5125 84.0937L43.5477 87.3633L41.5555 88.1836C41.2235 88.3203 40.8915 88.4531 40.5555 88.5742L40.0555 88.7695L39.8055 88.8672L39.743 88.8906C39.7157 88.8906 39.7079 88.8906 39.7157 88.8906C39.7157 88.8906 39.743 88.8906 39.7704 88.8711C39.7968 88.8478 39.8169 88.8182 39.829 88.7851C39.8563 88.7265 39.8485 88.6953 39.829 88.6758C39.8079 88.6452 39.7844 88.6165 39.7586 88.5898C39.7432 88.5706 39.723 88.5558 39.7 88.5468C39.7 88.5468 39.6766 88.5468 39.7821 88.6093L43.3368 91.0351L50.45 95.8867L57.5516 100.781L61.1063 103.203L62.8836 104.418L63.7743 105.023L64.2196 105.328L64.579 105.582C64.7118 105.68 64.8407 105.789 64.9696 105.895C65.7313 106.543 66.3507 107.342 66.7889 108.242C67.2272 109.141 67.4749 110.121 67.5165 111.121V111.598V111.867V112.402L67.3875 116.699L67.1297 125.293L66.8563 133.887L66.7157 138.184L66.6493 140.246C66.6326 140.482 66.6841 140.718 66.7977 140.926C66.9277 141.147 67.1141 141.33 67.3378 141.455C67.5615 141.581 67.8146 141.645 68.0711 141.641C68.3321 141.634 68.5858 141.553 68.8016 141.406L68.8954 141.34H68.9188L68.9657 141.297L69.0711 141.211L69.4618 140.863L70.2821 140.164L76.8446 134.598L89.9774 123.457L91.618 122.062C91.7274 121.973 91.9618 121.77 92.1649 121.633C92.3727 121.485 92.5921 121.354 92.8211 121.242C93.4982 120.888 94.2407 120.677 95.0027 120.622C95.7647 120.567 96.5299 120.669 97.2508 120.922L99.2704 121.664L107.352 124.637C110.056 125.605 112.723 126.676 115.407 127.703L119.423 129.266L121.434 130.047C122.095 130.316 122.813 130.422 123.321 131.18Z"
        fill="#020202" />
    <path
        d="M142.512 129.187C141.516 130.672 140.291 131.991 138.883 133.094C137.455 134.228 135.834 135.096 134.098 135.656C133.215 135.939 132.307 136.137 131.387 136.246L129.996 136.351L128.598 136.301H128.422H128.332C127.942 135.91 129.164 137.137 127.43 135.457C127.465 134.519 127.61 134.82 127.598 134.676C127.703 134.527 127.727 134.504 127.778 134.441L127.895 134.297L128.34 133.777L129.215 132.797L129.641 132.316L129.844 132.082C129.898 132.023 129.947 131.96 129.992 131.894C130.198 131.591 130.38 131.273 130.535 130.941C131.221 129.566 131.587 128.053 131.606 126.515C131.629 125.969 131.463 125.431 131.137 124.992C131.079 124.926 131.01 124.869 130.934 124.824C130.897 124.798 130.858 124.776 130.817 124.758C130.784 124.738 130.75 124.721 130.715 124.707L130.582 124.64C130.235 124.472 129.867 124.312 129.485 124.152L127.059 123.183C126.165 122.821 125.303 122.386 124.481 121.883C122.827 120.855 121.351 119.566 120.11 118.066C117.601 115.072 115.989 111.432 115.457 107.562C115.32 106.58 115.265 105.589 115.293 104.597C115.312 103.588 115.425 102.582 115.629 101.594C115.734 101.095 115.865 100.602 116.02 100.117L116.477 98.7459L117.016 97.4061C117.207 96.9607 117.426 96.5311 117.633 96.0936C118.504 94.3649 119.57 92.7411 120.809 91.2537C122.05 89.7756 123.446 88.4347 124.973 87.2537C128.012 84.9183 131.454 83.1625 135.129 82.074C138.764 80.9757 142.552 80.4693 146.348 80.574C150.177 80.6697 153.962 81.4119 157.543 82.7693C161.178 84.1605 164.498 86.2642 167.309 88.9568C168.737 90.3307 170 91.8672 171.071 93.535C171.348 93.949 171.59 94.3865 171.828 94.8279L172.184 95.492L172.5 96.1756L172.817 96.8592C172.91 97.0897 172.996 97.3279 173.086 97.5623C173.278 98.0386 173.443 98.525 173.582 99.0193C174.165 101.048 174.369 103.167 174.184 105.269C173.992 107.303 173.479 109.294 172.664 111.168C171.069 114.771 168.545 117.886 165.352 120.195C162.227 122.48 158.711 123.844 155.196 124.676C151.696 125.457 148.117 125.828 144.531 125.781C144.48 125.781 144.43 125.76 144.393 125.724C144.357 125.687 144.336 125.638 144.336 125.586C144.336 125.543 144.349 125.502 144.373 125.468C144.398 125.433 144.433 125.408 144.473 125.394C147.792 124.407 151.052 123.233 154.238 121.879C157.321 120.5 160.184 118.812 162.477 116.656C163.61 115.595 164.619 114.409 165.485 113.121C166.338 111.868 167.025 110.508 167.528 109.078C168.021 107.718 168.302 106.289 168.36 104.844C168.431 103.454 168.25 102.063 167.824 100.738C167.726 100.392 167.606 100.053 167.465 99.7225C167.399 99.5506 167.336 99.3787 167.262 99.2107L167.024 98.7107L166.789 98.2068L166.516 97.7225C166.341 97.3938 166.149 97.0744 165.942 96.7654C165.13 95.4932 164.173 94.32 163.09 93.2693C160.853 91.1198 158.214 89.4326 155.324 88.3045C152.382 87.1479 149.265 86.4968 146.106 86.3787C142.917 86.2332 139.726 86.5904 136.649 87.4373C133.595 88.2692 130.713 89.6368 128.137 91.4764C125.602 93.3021 123.495 95.6573 121.961 98.3787C121.785 98.7264 121.594 99.0623 121.426 99.4139L120.946 100.48L120.528 101.582C120.414 101.937 120.297 102.265 120.215 102.625C120.03 103.336 119.912 104.063 119.863 104.797C119.801 105.548 119.801 106.303 119.863 107.054C120.159 110.161 121.304 113.126 123.172 115.625C124.092 116.87 125.199 117.967 126.453 118.875C127.093 119.32 127.769 119.712 128.473 120.047L130.836 121.176C131.25 121.379 131.668 121.597 132.086 121.844L132.242 121.937L132.422 122.051C132.863 122.329 133.249 122.686 133.559 123.105C133.939 123.63 134.205 124.229 134.34 124.863C134.453 125.411 134.496 125.972 134.465 126.531C134.408 127.53 134.212 128.516 133.883 129.461C133.582 130.372 133.189 131.25 132.711 132.082C132.458 132.52 132.17 132.938 131.852 133.332C131.727 133.48 131.656 133.547 131.571 133.637L131.324 133.879L130.844 134.34L129.903 135.238L129.449 135.672L129.352 135.773C129.328 135.793 129.281 135.851 129.321 135.773C129.297 135.66 129.426 135.984 129.457 135.066C127.735 133.41 129 134.613 128.625 134.242H128.703L128.852 134.262L130.063 134.422L131.281 134.445C132.102 134.424 132.918 134.325 133.719 134.148C135.351 133.774 136.909 133.129 138.328 132.242C139.051 131.79 139.739 131.285 140.387 130.73C141.042 130.178 141.652 129.574 142.211 128.926C142.227 128.905 142.246 128.888 142.268 128.875C142.29 128.862 142.314 128.853 142.34 128.849C142.365 128.846 142.391 128.847 142.416 128.854C142.441 128.86 142.464 128.871 142.485 128.887C142.505 128.902 142.522 128.921 142.535 128.943C142.549 128.965 142.557 128.99 142.561 129.015C142.564 129.041 142.563 129.066 142.557 129.091C142.55 129.116 142.539 129.139 142.524 129.16L142.512 129.187Z"
        fill="#020202" />
    <path
        d="M92.2969 164.148C119.471 164.148 141.5 161.852 141.5 159.02C141.5 156.187 119.471 153.891 92.2969 153.891C65.1227 153.891 43.0938 156.187 43.0938 159.02C43.0938 161.852 65.1227 164.148 92.2969 164.148Z"
        fill="#020202" />
    <path
        d="M132.758 103.234C132.562 103.285 132.378 103.376 132.219 103.501C132.06 103.626 131.928 103.782 131.832 103.961C131.65 104.279 131.576 104.648 131.621 105.012C131.641 105.151 131.692 105.285 131.77 105.402C131.848 105.516 131.945 105.616 132.055 105.699C132.323 105.855 132.634 105.92 132.942 105.887C133.294 105.871 133.637 105.772 133.944 105.598C134.251 105.424 134.512 105.181 134.707 104.887C134.786 104.748 134.837 104.596 134.86 104.438C134.882 104.302 134.853 104.162 134.778 104.047C134.54 103.677 134.219 103.368 133.84 103.145C133.805 103.119 133.779 103.083 133.766 103.042C133.753 103 133.753 102.956 133.767 102.915C133.781 102.874 133.808 102.839 133.844 102.814C133.879 102.789 133.922 102.776 133.965 102.777C134.541 102.811 135.091 103.033 135.528 103.41C135.796 103.659 135.976 103.988 136.043 104.348C136.099 104.685 136.075 105.03 135.973 105.356C135.771 105.988 135.357 106.532 134.801 106.895C134.277 107.247 133.669 107.453 133.039 107.492C132.347 107.551 131.659 107.344 131.113 106.914C130.841 106.678 130.623 106.385 130.477 106.055C130.332 105.731 130.27 105.377 130.297 105.024C130.336 104.383 130.615 103.78 131.078 103.336C131.302 103.127 131.569 102.968 131.86 102.871C132.149 102.789 132.456 102.789 132.746 102.871C132.797 102.885 132.84 102.918 132.866 102.963C132.893 103.009 132.9 103.063 132.887 103.113C132.878 103.147 132.86 103.177 132.835 103.202C132.81 103.227 132.78 103.245 132.746 103.254L132.758 103.234Z"
        fill="#020202" />
    <path
        d="M145.794 105.109C145.833 104.911 145.831 104.706 145.785 104.509C145.74 104.311 145.654 104.126 145.532 103.965C145.322 103.664 145.02 103.44 144.673 103.324C144.533 103.277 144.385 103.264 144.239 103.285C144.103 103.308 143.971 103.353 143.848 103.418C143.594 103.593 143.403 103.845 143.302 104.136C143.166 104.462 143.109 104.816 143.135 105.168C143.162 105.521 143.271 105.862 143.454 106.164C143.545 106.294 143.66 106.406 143.794 106.492C143.907 106.573 144.046 106.608 144.184 106.59C144.619 106.529 145.035 106.37 145.399 106.125C145.445 106.097 145.5 106.09 145.552 106.103C145.604 106.116 145.649 106.149 145.677 106.195C145.694 106.225 145.703 106.26 145.703 106.295C145.703 106.329 145.694 106.364 145.677 106.394C145.406 106.913 144.968 107.326 144.434 107.566C144.097 107.703 143.724 107.726 143.372 107.632C143.041 107.54 142.737 107.37 142.485 107.136C141.999 106.685 141.683 106.079 141.591 105.422C141.498 104.798 141.571 104.161 141.802 103.574C142.047 102.924 142.528 102.389 143.149 102.078C143.478 101.931 143.836 101.859 144.196 101.867C144.55 101.873 144.897 101.969 145.204 102.144C145.763 102.459 146.181 102.974 146.376 103.586C146.47 103.882 146.499 104.195 146.462 104.504C146.417 104.802 146.291 105.083 146.098 105.316C146.07 105.349 146.032 105.372 145.989 105.381C145.946 105.391 145.901 105.385 145.862 105.367C145.822 105.348 145.79 105.317 145.77 105.278C145.75 105.239 145.743 105.195 145.751 105.152L145.794 105.109Z"
        fill="#020202" />
    <path
        d="M154.568 106.98C154.798 107.011 155.031 106.984 155.248 106.901C155.465 106.819 155.658 106.683 155.81 106.508C156.156 106.174 156.423 105.767 156.591 105.316C156.66 105.111 156.704 104.899 156.724 104.683C156.732 104.585 156.732 104.485 156.724 104.387C156.717 104.293 156.697 104.201 156.665 104.113C156.623 103.959 156.543 103.819 156.431 103.704C156.32 103.59 156.181 103.506 156.028 103.461C155.648 103.337 155.237 103.337 154.857 103.461C154.441 103.574 154.062 103.795 153.759 104.101C153.607 104.264 153.476 104.445 153.368 104.641C153.265 104.816 153.207 105.015 153.2 105.219C153.195 105.725 153.33 106.222 153.591 106.656C153.615 106.703 153.62 106.757 153.604 106.807C153.589 106.858 153.555 106.9 153.509 106.926C153.477 106.944 153.442 106.953 153.405 106.953C153.369 106.953 153.333 106.944 153.302 106.926C152.755 106.544 152.366 105.976 152.208 105.328C152.135 104.96 152.149 104.58 152.251 104.219C152.352 103.884 152.507 103.567 152.708 103.281C153.116 102.684 153.705 102.233 154.388 101.996C155.096 101.736 155.875 101.736 156.583 101.996C156.972 102.135 157.321 102.367 157.599 102.672C157.737 102.83 157.854 103.006 157.946 103.195L158.075 103.48L158.15 103.773C158.193 103.96 158.214 104.152 158.212 104.344C158.219 104.532 158.206 104.721 158.173 104.906C158.103 105.257 157.978 105.595 157.802 105.906C157.477 106.503 156.991 106.997 156.4 107.332C156.098 107.504 155.762 107.607 155.415 107.633C155.06 107.666 154.705 107.565 154.419 107.351C154.384 107.324 154.36 107.285 154.35 107.242C154.339 107.199 154.344 107.154 154.362 107.113C154.381 107.073 154.412 107.04 154.451 107.019C154.491 106.999 154.536 106.992 154.579 107L154.568 106.98Z"
        fill="#020202" />
    <path
        d="M55.0983 62.9766C54.4347 63.1849 53.7464 63.3044 53.0514 63.3321C52.4898 63.3563 51.9274 63.3143 51.3756 63.2071C50.3961 62.9833 49.4604 62.5992 48.6061 62.0703C46.7248 61.0099 45.0131 59.6734 43.528 58.1055C43.4831 58.0595 43.458 57.9979 43.458 57.9336C43.458 57.8694 43.4831 57.8077 43.528 57.7618L43.5749 57.7266C44.1412 57.4141 44.7527 57.1914 45.3874 57.0664C45.9852 56.9452 46.5938 56.885 47.2038 56.8868C48.3722 56.9014 49.5306 57.1059 50.6334 57.4922C51.7271 57.826 52.7331 58.3984 53.5788 59.168C54.0147 59.5929 54.3834 60.0815 54.6725 60.6172C55.0186 61.2502 55.2401 61.9438 55.3249 62.6602C55.3325 62.7298 55.3156 62.7999 55.2771 62.8583C55.2385 62.9168 55.1809 62.96 55.1139 62.9805L55.0983 62.9766Z"
        fill="#020202" />
    <path
        d="M59.5239 59.1993C58.9419 59.2568 58.3548 59.2371 57.7778 59.1407C57.3611 59.0702 56.957 58.9386 56.5786 58.7501C56.2636 58.5966 55.9781 58.3891 55.7349 58.1368C55.5102 57.8899 55.3015 57.6289 55.1099 57.3556C54.7203 56.7905 54.4028 56.179 54.1646 55.5352C53.8765 54.7256 53.6404 53.8984 53.4575 53.0587V53.0392C53.4419 52.9714 53.4515 52.9003 53.4846 52.8391C53.5177 52.778 53.5719 52.731 53.6372 52.7071C54.5837 52.388 55.6087 52.388 56.5552 52.7071C57.3736 52.9591 58.1314 53.3766 58.7818 53.9337C59.4325 54.4304 59.9196 55.1107 60.1802 55.8868C60.3126 56.3283 60.3616 56.7906 60.3247 57.2501C60.2775 57.8511 60.1185 58.4379 59.856 58.9806C59.8264 59.04 59.7822 59.0909 59.7275 59.1284C59.6729 59.166 59.6095 59.1891 59.5435 59.1954L59.5239 59.1993Z"
        fill="#020202" />
    <path
        d="M64.4533 83.0784C65.6994 82.2737 66.9572 81.5784 68.1798 80.887C69.4025 80.1956 70.6095 79.5355 71.6954 78.8167C71.9689 78.6409 72.2228 78.4534 72.4767 78.2698C72.5978 78.18 72.715 78.0862 72.8283 77.9925L72.9923 77.8519L73.0704 77.7815L73.129 77.7269C73.2623 77.5747 73.3764 77.4067 73.4689 77.2269C73.6136 76.9606 73.744 76.6868 73.8595 76.4066C74.3648 75.1431 74.7978 73.852 75.1564 72.5394C75.9181 69.8441 76.5822 67.0706 77.2658 64.305C77.9494 61.5394 78.6329 58.7464 79.4142 55.9651C79.4311 55.9139 79.4654 55.8701 79.5112 55.8415C79.557 55.813 79.6114 55.8014 79.6649 55.8088C79.7184 55.8163 79.7675 55.8423 79.8038 55.8822C79.8401 55.9222 79.8612 55.9737 79.8634 56.0276C79.8742 58.9182 79.7203 61.807 79.4025 64.68C79.1089 67.5693 78.6459 70.4388 78.0158 73.2737C77.8543 73.9873 77.6694 74.7034 77.4611 75.4222C77.2544 76.1598 77.0093 76.886 76.7267 77.598C76.5718 77.9805 76.3971 78.3547 76.2033 78.7191C75.9656 79.1768 75.663 79.5979 75.3048 79.9691C75.2423 80.0316 75.2072 80.0589 75.1642 80.098L75.0431 80.2034C74.9611 80.2737 74.879 80.3441 74.7931 80.4066C74.629 80.5394 74.4611 80.6644 74.2931 80.7972C73.9644 81.0288 73.6227 81.2413 73.2697 81.4339C71.9309 82.1561 70.5015 82.696 69.0197 83.0394C67.5703 83.4006 66.0794 83.5674 64.5861 83.5355C64.5548 83.5345 64.524 83.5273 64.4955 83.5144C64.4669 83.5014 64.4412 83.483 64.4198 83.4602C64.3984 83.4373 64.3817 83.4105 64.3707 83.3812C64.3597 83.3519 64.3546 83.3207 64.3556 83.2894C64.3569 83.252 64.3672 83.2154 64.3856 83.1828C64.4039 83.1502 64.4298 83.1224 64.4611 83.1019L64.4533 83.0784Z"
        fill="#020202" />
    <path
        d="M60.3684 85.1291C59.7477 85.7512 59.0382 86.2778 58.2629 86.6916C57.5323 87.1022 56.7662 87.4461 55.9738 87.7189C55.1837 87.9967 54.3688 88.1981 53.5402 88.3205C52.6749 88.4752 51.7909 88.4963 50.9191 88.383H50.884C50.8575 88.3791 50.8321 88.3701 50.8092 88.3565C50.7862 88.3428 50.7662 88.3248 50.7503 88.3034C50.7343 88.282 50.7227 88.2576 50.7162 88.2317C50.7096 88.2058 50.7082 88.1789 50.7121 88.1525C50.7161 88.126 50.7255 88.1005 50.7396 88.0777C50.7537 88.0549 50.7722 88.0352 50.7941 88.0197C51.4878 87.5295 52.2268 87.107 53.0012 86.758C53.3918 86.5705 53.7824 86.4259 54.1496 86.258L55.3215 85.8244C56.1116 85.5564 56.9147 85.3282 57.7277 85.1408C58.5517 84.9404 59.3926 84.8175 60.2394 84.7736C60.2661 84.7725 60.2927 84.7768 60.3178 84.786C60.3428 84.7953 60.3658 84.8094 60.3854 84.8275C60.405 84.8457 60.4208 84.8675 60.432 84.8917C60.4431 84.916 60.4494 84.9422 60.4504 84.9689C60.4525 85.0237 60.4329 85.077 60.3957 85.1173L60.3684 85.1291Z"
        fill="#020202" />
    <path
        d="M140.196 72.6994C140.574 72.0943 141.043 71.5514 141.587 71.09C142.097 70.6457 142.651 70.2531 143.239 69.9181L143.68 69.6759L144.137 69.4611C144.44 69.3148 144.751 69.1844 145.067 69.0705L146.02 68.7423L146.997 68.465C148.317 68.1153 149.674 67.929 151.04 67.9103C152.425 67.8815 153.8 68.1478 155.075 68.6916C155.099 68.7025 155.121 68.7182 155.14 68.7377C155.158 68.7572 155.172 68.7802 155.182 68.8052C155.191 68.8303 155.195 68.8569 155.195 68.8837C155.194 68.9104 155.187 68.9367 155.176 68.9611C155.163 68.9902 155.143 69.0157 155.118 69.0354C155.093 69.0551 155.063 69.0685 155.032 69.0744C153.719 69.3283 152.528 69.6291 151.34 69.9728C150.153 70.3166 148.997 70.7306 147.825 71.1447C146.653 71.5587 145.524 72.047 144.309 72.3947C143.044 72.7893 141.728 72.9998 140.403 73.0197C140.374 73.0202 140.344 73.0148 140.317 73.0038C140.29 72.9928 140.265 72.9764 140.244 72.9556C140.224 72.9349 140.207 72.9101 140.196 72.8829C140.185 72.8556 140.18 72.8264 140.18 72.797C140.178 72.7637 140.183 72.7303 140.196 72.6994Z"
        fill="#020202" />
</svg>
