<svg width="20" height="20" viewBox="0 0 20 20" fill="none" xmlns="http://www.w3.org/2000/svg">
<path d="M7.01644 6.69867L1.95139 7.43303L1.86168 7.45129C1.72588 7.48734 1.60207 7.55879 1.50291 7.65833C1.40375 7.75788 1.33279 7.88196 1.29727 8.01791C1.26175 8.15385 1.26295 8.29679 1.30074 8.43212C1.33853 8.56745 1.41156 8.69033 1.51237 8.7882L5.18175 12.3599L4.3164 17.4051L4.30608 17.4925C4.29777 17.6329 4.32693 17.7731 4.39059 17.8985C4.45425 18.024 4.55011 18.1303 4.66836 18.2066C4.78662 18.2828 4.92301 18.3263 5.06358 18.3325C5.20414 18.3387 5.34383 18.3074 5.46834 18.2419L9.99831 15.8602L14.518 18.2419L14.5973 18.2784C14.7284 18.33 14.8708 18.3459 15.01 18.3243C15.1491 18.3027 15.2801 18.2445 15.3893 18.1556C15.4986 18.0667 15.5822 17.9503 15.6317 17.8185C15.6811 17.6866 15.6946 17.5439 15.6707 17.4051L14.8045 12.3599L18.4755 8.78741L18.5374 8.71993C18.6259 8.61098 18.6839 8.48053 18.7055 8.34187C18.7272 8.20321 18.7116 8.0613 18.6606 7.93058C18.6095 7.79987 18.5247 7.68503 18.4148 7.59777C18.3049 7.51051 18.1738 7.45393 18.0349 7.43382L12.9699 6.69867L10.7057 2.10996C10.6402 1.97701 10.5387 1.86506 10.4129 1.78677C10.287 1.70848 10.1418 1.66699 9.99355 1.66699C9.84533 1.66699 9.70007 1.70848 9.57422 1.78677C9.44836 1.86506 9.34694 1.97701 9.28142 2.10996L7.01644 6.69867Z" fill="#FFBE4C"/>
</svg>
