<svg width="24" height="24" viewBox="0 0 24 24" fill="none" xmlns="http://www.w3.org/2000/svg">
<path d="M3 21H21M9 8C9 8.79565 8.68393 9.55871 8.12132 10.1213C7.55871 10.6839 6.79565 11 6 11C5.20435 11 4.44129 10.6839 3.87868 10.1213C3.31607 9.55871 3 8.79565 3 8C3 7.34237 3.15311 6.69377 3.44721 6.10557L5 3H9M9 8C9 8.79565 9.31607 9.55871 9.87868 10.1213C10.4413 10.6839 11.2044 11 12 11C12.7956 11 13.5587 10.6839 14.1213 10.1213C14.6839 9.55871 15 8.79565 15 8M9 8V3M15 8C15 8.79565 15.3161 9.55871 15.8787 10.1213C16.4413 10.6839 17.2044 11 18 11C18.7956 11 19.5587 10.6839 20.1213 10.1213C20.6839 9.55871 21 8.79565 21 8C21 7.34237 20.8469 6.69377 20.5528 6.10557L19 3H15M15 8V3M9 3H15M4 20.9996V10.2361M20 20.9996V10.2361" stroke="#272A27" stroke-width="2" stroke-linecap="round" stroke-linejoin="round"/>
</svg>
