<svg width="18" height="18" viewBox="0 0 18 18" fill="none" xmlns="http://www.w3.org/2000/svg">
<path d="M2.25 4.5H3.75M3.75 4.5H15.75M3.75 4.5L4.5 15C4.5 15.3978 4.65804 15.7794 4.93934 16.0607C5.22064 16.342 5.60218 16.5 6 16.5H12C12.3978 16.5 12.7794 16.342 13.0607 16.0607C13.342 15.7794 13.5 15.3978 13.5 15L14.25 4.5M6 4.5V3C6 2.60218 6.15804 2.22064 6.43934 1.93934C6.72064 1.65804 7.10218 1.5 7.5 1.5H10.5C10.8978 1.5 11.2794 1.65804 11.5607 1.93934C11.842 2.22064 12 2.60218 12 3V4.5M7.5 8.25V12.75M10.5 8.25V12.75" stroke="#FD3A3D" stroke-width="2" stroke-linecap="round" stroke-linejoin="round"/>
</svg>
