<svg width="20" height="20" viewBox="0 0 20 20" fill="none" xmlns="http://www.w3.org/2000/svg">
<path d="M14.1665 17.5V15.8333C14.1665 14.9493 13.8153 14.1014 13.1902 13.4763C12.5651 12.8512 11.7172 12.5 10.8332 12.5H4.99984C4.11578 12.5 3.26794 12.8512 2.64281 13.4763C2.01769 14.1014 1.6665 14.9493 1.6665 15.8333V17.5M13.354 2.75065C14.5646 3.25024 15.4166 4.44223 15.4166 5.83323C15.4166 7.23497 14.5514 8.43462 13.3258 8.92726M18.3332 17.4999V15.8332C18.3326 15.0947 18.0868 14.3772 17.6343 13.7935C17.1818 13.2098 16.5483 12.7929 15.8332 12.6082M11.2498 5.83333C11.2498 7.67428 9.75745 9.16667 7.9165 9.16667C6.07555 9.16667 4.58317 7.67428 4.58317 5.83333C4.58317 3.99238 6.07555 2.5 7.9165 2.5C9.75745 2.5 11.2498 3.99238 11.2498 5.83333Z" stroke="black" stroke-width="2" stroke-linecap="round" stroke-linejoin="round"/>
</svg>
