<svg width="20" height="20" viewBox="0 0 20 20" fill="none" xmlns="http://www.w3.org/2000/svg">
    <path fill-rule="evenodd" clip-rule="evenodd"
        d="M17.9531 10.6215C17.9531 13.5092 17.2936 15.6611 15.9758 17.0633C14.656 18.4677 12.6216 19.1663 9.87657 19.1663C7.3116 19.1663 5.36737 18.4678 4.03895 17.0633C2.71254 15.6611 2.04883 13.5441 2.04883 10.7202C2.04883 7.55839 2.04883 4.39668 2.04883 1.23487C2.04883 1.01331 2.23 0.832031 2.45143 0.832031H7.10204C7.32346 0.832031 7.50464 1.01331 7.50464 1.23487C7.50464 4.46527 7.50464 7.69576 7.50464 10.9262C7.50464 12.0806 7.71816 12.9698 8.1523 13.5957C8.58448 14.2186 9.20314 14.5312 10.0096 14.5312C10.8202 14.5312 11.438 14.2392 11.8624 13.6514C12.287 13.0636 12.4972 12.1965 12.4972 11.0507V9.23574H17.9531V10.6215Z"
        fill="#014282" />
    <path fill-rule="evenodd" clip-rule="evenodd"
        d="M17.5322 8.17683H12.9197H12.498V7.75493V6.51821V1.25394C12.498 1.02191 12.6878 0.832031 12.9197 0.832031H13.6731C13.6748 3.19544 15.5902 5.11099 17.9526 5.11099L17.9539 5.11096V6.51821V7.75493V8.17683H17.5322H17.5322Z"
        fill="#014282" />
    <path fill-rule="evenodd" clip-rule="evenodd"
        d="M14.7476 0.832031C15.6765 0.832031 16.6054 0.832031 17.5343 0.832031C17.7662 0.832031 17.9559 1.02191 17.9559 1.25394C17.9559 2.18454 17.9559 3.11516 17.9559 4.04574C16.184 4.04574 14.7476 2.60843 14.7476 0.835532L14.7476 0.832031L14.7476 0.832031Z"
        fill="#FE8700" />
</svg>
