<svg width="358" height="300" viewBox="0 0 358 300" fill="none" xmlns="http://www.w3.org/2000/svg">
<circle cx="179" cy="150" r="78" fill="#FFF7DB"/>
<circle cx="178.5" cy="149.5" r="106" stroke="#FFDE70" stroke-width="3"/>
<circle opacity="0.5" cx="178.5" cy="149.5" r="133" stroke="white"/>
<path d="M220.666 150C220.666 144.542 219.625 139.292 217.666 134.5C216.375 135.417 214.916 136.125 213.375 136.625C212.916 136.792 212.458 136.917 211.958 137.042C213.541 141.042 214.416 145.417 214.416 150C214.416 159.667 210.5 168.458 204.166 174.875C202.958 173.333 201.416 171.917 199.583 170.708C188.291 163.125 169.791 163.125 158.416 170.708C156.583 171.917 155.083 173.333 153.833 174.875C147.5 168.458 143.583 159.667 143.583 150C143.583 130.458 159.458 114.583 179 114.583C183.541 114.583 187.916 115.458 191.916 117.042C192.041 116.542 192.166 116.083 192.333 115.583C192.833 114.042 193.541 112.625 194.5 111.333C189.708 109.375 184.458 108.333 179 108.333C156.041 108.333 137.333 127.042 137.333 150C137.333 162.083 142.541 172.958 150.791 180.583C150.791 180.625 150.791 180.625 150.75 180.667C151.166 181.083 151.666 181.417 152.083 181.792C152.333 182 152.541 182.208 152.791 182.375C153.541 183 154.375 183.583 155.166 184.167C155.458 184.375 155.708 184.542 156 184.75C156.791 185.292 157.625 185.792 158.5 186.25C158.791 186.417 159.125 186.625 159.416 186.792C160.25 187.25 161.125 187.667 162.041 188.042C162.375 188.208 162.708 188.375 163.041 188.5C163.958 188.875 164.875 189.208 165.791 189.5C166.125 189.625 166.458 189.75 166.791 189.833C167.791 190.125 168.791 190.375 169.791 190.625C170.083 190.708 170.375 190.792 170.708 190.833C171.875 191.083 173.041 191.25 174.25 191.375C174.416 191.375 174.583 191.417 174.75 191.458C176.166 191.583 177.583 191.667 179 191.667C180.416 191.667 181.833 191.583 183.208 191.458C183.375 191.458 183.541 191.417 183.708 191.375C184.916 191.25 186.083 191.083 187.25 190.833C187.541 190.792 187.833 190.667 188.166 190.625C189.166 190.375 190.208 190.167 191.166 189.833C191.5 189.708 191.833 189.583 192.166 189.5C193.083 189.167 194.041 188.875 194.916 188.5C195.25 188.375 195.583 188.208 195.916 188.042C196.791 187.667 197.666 187.25 198.541 186.792C198.875 186.625 199.166 186.417 199.458 186.25C200.291 185.75 201.125 185.292 201.958 184.75C202.25 184.583 202.5 184.375 202.791 184.167C203.625 183.583 204.416 183 205.166 182.375C205.416 182.167 205.625 181.958 205.875 181.792C206.333 181.417 206.791 181.042 207.208 180.667C207.208 180.625 207.208 180.625 207.166 180.583C215.458 172.958 220.666 162.083 220.666 150Z" fill="#FFC300"/>
<path d="M179 128.875C170.375 128.875 163.375 135.875 163.375 144.5C163.375 152.958 170 159.833 178.792 160.083C178.917 160.083 179.083 160.083 179.167 160.083C179.25 160.083 179.375 160.083 179.458 160.083C179.5 160.083 179.542 160.083 179.542 160.083C187.958 159.792 194.583 152.958 194.625 144.5C194.625 135.875 187.625 128.875 179 128.875Z" fill="#FFC300"/>
<path d="M207.665 105C198.483 105 191 112.483 191 121.665C191 130.847 198.483 138.33 207.665 138.33C216.847 138.33 224.33 130.847 224.33 121.665C224.33 112.483 216.847 105 207.665 105ZM215.631 117.832L206.182 127.281C205.949 127.514 205.632 127.648 205.299 127.648C204.965 127.648 204.649 127.514 204.415 127.281L199.699 122.565C199.216 122.082 199.216 121.282 199.699 120.798C200.182 120.315 200.982 120.315 201.466 120.798L205.299 124.631L213.864 116.066C214.348 115.582 215.148 115.582 215.631 116.066C216.114 116.549 216.114 117.332 215.631 117.832Z" fill="#17B26A"/>
</svg>
