<svg width="32" height="32" viewBox="0 0 32 32" fill="none" xmlns="http://www.w3.org/2000/svg">
<g clip-path="url(#clip0_871_36087)">
<path d="M31.5313 26.3687C31.2723 26.3687 31.0625 26.5786 31.0625 26.8374V29.9695C31.0625 30.013 31.0271 30.0484 30.9836 30.0484H29.2024V23.1999C29.2024 22.941 28.9926 22.7311 28.7337 22.7311C28.4748 22.7311 28.2649 22.941 28.2649 23.1999V30.0485H24.8231L25.7546 29.0237C25.8985 28.8654 25.9663 28.6405 25.9361 28.4222C25.9355 28.4175 25.9348 28.4129 25.934 28.4082L24.8868 22.221L25.0795 21.9309L25.1296 21.9666C25.3015 22.0886 25.5206 22.1331 25.7326 22.0802C25.9408 22.0281 26.1152 21.8881 26.2111 21.6961V21.696L27.2766 19.5603L29.7107 20.503C29.8068 20.5448 31.0623 21.1204 31.0623 22.6183V24.6498C31.0623 24.9087 31.2721 25.1186 31.5311 25.1186C31.79 25.1186 31.9998 24.9087 31.9998 24.6499V22.6184C31.9998 20.4553 30.1445 19.6677 30.0656 19.6352C30.0626 19.6339 30.0596 19.6328 30.0566 19.6316L25.9118 18.0264V17.1726C26.5588 16.6521 27.0132 15.9019 27.1496 15.0468C27.4723 15.0063 27.7717 14.8771 28.0201 14.6634C28.3764 14.357 28.5808 13.9112 28.5808 13.4404C28.5808 13.0646 28.4504 12.705 28.2168 12.4193V11.1545C28.2168 8.67909 26.203 6.66528 23.7277 6.66528C22.6164 6.66528 21.5989 7.07203 20.8141 7.7434C20.804 7.38421 20.6754 7.04197 20.4513 6.76797V5.50316C20.4513 3.02779 18.4375 1.01398 15.9622 1.01398C13.4868 1.01398 11.473 3.02785 11.473 5.50316V6.80097C11.2477 7.07022 11.1217 7.39484 11.1105 7.7394C10.6098 7.31147 10.0105 6.98928 9.34254 6.8134C9.09179 6.7474 8.83573 6.89697 8.7698 7.14734C8.70386 7.39772 8.85336 7.65415 9.10373 7.72009C10.6608 8.13009 11.7483 9.5424 11.7483 11.1544V11.8555C11.728 11.8513 11.663 11.8401 11.6605 11.8397C11.6542 11.7074 11.6207 11.6266 11.5485 11.5228C11.4285 11.3504 11.213 11.1356 10.5199 10.3906C10.2729 10.1253 9.87342 10.0766 9.57017 10.2748C8.38298 11.0503 6.94067 11.4456 5.60218 11.367C5.16618 11.3415 4.89387 11.533 4.7778 11.847C4.76743 11.8486 4.65149 11.872 4.64505 11.8736V11.1544C4.64505 9.60009 5.68368 8.20178 7.17074 7.75384C7.41861 7.67921 7.55905 7.41772 7.48442 7.16978C7.40974 6.92184 7.14786 6.7814 6.9003 6.85615C5.99593 7.12853 5.18299 7.69565 4.61143 8.4529C4.01999 9.23627 3.70743 10.1705 3.70743 11.1545V12.4523C3.47131 12.7345 3.34362 13.0773 3.34362 13.4404C3.34362 14.2429 3.93487 14.9428 4.77724 15.0471C4.91524 15.8823 5.36836 16.6833 6.08349 17.2278V18.0266L1.94331 19.6318C1.94037 19.6329 1.93743 19.6341 1.9345 19.6353C1.85537 19.6677 0 20.4552 0 22.6183V29.9695C0 30.53 0.455999 30.986 1.01656 30.986H15.4522C15.654 30.986 15.8417 30.9262 16 30.8244C16.1583 30.9262 16.346 30.986 16.5478 30.986H30.9836C31.5441 30.986 32.0001 30.53 32.0001 29.9695V26.8374C32 26.5786 31.7902 26.3687 31.5313 26.3687ZM4.73137 14.0786C4.45655 13.9788 4.28099 13.7246 4.28099 13.4403C4.28099 13.1645 4.48099 12.9378 4.73137 12.8303V14.0786ZM26.3986 19.2203L25.4785 21.0644C25.4784 21.0643 24.4565 20.3384 24.442 20.3281C24.8828 19.7839 24.6757 20.0396 25.5925 18.9081L26.3986 19.2203ZM23.7643 19.6751L22.552 18.1787V17.729C22.9461 17.8653 23.3706 17.9281 23.7701 17.9283C23.7702 17.9283 23.7703 17.9283 23.7704 17.9283H23.7705C24.1836 17.9282 24.6018 17.8498 24.9743 17.7096V18.1816L23.7643 19.6751ZM24.3147 21.3878L24.1423 21.6474H23.3866L23.2141 21.3878L23.7645 20.997L24.3147 21.3878ZM15.9988 14.0238L14.7865 12.5273V12.0776C15.179 12.2133 15.603 12.2768 16.0046 12.2769C16.0047 12.2769 16.0048 12.2769 16.0048 12.2769H16.0049C16.4173 12.2769 16.8355 12.1987 17.2088 12.0583V12.5302L15.9988 14.0238ZM16.5491 15.7366L16.3767 15.9961H15.621L15.4485 15.7366L15.9988 15.3458L16.5491 15.7366ZM12.3074 9.35084C12.384 9.37171 12.4627 9.3859 12.5427 9.39577C12.6807 10.231 13.1338 11.0319 13.8489 11.5765V12.3753L12.8926 12.746C12.8372 12.6295 12.7679 12.5198 12.6856 12.4193V11.1545C12.6856 10.5183 12.5516 9.90683 12.3074 9.35084ZM18.4897 8.85446C18.4897 10.2265 17.3705 11.3392 16.0049 11.3392C14.4642 11.3392 13.4346 10.1451 13.4346 8.85446V6.65872C14.9148 6.71797 16.4525 6.27928 17.7097 5.49678C18.1323 5.95003 18.3838 6.21334 18.4898 6.33559C18.4897 7.50265 18.4897 7.95328 18.4897 8.85446ZM19.3842 9.39546C19.4636 9.38546 19.542 9.37121 19.6182 9.3504C19.3747 9.9029 19.2385 10.5129 19.2385 11.1545V12.4523C19.1664 12.5383 19.1044 12.63 19.0531 12.7262L18.1463 12.3751V11.5213C18.7933 11.0008 19.2477 10.2506 19.3842 9.39546ZM14.169 13.2575L15.3198 14.6778L14.535 15.2352C14.5346 15.2355 14.5343 15.2358 14.5338 15.2361L14.2848 15.4131L13.3646 13.569L14.169 13.2575ZM17.0777 14.1815L17.8268 13.2567L18.633 13.5689L17.713 15.4131L17.4633 15.2358C17.4631 15.2356 17.4628 15.2354 17.4626 15.2352L16.6764 14.6768L17.0777 14.1815ZM17.3139 16.2796L17.3641 16.3153C17.5393 16.4398 17.7593 16.4809 17.967 16.4289C18.1752 16.3768 18.3497 16.2368 18.4455 16.0448V16.0447L19.2367 14.4591C19.5085 14.7941 19.9016 14.9979 20.3065 15.0485C20.4495 15.9447 20.9339 16.7096 21.6145 17.2278V18.0266L17.6293 19.5716L17.1212 16.5698L17.3139 16.2796ZM21.9346 18.9088L23.0853 20.3291C22.5822 20.6866 22.0764 21.0459 22.0503 21.0644L21.1301 19.2203L21.9346 18.9088ZM26.2552 14.5058C26.2553 15.8444 25.1683 16.9906 23.7705 16.9906C22.1772 16.9906 21.2001 15.7427 21.2001 14.5058V12.3101C22.6698 12.3688 24.2095 11.9359 25.4751 11.1481C25.8978 11.6014 26.1493 11.8647 26.2553 11.987C26.2552 13.154 26.2552 13.6046 26.2552 14.5058ZM27.6433 13.4403C27.6433 13.7252 27.4672 13.9789 27.1929 14.0786V12.8034C27.4764 12.9066 27.6433 13.1657 27.6433 13.4403ZM20.176 11.1544C20.176 9.19602 21.7693 7.60278 23.7276 7.60278C25.686 7.60278 27.2792 9.19609 27.2792 11.1544V11.8555C27.2579 11.851 27.1993 11.8409 27.1914 11.8397C27.1851 11.7073 27.1514 11.6263 27.0794 11.5228C26.9563 11.3459 26.7431 11.1348 26.0508 10.3906C25.8091 10.1311 25.4105 10.0726 25.1011 10.2748C23.9461 11.0293 22.4868 11.4555 21.0983 11.3653C20.7082 11.3398 20.4256 11.5308 20.3087 11.847C20.2983 11.8487 20.1825 11.8721 20.176 11.8736L20.176 11.1544ZM20.2626 12.8303V14.078C19.987 13.9786 19.8122 13.7237 19.8122 13.4403C19.8121 13.1645 20.012 12.938 20.2626 12.8303ZM19.8776 7.78903C19.8776 7.9864 19.7922 8.17309 19.6433 8.30115C19.5793 8.35615 19.5065 8.3984 19.4273 8.42721V7.15203C19.7076 7.25378 19.8776 7.51146 19.8776 7.78903ZM15.962 1.95148C17.9204 1.95148 19.5136 3.54472 19.5136 5.50309V6.20415C19.4925 6.19978 19.4337 6.18959 19.4259 6.1884C19.419 6.04484 19.3776 5.95659 19.2932 5.84241C19.1677 5.67253 18.9363 5.43897 18.2853 4.73922C18.0395 4.47528 17.6402 4.42435 17.3355 4.62347C16.1158 5.42034 14.6361 5.80816 13.2949 5.71209C12.9668 5.68728 12.6579 5.88553 12.5432 6.19559C12.5328 6.19728 12.417 6.22065 12.4105 6.22222V5.50316C12.4105 3.54472 14.0037 1.95148 15.962 1.95148ZM12.4969 7.17897V8.42728C12.2221 8.32753 12.0465 8.07334 12.0465 7.78896C12.0465 7.51471 12.245 7.28728 12.4969 7.17897ZM11.6617 12.8034C11.9239 12.8988 12.0924 13.1276 12.109 13.3996C12.13 13.702 11.9442 13.9754 11.6617 14.078V12.8034ZM11.6182 15.0483C12.0604 14.993 12.4662 14.76 12.7323 14.4016L13.5522 16.0447C13.5522 16.0447 13.5522 16.0447 13.5522 16.0448C13.648 16.2368 13.8225 16.3768 14.0307 16.4289C14.2365 16.4803 14.4567 16.4409 14.6336 16.3153L14.6838 16.2796L14.8765 16.5697L14.3685 19.5708L10.3808 18.0263V17.1729H10.3807C11.0447 16.6376 11.485 15.8813 11.6182 15.0483ZM8.23311 19.6751L7.0208 18.1787V17.729C7.4133 17.8647 7.83742 17.9281 8.23899 17.9282C8.23905 17.9282 8.23917 17.9282 8.23923 17.9282C8.65836 17.9282 9.07586 17.8477 9.44311 17.7096V18.1816L8.23311 19.6751ZM8.78348 21.3878L8.61105 21.6474H7.85536L7.68292 21.3878L8.23323 20.997L8.78348 21.3878ZM10.0612 18.9081L10.8674 19.2203L9.94729 21.0644L9.69767 20.8871C9.69742 20.8869 9.69717 20.8867 9.69692 20.8865L8.91073 20.3281L10.0612 18.9081ZM5.66893 14.5058V12.3101C7.15699 12.3695 8.69567 11.925 9.94392 11.1481C10.3626 11.5971 10.618 11.8646 10.724 11.987C10.724 13.154 10.724 13.6047 10.724 14.5058C10.724 15.8691 9.61248 16.9906 8.23923 16.9906C6.7103 16.9906 5.66893 15.8101 5.66893 14.5058ZM6.40343 18.9088L7.55417 20.3291L6.76942 20.8865C6.76899 20.8868 6.76867 20.8871 6.76824 20.8874L6.51918 21.0644L5.59899 19.2203L6.40343 18.9088ZM3.73518 30.0485V23.1999C3.73518 22.941 3.52537 22.7311 3.26643 22.7311C3.00749 22.7311 2.79768 22.941 2.79768 23.1999V30.0485H1.01656C0.972936 30.0485 0.937561 30.013 0.937561 29.9695V22.6183C0.937561 21.1128 2.20612 20.5389 2.28825 20.5034L4.7208 19.5603L5.78649 21.696C5.78649 21.696 5.78649 21.696 5.78655 21.6961C5.88236 21.8881 6.0568 22.0281 6.26505 22.0802C6.47086 22.1316 6.69105 22.0922 6.86799 21.9666L6.91817 21.9309L7.11086 22.221L6.06368 28.4082C6.06286 28.4129 6.06218 28.4175 6.06149 28.4222C6.03136 28.6404 6.09918 28.8652 6.24311 29.0238L7.17455 30.0485H3.73518V30.0485ZM7.00455 28.4675L8.00011 22.5849H8.4663L9.46192 28.4675L8.23323 29.8192L7.00455 28.4675ZM15.5312 29.9695C15.5312 30.013 15.4958 30.0485 15.4522 30.0485H13.6712V23.1999C13.6712 22.941 13.4614 22.7311 13.2025 22.7311C12.9435 22.7311 12.7337 22.941 12.7337 23.1999V30.0485H9.29186L10.2234 29.0237C10.3673 28.8654 10.4351 28.6405 10.4049 28.4222C10.4042 28.4175 10.4035 28.4129 10.4027 28.4082L9.35554 22.221L9.54823 21.9309L9.59842 21.9666C9.72386 22.0557 9.87236 22.1022 10.023 22.1022C10.298 22.1022 10.554 21.9481 10.6799 21.6961V21.696L11.7455 19.5604L14.1795 20.5031C14.889 20.8117 15.5311 21.6076 15.5311 22.6183L15.5312 29.9695ZM16 20.9149C15.8058 20.6021 15.5473 20.3126 15.2357 20.0655L15.7657 16.9337H16.2319L16.7622 20.0671C16.4423 20.3212 16.1872 20.6133 16 20.9149ZM19.2663 30.0485V23.1999C19.2663 22.941 19.0565 22.7311 18.7976 22.7311C18.5387 22.7311 18.3288 22.941 18.3288 23.1999V30.0485H16.5478C16.5042 30.0485 16.4688 30.013 16.4688 29.9695V22.6183C16.4688 22.0611 16.6435 21.5478 17.0158 21.1166C17.264 20.8319 17.5932 20.6014 17.8195 20.5034L20.2521 19.5603L21.3178 21.696C21.3178 21.696 21.3178 21.696 21.3178 21.6961C21.4136 21.8881 21.5881 22.0281 21.7963 22.0802C22.0021 22.1316 22.2223 22.0922 22.3992 21.9666L22.4494 21.9309L22.6421 22.221L21.5949 28.4082C21.5941 28.4129 21.5934 28.4175 21.5927 28.4222C21.5626 28.6404 21.6304 28.8652 21.7743 29.0238L22.7058 30.0485H19.2663V30.0485ZM22.5357 28.4676L23.5313 22.585H23.9975L24.9931 28.4676L23.7644 29.8192L22.5357 28.4676Z" fill="black"/>
</g>
<defs>
<clipPath id="clip0_871_36087">
<rect width="32" height="32" fill="white"/>
</clipPath>
</defs>
</svg>
